<svg width="1440" height="466" fill="none" xmlns="http://www.w3.org/2000/svg"><g clip-path="url(#clip0)"><path fill="#36C795" d="M0 0h1440v466H0z"/><g opacity=".5"><path d="M-135.427 1146.84c-5.423 0-10.485-2.89-13.016-7.96a14.485 14.485 0 016.508-19.52l497.17-249.129 256.36-246.596 237.919-497.533c.723-1.807 2.169-3.254 3.254-4.7l270.462-241.173c3.25-2.893 7.95-4.339 12.65-3.254 4.34 1.085 8.32 3.977 10.13 7.955l228.15 490.662 271.19 481.622 204.29-234.664c2.53-2.893 6.51-4.701 10.49-5.062 3.97-.362 7.95 1.446 10.84 4.339l232.14 233.218 242.62-727.858c.72-2.169 1.8-3.977 3.61-5.785l498.98-500.063c5.78-5.785 14.82-5.785 20.61 0 5.78 5.785 5.78 14.825 0 20.61l-496.45 497.532-249.13 746.66c-1.44 4.7-5.42 8.316-10.48 9.401-4.7 1.084-10.12-.362-13.38-3.978l-237.92-239.003-207.54 238.28c-3.26 3.616-7.6 5.424-12.3 5.062-4.7-.361-8.68-3.254-11.21-7.231l-281.3-500.063c-.37-.362-.37-.724-.37-1.085l-220.2-473.307-253.826 226.349-237.919 497.532c-.723 1.446-1.807 2.892-2.892 4.339l-259.975 249.85c-1.085 1.085-2.17 1.808-3.616 2.532l-498.978 249.851c-2.532 1.45-4.701 2.17-6.871 2.17z" fill="#56CDA4"/><path d="M-135.429 1146.83c-3.616 0-7.232-1.45-10.124-3.98-5.786-5.42-5.785-14.82-.362-20.61L585.92 372.328c5.424-5.785 14.463-5.785 20.249-.361l255.997 240.449 489.214-489.939c5.43-5.423 14.47-5.785 20.25-.361l249.13 240.088L1850 122.839c2.53-2.892 6.51-4.339 10.12-4.339 3.62 0 7.6 1.447 10.49 4.339l484.88 484.877 489.93-982.047a14.5 14.5 0 0119.53-6.509 14.5 14.5 0 016.51 19.525L2372.48 638.812c-2.17 4.339-6.15 7.231-10.49 7.954-4.7.724-9.4-.723-12.65-3.977l-488.49-489.577-228.88 239.365c-2.53 2.892-6.15 4.339-10.13 4.339-3.61 0-7.59-1.447-10.48-3.978L1361.87 152.85 873.014 642.789c-5.424 5.424-14.463 5.785-20.248.362l-255.998-240.45-721.711 739.789c-3.254 2.89-6.87 4.34-10.486 4.34z" fill="#38E5AA" fill-opacity=".38"/><path d="M605.927 416.845c19.434-4.589 31.468-24.064 26.879-43.498-4.589-19.434-24.063-31.469-43.498-26.88-19.434 4.589-31.468 24.064-26.879 43.498 4.589 19.434 24.063 31.469 43.498 26.88zM1361.51 168.404c19.97 0 36.16-16.189 36.16-36.158 0-19.97-16.19-36.158-36.16-36.158-19.97 0-36.16 16.188-36.16 36.158 0 19.969 16.19 36.158 36.16 36.158z" fill="#38E5AA" fill-opacity=".38"/></g></g><defs><clipPath id="clip0"><path fill="#fff" d="M0 0h1440v466H0z"/></clipPath></defs></svg>