<svg width="414" height="490" fill="none" xmlns="http://www.w3.org/2000/svg"><g opacity=".6"><circle cx="207" cy="308" r="281" fill="#fff" fill-opacity=".2"/><circle cx="206.577" cy="307.577" r="196.911" fill="#36C795" fill-opacity=".5"/><circle cx="206.578" cy="307.577" r="137.753" fill="#229D73" fill-opacity=".5"/></g><g opacity=".8"><path d="M40.975 93.728a.888.888 0 01-.399-1.684l30.46-15.263 15.707-15.108 14.576-30.482c.044-.11.133-.2.2-.288l16.57-14.776a.874.874 0 01.775-.2c.266.067.51.245.62.488l13.979 30.061 16.614 29.508 12.517-14.377a.983.983 0 01.642-.31c.244-.023.487.088.665.265l14.222 14.289 14.864-44.593a.863.863 0 01.222-.355L223.779.266a.883.883 0 011.263 0 .883.883 0 010 1.263L194.626 32.01l-15.263 45.745a.85.85 0 01-.642.576.866.866 0 01-.82-.244l-14.576-14.643-12.716 14.599a.902.902 0 01-.753.31c-.288-.022-.532-.2-.687-.443l-17.235-30.637c-.022-.022-.022-.044-.022-.067L118.421 18.21 102.87 32.078 88.293 62.56c-.044.089-.11.178-.177.266L72.188 78.133a.794.794 0 01-.221.155L41.396 93.595a.843.843 0 01-.42.133z" fill="#FFB783"/><path d="M40.975 93.728a.952.952 0 01-.62-.243c-.354-.333-.354-.909-.022-1.263L85.17 46.277a.876.876 0 011.24-.022l15.685 14.731 29.972-30.016a.897.897 0 011.241-.023l15.263 14.71 14.045-14.665a.838.838 0 01.62-.266c.222 0 .465.088.643.266l29.706 29.707L223.602.532a.889.889 0 011.197-.399c.443.221.62.753.398 1.196l-30.57 61.275a.892.892 0 01-.643.487.897.897 0 01-.775-.244l-29.928-29.995-14.023 14.666a.805.805 0 01-.62.265 1.01 1.01 0 01-.643-.243L132.71 32.83l-29.951 30.017a.896.896 0 01-1.24.023L85.835 48.138 41.618 93.462a.966.966 0 01-.643.266z" fill="#F7944B"/><path d="M119.179 18.92a2.215 2.215 0 10-1.018-4.312 2.215 2.215 0 001.018 4.312z" fill="#FFB783"/><path d="M86.395 49.004a2.215 2.215 0 10-1.018-4.312 2.215 2.215 0 001.019 4.312zM132.687 33.783a2.215 2.215 0 100-4.43 2.215 2.215 0 000 4.43zM163.258 33.783a2.215 2.215 0 100-4.43 2.215 2.215 0 000 4.43z" fill="#F7944B"/><path d="M193.829 33.783a2.215 2.215 0 100-4.43 2.215 2.215 0 000 4.43z" fill="#FFB783"/></g><path d="M192.694 97.726h-4.054v11.743h4.054V97.726zM244.734 101.542h-4.054v7.927h4.054v-7.927zM209.901 81.984h-4.055v27.485h4.055V81.984zM218.499 97.112h-4.055v12.357h4.055V97.112zM227.107 93.614h-4.054v15.855h4.054V93.614zM201.292 89.969h-4.054v19.5h4.054v-19.5zM235.739 85.448h-4.054v24.021h4.054v-24.02zM41.055 349.226H37v11.743h4.055v-11.743zM93.095 353.042H89.04v7.927h4.055v-7.927zM58.261 333.484h-4.055v27.486h4.055v-27.486zM66.859 348.613h-4.055v12.356h4.055v-12.356zM75.467 345.114h-4.054v15.855h4.054v-15.855zM49.652 341.469h-4.055v19.5h4.055v-19.5zM84.1 336.949h-4.055v24.021h4.054v-24.021z" fill="#FFB783"/><g opacity=".5" fill="#FFB783"><path d="M60.168 177.552H37.616v65.318h22.552v-65.318zM349.615 198.777h-22.552v44.093h22.552v-44.093zM155.871 89.998H133.32V242.87h22.551V89.998zM203.691 174.14h-22.552v68.73h22.552v-68.73zM251.574 154.684h-22.552v88.186h22.552v-88.186zM107.988 134.407H85.436V242.87h22.552V134.407zM299.584 109.265h-22.552V242.87h22.552V109.265z"/></g><path d="M374.443 187.577l-11.277-6.892-2.043 13.056c5.305.833 10.558-1.648 13.32-6.164z" fill="#FED"/><path d="M374.452 187.559c.026-.052.07-.114.07-.114a13.201 13.201 0 00.29-13.004c-3.99 2.087-1.614.824-11.645 6.243 11.294 6.902 9.54 5.841 11.285 6.875z" fill="#9CD499"/><path d="M350.776 176.116l12.39 4.568 11.628-6.287c-5.437-10.058-20.072-8.848-24.018 1.719z" fill="#FFB783"/><path d="M361.132 193.741l2.043-13.057-12.39-4.568c-2.956 7.901 2.279 16.354 10.347 17.625z" fill="#F7944B"/><path d="M375.039 187.428c2.236-3.938 2.368-8.804.342-12.847h.009l-.21-.386c0-.008-.009-.017-.009-.026l-.167-.316h-.008c-1.316-2.288-3.192-4.103-5.446-5.278a13.684 13.684 0 00-7.261-1.491c-5.296.368-9.759 3.604-11.75 8.479h-.009l-.149.413-.158.412h.009a13.468 13.468 0 001.158 11.136c2.025 3.464 5.375 5.84 9.251 6.577v.009l.43.07.438.07v-.009a13.503 13.503 0 007.427-1.175 13.573 13.573 0 005.674-4.91l.009.008.087-.14.141-.228a.912.912 0 01.061-.105l.009-.018.008-.009.114-.236zm-1.324-11.917c.263-.132.562-.29.912-.474a12.809 12.809 0 01-.333 11.926l-.088-.053c-.464-.271-.657-.394-1.578-.947l-8.585-5.252 7.129-3.859c1.053-.561 1.482-.789 2.543-1.341zm-22.369.351c1.868-4.551 6.042-7.559 10.987-7.91 4.893-.342 9.392 2.052 11.856 6.27l-3.438 1.859c-.71.377-1.701.921-3.358 1.815-1.061.579-2.403 1.298-4.113 2.227l-.105.062-.342-.211-.017.123-5.428-1.999-6.042-2.236zm.789 11.215a12.577 12.577 0 01-1.087-10.391l8.164 3.008 3.472 1.28-1.912 12.259c-3.621-.702-6.752-2.929-8.637-6.156zm9.497 6.287l1.868-11.969 4.866 2.972 3.788 2.315 1.675 1.026a12.7 12.7 0 01-12.197 5.656z" fill="#D7F4EA"/><path d="M70.985 151.922c-.76 3.112-3.984 5.039-7.201 4.304-3.218-.735-5.21-3.853-4.45-6.965.76-3.112 3.984-5.039 7.201-4.304 3.218.735 5.21 3.853 4.45 6.965z" fill="#F7944B" fill-opacity=".8"/><path d="M92.723 104.111c-.446 1.825-2.337 2.956-4.224 2.525-1.888-.431-3.057-2.261-2.611-4.086.445-1.826 2.337-2.956 4.224-2.525 1.888.431 3.057 2.26 2.611 4.086zM289.362 64.66c-.446 1.825-2.337 2.956-4.225 2.525-1.887-.431-3.056-2.26-2.61-4.087.445-1.825 2.337-2.956 4.224-2.524 1.888.43 3.057 2.26 2.611 4.085z" fill="#38E5AA"/><path d="M356.848 112.592c-.319 1.307-1.674 2.117-3.025 1.808-1.352-.308-2.189-1.619-1.87-2.926.319-1.307 1.674-2.117 3.026-1.808 1.351.308 2.188 1.619 1.869 2.926z" fill="#FFB783"/></svg>