<svg width="1440" height="1299" fill="none" xmlns="http://www.w3.org/2000/svg"><g clip-path="url(#clip0)"><path fill="url(#paint0_linear)" d="M0 0h1440v1299H0z"/><g opacity=".6"><circle cx="333" cy="412" r="578" fill="#fff" fill-opacity=".2"/><circle cx="332.13" cy="411.131" r="405.035" fill="#36C795" fill-opacity=".5"/><circle cx="332.131" cy="411.131" r="283.35" fill="#229D73" fill-opacity=".5"/></g><g opacity=".8"><path d="M55.449 145.052a1.44 1.44 0 01-.647-2.731l49.414-24.761 25.479-24.51 23.647-49.45c.072-.18.216-.323.324-.467l26.881-23.97a1.422 1.422 0 011.258-.324c.431.108.826.395 1.006.79l22.677 48.768 26.953 47.869 20.305-23.324c.251-.287.647-.467 1.042-.503.395-.036.79.144 1.078.432l23.072 23.179 24.114-72.342c.072-.216.18-.395.359-.575L352.005-6.57a1.433 1.433 0 012.049 0 1.432 1.432 0 010 2.049l-49.343 49.45-24.761 74.211a1.38 1.38 0 01-1.042.934c-.467.108-1.006-.036-1.329-.395l-23.647-23.755-20.629 23.683a1.462 1.462 0 01-1.221.503c-.468-.036-.863-.323-1.115-.719l-27.959-49.701c-.036-.036-.036-.072-.036-.108L181.086 22.54l-25.228 22.497-23.647 49.45c-.072.143-.18.287-.287.43l-25.84 24.834a1.27 1.27 0 01-.359.251l-49.594 24.833c-.251.144-.467.216-.682.216z" fill="#FFB783"/><path d="M55.449 145.052c-.36 0-.72-.144-1.007-.396-.575-.539-.575-1.473-.036-2.048l72.738-74.535c.539-.574 1.437-.575 2.012-.035L154.6 91.935l48.624-48.695a1.454 1.454 0 012.012-.036l24.761 23.862 22.785-23.79c.251-.288.646-.432 1.006-.432a1.5 1.5 0 011.042.431l48.192 48.193 48.696-97.607a1.44 1.44 0 011.94-.647 1.44 1.44 0 01.647 1.941L304.711 94.56a1.445 1.445 0 01-1.042.791 1.459 1.459 0 01-1.258-.395l-48.551-48.66-22.749 23.791c-.251.288-.611.431-1.006.431-.359 0-.755-.144-1.042-.395l-24.797-23.863-48.588 48.696a1.454 1.454 0 01-2.012.036l-25.444-23.899-71.731 73.528c-.324.288-.683.432-1.042.432z" fill="#F7944B"/><path d="M182.316 23.694a3.594 3.594 0 10-1.651-6.996 3.594 3.594 0 001.651 6.995z" fill="#FFB783"/><path d="M129.132 72.497a3.594 3.594 0 10-1.65-6.995 3.594 3.594 0 001.65 6.995zM204.23 47.805a3.594 3.594 0 100-7.188 3.594 3.594 0 000 7.188zM253.824 47.805a3.593 3.593 0 100-7.186 3.593 3.593 0 000 7.186z" fill="#F7944B"/><path d="M303.417 47.805a3.594 3.594 0 100-7.188 3.594 3.594 0 000 7.188z" fill="#FFB783"/></g><path d="M301.578 151.537H295v19.051h6.578v-19.051zM386 157.727h-6.578v12.861H386v-12.861zM329.491 126h-6.577v44.588h6.577V126zM343.439 150.542h-6.578v20.046h6.578v-20.046zM357.405 144.867h-6.578v25.721h6.578v-25.721zM315.525 138.953h-6.577v31.635h6.577v-31.635zM371.408 131.62h-6.578v38.968h6.578V131.62zM55.578 559.537H49v19.051h6.578v-19.051zM140 565.727h-6.578v12.861H140v-12.861zM83.491 534h-6.577v44.588h6.577V534zM97.439 558.542h-6.578v20.046h6.578v-20.046zM111.405 552.867h-6.578v25.721h6.578v-25.721zM69.525 546.953h-6.577v31.635h6.577v-31.635zM125.408 539.62h-6.578v38.968h6.578V539.62z" fill="#FFB783"/><g opacity=".5" fill="#FFB783"><path d="M86.585 281.036H50V387h36.585V281.036zM556.145 315.469H519.56v71.53h36.585v-71.53zM241.841 139h-36.585v248h36.585V139zM319.418 275.502h-36.585v111.497h36.585V275.502zM397.097 243.938h-36.585v143.061h36.585V243.938zM164.162 211.043h-36.585V387h36.585V211.043zM474.981 170.257h-36.585V387h36.585V170.257z"/></g><path d="M596.421 297.299l-18.293-11.181-3.315 21.182c8.606 1.351 17.127-2.675 21.608-10.001z" fill="#FED"/><path d="M596.436 297.271c.043-.086.114-.185.114-.185 3.869-6.473 4.011-14.51.469-21.097-6.472 3.386-2.617 1.338-18.891 10.129 18.322 11.195 15.477 9.474 18.308 11.153z" fill="#9CD499"/><path d="M558.027 278.706l20.101 7.412 18.863-10.2c-8.82-16.316-32.562-14.353-38.964 2.788z" fill="#FFB783"/><path d="M574.827 307.3l3.315-21.182-20.101-7.412c-4.794 12.818 3.699 26.531 16.786 28.594z" fill="#F7944B"/><path d="M597.389 297.057c3.627-6.387 3.841-14.282.555-20.84h.014l-.341-.626c0-.014-.015-.028-.015-.043l-.27-.512h-.014c-2.134-3.713-5.178-6.657-8.834-8.563-3.585-1.864-7.653-2.703-11.779-2.419-8.592.598-15.833 5.847-19.062 13.756h-.014l-.242.669-.256.668h.014c-2.02 6.004-1.351 12.547 1.878 18.067 3.286 5.619 8.72 9.474 15.008 10.669v.014l.697.114.711.114v-.015a21.922 21.922 0 0012.049-1.906 22.014 22.014 0 009.204-7.966l.014.014.142-.227.228-.37c.028-.057.071-.128.1-.171l.014-.028.014-.015.185-.384zm-2.148-19.332c.427-.214.91-.47 1.479-.768 3.016 6.102 2.817 13.414-.54 19.346l-.142-.085c-.754-.441-1.067-.64-2.561-1.536l-13.927-8.521 11.566-6.26c1.707-.91 2.404-1.28 4.125-2.176zm-36.289.569c3.03-7.383 9.801-12.262 17.824-12.831 7.938-.555 15.236 3.328 19.233 10.171l-5.576 3.016c-1.153.611-2.76 1.493-5.449 2.944-1.721.939-3.897 2.106-6.671 3.613l-.171.1-.555-.341-.028.199-8.806-3.244-9.801-3.627zm1.28 18.194c-3.016-5.149-3.642-11.252-1.764-16.857l13.244 4.879 5.633 2.077-3.101 19.888c-5.875-1.139-10.953-4.752-14.012-9.987zm15.406 10.2l3.03-19.418 7.895 4.823c3.187 1.948 5.008 3.058 6.146 3.755l2.717 1.664c-4.339 6.601-11.978 10.143-19.788 9.176z" fill="#D7F4EA"/><path d="M104.134 239.458c-1.233 5.048-6.463 8.174-11.683 6.982-5.22-1.192-8.452-6.251-7.22-11.299 1.233-5.048 6.464-8.175 11.683-6.983 5.22 1.192 8.452 6.251 7.22 11.3z" fill="#F7944B" fill-opacity=".8"/><path d="M139.398 161.895c-.723 2.961-3.792 4.795-6.854 4.096-3.062-.699-4.958-3.667-4.235-6.629.723-2.961 3.791-4.795 6.853-4.096 3.062.7 4.959 3.667 4.236 6.629zM458.398 97.895c-.723 2.961-3.792 4.795-6.854 4.096-3.062-.699-4.958-3.667-4.235-6.629.723-2.961 3.791-4.795 6.853-4.096 3.062.7 4.959 3.667 4.236 6.629z" fill="#38E5AA"/><path d="M567.879 175.654c-.518 2.121-2.716 3.434-4.909 2.933-2.192-.5-3.55-2.626-3.033-4.747.518-2.121 2.716-3.434 4.909-2.933 2.192.501 3.55 2.626 3.033 4.747z" fill="#FFB783"/></g><defs><linearGradient id="paint0_linear" x1="468" y1="0" x2="1715.87" y2="2381.38" gradientUnits="userSpaceOnUse"><stop stop-color="#36C795"/><stop offset="1" stop-color="#3B51C3"/></linearGradient><clipPath id="clip0"><path fill="#fff" d="M0 0h1440v1299H0z"/></clipPath></defs></svg>