<svg width="1440" height="1299" viewBox="0 0 1440 1299" fill="none" xmlns="http://www.w3.org/2000/svg">
<g clip-path="url(#clip0)">
<rect width="1440" height="1299" fill="url(#paint0_linear)"/>
<g opacity="0.6">
<circle cx="333" cy="412" r="578" fill="white" fill-opacity="0.2"/>
<circle cx="332.13" cy="411.131" r="405.035" fill="#36C795" fill-opacity="0.5"/>
<circle cx="332.131" cy="411.131" r="283.35" fill="#229D73" fill-opacity="0.5"/>
</g>
<g opacity="0.8">
<path d="M230.448 251.052C229.909 251.052 229.406 250.764 229.155 250.261C228.795 249.542 229.083 248.68 229.802 248.321L279.216 223.56L304.695 199.05L328.342 149.6C328.414 149.42 328.558 149.277 328.666 149.133L355.547 125.163C355.871 124.875 356.338 124.731 356.805 124.839C357.236 124.947 357.631 125.234 357.811 125.63L380.488 174.397L407.441 222.266L427.746 198.942C427.997 198.655 428.393 198.475 428.788 198.439C429.183 198.403 429.578 198.583 429.866 198.87L452.938 222.05L477.052 149.708C477.124 149.492 477.232 149.313 477.411 149.133L527.005 99.4313C527.58 98.8562 528.479 98.8562 529.054 99.4313C529.629 100.006 529.629 100.905 529.054 101.48L479.711 150.93L454.95 225.141C454.807 225.608 454.411 225.967 453.908 226.075C453.441 226.183 452.902 226.039 452.579 225.68L428.932 201.925L408.303 225.608C407.98 225.967 407.549 226.147 407.082 226.111C406.614 226.075 406.219 225.788 405.967 225.392L378.008 175.691C377.972 175.655 377.972 175.619 377.972 175.583L356.086 128.541L330.858 151.038L307.211 200.488C307.139 200.631 307.031 200.775 306.924 200.919L281.084 225.752C280.977 225.86 280.869 225.931 280.725 226.003L231.131 250.836C230.88 250.98 230.664 251.052 230.448 251.052Z" fill="#FFB783"/>
<path d="M230.448 251.052C230.089 251.052 229.73 250.908 229.442 250.656C228.867 250.117 228.867 249.183 229.406 248.608L302.144 174.073C302.683 173.498 303.581 173.498 304.156 174.038L329.6 197.936L378.224 149.241C378.763 148.702 379.661 148.666 380.236 149.205L404.997 173.067L427.782 149.277C428.033 148.989 428.428 148.845 428.788 148.845C429.147 148.845 429.543 148.989 429.83 149.277L478.022 197.469L526.718 99.8624C527.077 99.1436 527.94 98.8561 528.658 99.2155C529.377 99.5749 529.665 100.437 529.305 101.156L479.711 200.559C479.496 200.991 479.1 201.278 478.669 201.35C478.202 201.422 477.735 201.278 477.411 200.955L428.86 152.295L406.111 176.086C405.86 176.373 405.5 176.517 405.105 176.517C404.746 176.517 404.35 176.373 404.063 176.122L379.266 152.259L330.678 200.955C330.139 201.494 329.241 201.53 328.666 200.991L303.222 177.092L231.491 250.62C231.167 250.908 230.808 251.052 230.448 251.052Z" fill="#F7944B"/>
<path d="M357.316 129.693C359.248 129.237 360.444 127.302 359.988 125.37C359.532 123.439 357.596 122.242 355.664 122.699C353.733 123.155 352.537 125.09 352.993 127.022C353.449 128.953 355.385 130.15 357.316 129.693Z" fill="#FFB783"/>
<path d="M304.132 178.497C306.064 178.041 307.26 176.105 306.804 174.174C306.348 172.242 304.412 171.046 302.48 171.502C300.549 171.958 299.353 173.894 299.809 175.825C300.265 177.757 302.2 178.953 304.132 178.497Z" fill="#F7944B"/>
<path d="M379.23 153.805C381.215 153.805 382.824 152.196 382.824 150.211C382.824 148.226 381.215 146.617 379.23 146.617C377.245 146.617 375.636 148.226 375.636 150.211C375.636 152.196 377.245 153.805 379.23 153.805Z" fill="#F7944B"/>
<path d="M428.824 153.805C430.809 153.805 432.417 152.196 432.417 150.211C432.417 148.226 430.809 146.617 428.824 146.617C426.839 146.617 425.23 148.226 425.23 150.211C425.23 152.196 426.839 153.805 428.824 153.805Z" fill="#F7944B"/>
<path d="M478.417 153.805C480.402 153.805 482.011 152.196 482.011 150.211C482.011 148.226 480.402 146.617 478.417 146.617C476.433 146.617 474.824 148.226 474.824 150.211C474.824 152.196 476.433 153.805 478.417 153.805Z" fill="#FFB783"/>
</g>
<path d="M286.578 247.537H280V266.588H286.578V247.537Z" fill="#FFB783"/>
<path d="M371 253.727H364.422V266.588H371V253.727Z" fill="#FFB783"/>
<path d="M314.491 222H307.914V266.588H314.491V222Z" fill="#FFB783"/>
<path d="M328.439 246.542H321.861V266.588H328.439V246.542Z" fill="#FFB783"/>
<path d="M342.405 240.867H335.827V266.588H342.405V240.867Z" fill="#FFB783"/>
<path d="M300.525 234.953H293.948V266.588H300.525V234.953Z" fill="#FFB783"/>
<path d="M356.408 227.62H349.83V266.588H356.408V227.62Z" fill="#FFB783"/>
<path d="M55.5776 534.537H49V553.588H55.5776V534.537Z" fill="#FFB783"/>
<path d="M140 540.727H133.422V553.588H140V540.727Z" fill="#FFB783"/>
<path d="M83.4912 509H76.9136V553.588H83.4912V509Z" fill="#FFB783"/>
<path d="M97.439 533.542H90.8613V553.588H97.439V533.542Z" fill="#FFB783"/>
<path d="M111.405 527.867H104.827V553.588H111.405V527.867Z" fill="#FFB783"/>
<path d="M69.5254 521.953H62.9478V553.588H69.5254V521.953Z" fill="#FFB783"/>
<path d="M125.408 514.62H118.83V553.588H125.408V514.62Z" fill="#FFB783"/>
<g opacity="0.5">
<path d="M326.215 334.717H308V387.474H326.215V334.717Z" fill="#FFB783"/>
<path d="M560 351.861H541.785V387.474H560V351.861Z" fill="#FFB783"/>
<path d="M403.514 264H385.299V387.474H403.514V264Z" fill="#FFB783"/>
<path d="M442.138 331.962H423.923V387.474H442.138V331.962Z" fill="#FFB783"/>
<path d="M480.813 316.247H462.598V387.474H480.813V316.247Z" fill="#FFB783"/>
<path d="M364.839 299.869H346.624V387.474H364.839V299.869Z" fill="#FFB783"/>
<path d="M519.59 279.562H501.375V387.475H519.59V279.562Z" fill="#FFB783"/>
</g>
<path d="M588.421 328.299L570.128 317.118L566.813 338.3C575.419 339.651 583.94 335.625 588.421 328.299Z" fill="#FFEEDD"/>
<path d="M588.436 328.271C588.479 328.185 588.55 328.086 588.55 328.086C592.419 321.613 592.561 313.576 589.019 306.989C582.547 310.375 586.402 308.327 570.128 317.118C588.45 328.313 585.605 326.592 588.436 328.271Z" fill="#9CD499"/>
<path d="M550.027 309.706L570.128 317.118L588.991 306.918C580.171 290.602 556.429 292.565 550.027 309.706Z" fill="#FFB783"/>
<path d="M566.827 338.3L570.142 317.118L550.041 309.706C545.247 322.524 553.74 336.237 566.827 338.3Z" fill="#F7944B"/>
<path d="M589.389 328.057C593.016 321.67 593.23 313.775 589.944 307.217H589.958L589.617 306.591C589.617 306.577 589.602 306.563 589.602 306.548L589.332 306.036H589.318C587.184 302.323 584.14 299.379 580.484 297.473C576.899 295.609 572.831 294.77 568.705 295.054C560.113 295.652 552.872 300.901 549.643 308.81H549.629L549.387 309.479L549.131 310.147H549.145C547.125 316.151 547.794 322.694 551.023 328.214C554.309 333.833 559.743 337.688 566.031 338.883V338.897L566.728 339.011L567.439 339.125V339.11C568.349 339.224 569.26 339.281 570.17 339.281C573.371 339.281 576.543 338.584 579.488 337.204C583.258 335.454 586.43 332.709 588.692 329.238L588.706 329.252L588.848 329.025L589.076 328.655C589.104 328.598 589.147 328.527 589.176 328.484L589.19 328.456L589.204 328.441L589.389 328.057ZM587.241 308.725C587.668 308.511 588.151 308.255 588.72 307.957C591.736 314.059 591.537 321.371 588.18 327.303L588.038 327.218C587.284 326.777 586.971 326.578 585.477 325.682L571.55 317.161L583.116 310.901C584.823 309.991 585.52 309.621 587.241 308.725ZM550.952 309.294C553.982 301.911 560.753 297.032 568.776 296.463C576.714 295.908 584.012 299.791 588.009 306.634L582.433 309.65C581.28 310.261 579.673 311.143 576.984 312.594C575.263 313.533 573.087 314.7 570.313 316.207L570.142 316.307L569.587 315.966L569.559 316.165L560.753 312.921L550.952 309.294ZM552.232 327.488C549.216 322.339 548.59 316.236 550.468 310.631L563.712 315.51L569.345 317.587L566.244 337.475C560.369 336.336 555.291 332.723 552.232 327.488ZM567.638 337.688L570.668 318.27L578.563 323.093C581.75 325.041 583.571 326.151 584.709 326.848L587.426 328.512C583.087 335.113 575.448 338.655 567.638 337.688Z" fill="#D7F4EA"/>
<path d="M70.1335 294.458C68.9011 299.506 63.6706 302.632 58.451 301.44C53.2314 300.248 49.9993 295.189 51.2318 290.141C52.4642 285.093 57.6947 281.966 62.9143 283.158C68.1339 284.35 71.366 289.409 70.1335 294.458Z" fill="#F7944B" fill-opacity="0.8"/>
<path d="M139.398 161.895C138.675 164.856 135.606 166.69 132.544 165.991C129.482 165.292 127.586 162.324 128.309 159.362C129.032 156.401 132.1 154.567 135.162 155.266C138.224 155.966 140.121 158.933 139.398 161.895Z" fill="#38E5AA"/>
<path d="M381.398 80.8949C380.675 83.8565 377.606 85.6904 374.544 84.9911C371.482 84.2918 369.586 81.324 370.309 78.3624C371.032 75.4008 374.1 73.5669 377.162 74.2662C380.224 74.9655 382.121 77.9333 381.398 80.8949Z" fill="#38E5AA"/>
<path d="M537.879 200.654C537.361 202.775 535.163 204.088 532.97 203.587C530.778 203.087 529.42 200.961 529.937 198.84C530.455 196.719 532.653 195.406 534.846 195.907C537.038 196.408 538.396 198.533 537.879 200.654Z" fill="#FFB783"/>
</g>
<defs>
<linearGradient id="paint0_linear" x1="468" y1="1.37027e-05" x2="1715.87" y2="2381.38" gradientUnits="userSpaceOnUse">
<stop stop-color="#36C795"/>
<stop offset="1" stop-color="#3B51C3"/>
</linearGradient>
<clipPath id="clip0">
<rect width="1440" height="1299" fill="white"/>
</clipPath>
</defs>
</svg>
