<svg width="310" height="310" fill="none" xmlns="http://www.w3.org/2000/svg"><circle cx="155" cy="155" r="155" fill="#fff"/><path d="M81.997 16c10.53 0 18.998 5.97 18.998 13.244 0 4.668-3.366 8.684-8.468 11.073a78.967 78.967 0 007.382 7.382c-5.536 0-10.964-1.954-15.306-5.211-.869.108-1.737.108-2.606.108-10.53 0-18.997-5.97-18.997-13.243C63 21.97 71.467 16 81.997 16z" fill="#D7EDF5"/><path d="M87.75 28.81c.544-.543.76-1.303.76-2.171 0-.652-.108-1.086-.325-1.629-.217-.434-.543-.76-.977-1.086a3.005 3.005 0 00-1.411-.325c-.869 0-1.52.217-1.954.76-.543.543-.76 1.302-.76 2.17 0 .87.217 1.63.76 2.172.543.543 1.194.76 1.954.76.76.109 1.411-.109 1.954-.651zm-8.358-5.103h-2.171l7.382 10.748h2.17l-7.381-10.748zm5.754 4.017c-.218-.217-.218-.651-.218-1.194 0-.543.109-.869.218-1.194.217-.217.434-.326.65-.326.218 0 .435.109.652.326.217.217.217.651.217 1.194 0 .543-.108.868-.217 1.194-.217.217-.434.326-.651.326-.326.108-.543-.109-.651-.326zm-4.994 6.08c.543-.544.76-1.303.76-2.172 0-.868-.217-1.628-.76-2.171-.543-.543-1.194-.76-1.954-.76-.869 0-1.52.217-1.954.76-.543.543-.76 1.303-.76 2.171 0 .869.217 1.628.76 2.171.543.543 1.194.76 1.954.76.76.109 1.411-.217 1.954-.76zm-2.606-.978c-.217-.217-.217-.651-.217-1.194 0-.543.109-.868.218-1.194.217-.217.434-.326.65-.326.326 0 .544.109.652.326.217.217.217.651.217 1.194 0 .543-.108.869-.217 1.194-.217.217-.434.326-.651.326-.326 0-.543-.109-.651-.326zM173.703 91.912l2.425.591-30.5 125.198-2.426-.591 30.501-125.198zM197.188 91.915l30.5 125.197-2.425.591-30.501-125.198 2.426-.59z" fill="#36C795"/><path d="M231 160.933h-91.079V50.096H231v110.837z" fill="#D7EDF5"/><path d="M147.566 57.794h75.663v92.599h-75.663V57.794z" fill="#36C795"/><path d="M227.247 150.502h-75.664l-4.017-92.708h75.664l4.017 92.708z" fill="#fff"/><path d="M175.682 65.068h20.083v1.194h-20.083v-1.194zM175.899 69.41h20.083v1.194h-20.083V69.41zM214.654 130.419h-9.987l-.76-18.238h9.987l.76 18.238zM200.542 130.419h-9.879l-1.303-28.985h9.879l1.303 28.985zM186.429 130.419h-9.878l-2.172-48.742h9.988l2.062 48.742zM170.58 90.47l1.737 39.949h-9.879l-1.737-39.949h9.879zM165.912 135.846h45.485v1.195h-45.485v-1.195z" fill="#36C795"/><path d="M172.099 83.63c-.542-1.41-1.519-2.387-3.039-2.713-2.931-.651-11.182 5.21-14.438 5.645-3.691.543-7.274-.543-10.205-2.823-6.296-5.102-9.553-13.678-12.701-20.843-.977-2.062-6.513.869-7.924 2.063-1.412 1.194-3.148 2.171-2.063 4.885 3.257 8.142 7.708 16.718 15.307 21.603 6.622 4.234 14.546 4.234 21.819 1.845 2.063-.651 4.017-1.41 5.971-2.388 1.52-.76 3.04-1.411 4.559-2.171 1.954-1.086 3.583-2.714 2.714-5.102z" fill="#FFB783"/><path d="M119.015 63.873c-.217-4.668 5.754-8.141 10.422-4.776 8.033 5.862 8.467 34.52 30.395 25.294 1.303 3.04 2.389 6.296 3.366 8.901-28.116 12.593-43.314-9.444-44.183-29.419z" fill="#F7944B"/><path d="M92.126 193.67l6.627 1.179-2.832 15.925-6.627-1.178 2.832-15.926z" fill="#FFB783"/><path d="M89.162 208.362c2.388.109 8.25 1.195 8.25 1.195s6.731 3.582 7.491 5.97c.543 1.52-1.846 2.063-3.04 1.737l-14.004-4.017 1.303-4.885z" fill="#036A8F"/><path d="M89.162 208.362s4.994 2.823 8.25 1.194c-.108 0-1.085-.651-1.194-.651 0 0-3.799-3.148-6.296-3.257.109 0-.76 2.714-.76 2.714z" fill="#FFB783"/><path d="M99.04 206.842c6.08-29.961 14.222-71.756 14.981-101.5-6.947-.651-13.895-.869-20.842-1.628-1.086 31.915-.977 70.019-5.103 101.391.109-.108 8.36 1.412 10.965 1.737z" fill="#36C795"/><path d="M122.932 195.094l6.707.574-1.344 15.684-6.706-.574 1.343-15.684z" fill="#FFB783"/><path d="M121.295 209.339c2.388 0 8.359.652 8.359.652s6.948 3.148 7.816 5.428c.651 1.411-1.737 2.171-2.931 1.954l-14.221-2.931.977-5.103z" fill="#036A8F"/><path d="M121.295 209.339s5.211 2.497 8.359.652c-.109 0-1.194-.543-1.194-.543s-4.017-2.823-6.514-2.823l-.651 2.714z" fill="#FFB783"/><path d="M131.065 205.648c4.234-26.596 5.537-76.641.543-103.02-6.296.76-14.547 1.086-20.843 1.628 4.994 26.163 11.724 74.904 9.336 100.85 3.582.325 7.273.434 10.964.542z" fill="#36C795"/><path d="M94.373 67.13c.434-12.375 14.438-12.81 23.665-12.267 8.033.434 16.175 4.343 15.849 13.678 0 0 1.195 18.78 1.955 37.344.217 5.97.217 6.405.217 6.405s-9.336 3.256-44.183-.543l2.497-44.617z" fill="#F7944B"/><path d="M116.409 58.12c1.629 0 3.04-1.303 3.04-2.931l.109-6.84-6.297-1.953.326 8.684c-.109 1.629 1.194 3.04 2.822 3.04z" fill="#FFB783"/><path d="M115.107 46.178l4.451.435v8.033c-3.474.108-6.08-3.365-6.188-6.08-.109-.542 1.737-2.388 1.737-2.388zM116.301 41.51l4.343-1.302c1.085-.326 2.279.326 2.605 1.411.326 1.086-.326 2.28-1.411 2.605l-4.56 1.303-.977-4.016z" fill="#FDA25F"/><path d="M115.542 45.636l-4.343 1.302c-1.085.326-2.279-.325-2.605-1.41-.326-1.086.326-2.28 1.411-2.606l4.56-1.303.977 4.017z" fill="#FFB783"/><path d="M119.124 51.715c3.148-.868 4.993-4.234 4.016-7.382l-2.062-6.947c-.869-3.149-4.234-4.994-7.382-4.017-3.148.868-4.994 4.234-4.017 7.382l2.063 6.948c.977 3.04 4.233 4.885 7.382 4.016z" fill="#FFB783"/><path d="M112.177 45.093c-.977 1.303-2.28-2.063-2.389-2.714-.76-2.497-.434-5.536 1.194-7.599 1.303-1.628 6.188-7.273 10.313-4.233 2.606 1.954 2.606 6.404.217 7.924-1.954 1.194-5.862.977-7.49 2.714-1.086 1.194-.977 2.714-1.845 3.908z" fill="#036A8F"/><path d="M97.195 123.905c.435 0 .76-.108 1.195-.326 1.845-1.085 2.822-2.931 1.954-5.102-6.948-17.043-.869-34.412 7.599-49.827 1.085-1.954-4.777-4.342-6.405-5.102-1.737-.76-4.125-.543-5.211 1.41-10.096 17.587-10.856 38.213-2.931 56.776.543 1.52 2.171 2.171 3.8 2.171z" fill="#FFB783"/><path d="M99.475 58.337c1.628-1.194 10.096 2.606 10.313 4.994.434 4.016-14.004 22.037-11.724 47.873l-8.468 2.28c-7.707-25.185 3.04-49.827 9.879-55.147z" fill="#F7944B"/><path d="M110.765 58.12h10.856v-2.823l-2.063-1.52-2.714 3.366-3.365-3.8-2.714 1.52v3.257zM114.673 59.531l1.086-1.303c.76 0 1.302 0 1.954.109l.977 1.194c-.326.977-.543 1.628-.76 2.497a298.575 298.575 0 003.257 36.91c-.652 3.147-1.303 6.404-1.955 9.552-1.411-2.931-2.713-5.971-4.125-9.01-.651-12.593-.651-25.077.109-37.56-.109-.652-.326-1.52-.543-2.389z" fill="#fff"/><path d="M198.37 193.924c-1.628-2.062-2.388-4.776-1.737-7.381.217-.869.326-1.846.326-2.823-.109-2.171-.869-4.234-2.063-5.753-1.194-1.52-1.628-3.366-1.628-5.32v-.434c-.217-3.582-3.366-6.513-7.056-6.405-3.691.109-6.622 3.257-6.514 6.948v.434c.217 1.846-.326 3.8-1.411 5.319a9.754 9.754 0 00-1.628 5.862c0 .977.217 1.954.434 2.823.868 2.605.217 5.319-1.303 7.49-2.062 2.931-3.039 6.622-2.28 10.53 1.086 5.971 5.971 10.639 12.05 11.399 8.685.977 15.958-5.862 15.741-14.33 0-3.256-1.194-6.079-2.931-8.359z" fill="#FFB783"/><path d="M186.537 212.27c.434 0 .651-.325.651-.651v-28.984c0-.435-.325-.652-.651-.652-.434 0-.651.326-.651.652v28.984c0 .326.217.651.651.651z" fill="#fff"/><path d="M186.646 200.329c.217 0 .325-.109.542-.217l4.885-4.885c.218-.217.218-.76 0-.977-.217-.217-.759-.217-.977 0l-4.885 4.885c-.217.217-.217.76 0 .977.109.108.326.217.435.217zM186.537 204.889c.217 0 .326-.109.543-.217.217-.217.217-.76 0-.977l-4.885-4.885c-.217-.218-.76-.218-.977 0-.217.217-.217.759 0 .977l4.885 4.885c.108.217.217.217.434.217zM186.646 190.993c.217 0 .325-.108.542-.217l4.885-4.885c.218-.217.218-.76 0-.977-.217-.217-.759-.217-.977 0l-4.885 4.885c-.217.217-.217.76 0 .977 0 .217.218.217.435.217zM186.429 195.661c.217 0 .325-.108.542-.217.218-.217.218-.76 0-.977l-4.885-4.885c-.217-.217-.759-.217-.977 0-.217.217-.217.76 0 .977l4.885 4.885c.109.109.218.217.435.217z" fill="#fff"/><path d="M197.284 217.373h-19.757l-4.342-11.725h28.441l-4.342 11.725z" fill="#36C795"/></svg>