<svg width="29" height="29" fill="none" xmlns="http://www.w3.org/2000/svg"><path d="M14.51 29a2.642 2.642 0 01-1.601-.534 24.868 24.868 0 01-9.553-14.628.848.848 0 01-.018-.119c-.156-.76-.235-1.54-.235-2.322C3.103 5.113 8.215 0 14.499 0c6.285 0 11.399 5.113 11.399 11.397 0 .834-.09 1.661-.267 2.459a.803.803 0 01-.017.115 24.914 24.914 0 01-9.35 14.37l-.352.257a.82.82 0 01-.079.051c-.402.23-.86.351-1.322.351zM5.046 13.573a23.17 23.17 0 008.882 13.525c.301.227.701.256 1.024.09l.295-.217a23.2 23.2 0 008.679-13.269.831.831 0 01.018-.116 9.64 9.64 0 00.249-2.19c0-5.343-4.348-9.69-9.693-9.69-5.343 0-9.69 4.347-9.69 9.69 0 .7.074 1.398.22 2.074a.88.88 0 01.016.103z" fill="#000"/><path d="M14.5 16.273a4.882 4.882 0 01-4.878-4.876A4.883 4.883 0 0114.5 6.519a4.884 4.884 0 014.879 4.878 4.883 4.883 0 01-4.879 4.876zm0-8.049a3.175 3.175 0 00-3.172 3.173 3.175 3.175 0 003.171 3.17 3.175 3.175 0 003.173-3.17A3.176 3.176 0 0014.5 8.224z" fill="#000"/></svg>