<svg width="310" height="310" fill="none" xmlns="http://www.w3.org/2000/svg"><circle cx="155" cy="155" r="155" fill="#fff"/><path d="M62.71 118.927l40.23-12 15.994 53.636-.01.005 6.74 22.594-40.221 11.995-12.583-42.19-10.15-34.04z" fill="#D7F4EA"/><path d="M68.512 121.947l31.236-9.311 20.428 68.522-31.237 9.31-20.427-68.521zm27.682-7.223l-23.553 7.027a3.006 3.006 0 00-2.027 3.755l18.126 60.776a3.07 3.07 0 003.82 2.067l23.462-6.997a3.054 3.054 0 002.057-3.792l-18.13-60.808a3.034 3.034 0 00-3.755-2.028z" fill="#36C795"/><path d="M102.74 149.039c1.388 4.639-1.26 9.523-5.9 10.911-4.64 1.389-9.523-1.26-10.912-5.899-1.388-4.64 1.26-9.524 5.9-10.912a8.779 8.779 0 0110.912 5.9z" fill="#36C795"/><path d="M180.012 130.39l-32.926 26.052-34.716-43.895v-.01L97.739 94.053 130.655 68l27.326 34.537 22.031 27.853z" fill="#D7F4EA"/><path d="M173.507 129.737l-25.558 20.221-44.358-56.074 25.558-20.22 44.358 56.073zm-23.042 16.958l19.274-15.253a3.025 3.025 0 00.494-4.242l-39.336-49.737a3.068 3.068 0 00-4.316-.505l-19.2 15.19a3.046 3.046 0 00-.495 4.284l39.368 49.768a2.989 2.989 0 004.211.495z" fill="#36C795"/><path d="M142.772 119.498a8.768 8.768 0 10-8.446-15.369 8.77 8.77 0 008.446 15.369z" fill="#36C795"/><path d="M229.494 235.192v6.186c0 .497-.178.96-.497 1.315-.32.391-.782.711-1.351.889a1.43 1.43 0 01-.533.106c-.178.036-.32.036-.498.036H109.166c-1.528 0-2.773-.995-2.844-2.275v-6.292-.107c.071-1.244 1.316-2.275 2.844-2.275H226.65c.178 0 .356 0 .498.036l.533.106c.534.178.996.498 1.351.889.285.427.462.889.462 1.386z" fill="#FFB783"/><path d="M171.801 243.759h-62.919c-1.351 0-2.453-.995-2.524-2.275v-6.292-.106c.071-1.244 1.173-2.275 2.524-2.275h55.205c.889 3.235 2.951 7.678 7.714 10.948zM215.24 232.811h-1.35v10.984h1.35v-10.984zM210.726 232.811h-1.351v10.984h1.351v-10.984zM205.287 232.811h-1.351v10.984h1.351v-10.984zM196.969 232.811h-1.351v10.984h1.351v-10.984zM188.189 232.811h-1.351v10.984h1.351v-10.984zM174.716 232.811h-1.351v10.984h1.351v-10.984z" fill="#F7944B"/><path d="M162.097 232.811h-1.351v10.984h1.351v-10.984zM150.863 232.811h-1.35v10.984h1.35v-10.984zM219.541 232.811h-1.351v10.984h1.351v-10.984zM222.385 232.811h-1.351v10.984h1.351v-10.984zM225.122 232.811h-1.351v10.984h1.351v-10.984zM227.184 232.846v10.878c-.178.035-.32.035-.498.035h-.817v-10.948h.817c.142 0 .32 0 .498.035zM229.032 233.842v8.851a2.82 2.82 0 01-1.35.889v-10.665c.568.214 1.031.534 1.35.925z" fill="#F7944B"/><path d="M216.946 224.208v6.186c0 .497-.177.959-.497 1.315-.32.391-.782.711-1.351.889a1.43 1.43 0 01-.533.106c-.178.036-.32.036-.498.036H96.618c-1.528 0-2.772-.996-2.844-2.275v-6.292-.107c.072-1.244 1.316-2.275 2.844-2.275H214.6l.533.107c.036 0 .036 0 .072.035.035 0 .035 0 .071.036.035.035.106.035.142.071.035 0 .071.036.071.036.035 0 .035.035.071.035.036.036.107.036.142.071.036.036.107.071.142.107.036.035.072.035.107.071.036 0 .036.035.071.071.071.071.142.107.213.178a4.787 4.787 0 01.143.142l.106.107c.285.426.462.888.462 1.35z" fill="#FFB783"/><path d="M159.253 232.811H96.298c-1.35 0-2.453-.996-2.524-2.275v-6.292-.107c.072-1.244 1.174-2.275 2.524-2.275h55.205c.036.107.036.178.072.285.959 3.163 3.021 7.465 7.678 10.664zM202.657 221.827h-1.351v10.984h1.351v-10.984zM198.142 221.827h-1.351v10.984h1.351v-10.984zM192.738 221.827h-1.35v10.984h1.35v-10.984zM184.421 221.827h-1.351v10.984h1.351v-10.984zM175.64 221.827h-1.35v10.984h1.35v-10.984zM162.168 221.827h-1.351v10.984h1.351v-10.984z" fill="#F7944B"/><path d="M149.549 221.827h-1.351v10.984h1.351v-10.984zM138.28 221.826h-1.351v10.984h1.351v-10.984zM206.958 221.827h-1.351v10.984h1.351v-10.984zM209.801 221.827h-1.35v10.984h1.35v-10.984zM212.574 221.827h-1.35v10.984h1.35v-10.984zM214.6 221.862v10.878c-.177.035-.32.035-.497.035h-.818v-10.984h.818c.177.036.355.071.497.071zM216.448 222.893v8.851a2.82 2.82 0 01-1.35.889v-10.664c.568.213 1.031.533 1.35.924z" fill="#F7944B"/><path d="M223.025 213.509v6.185c0 .497-.178.96-.498 1.315-.32.391-.782.711-1.35.889a1.431 1.431 0 01-.534.106c-.177.036-.32.036-.497.036H102.697c-.462 0-.924-.107-1.315-.284-.818-.356-1.422-1.067-1.529-1.884v-.107-6.292-.107c.071-1.244 1.315-2.275 2.844-2.275h117.484c.178 0 .356 0 .498.036l.533.107c.533.177.995.497 1.351.888.284.462.462.924.462 1.387z" fill="#FFB783"/><path d="M165.331 222.111h-62.955a2.61 2.61 0 01-1.173-.284c-.746-.356-1.28-1.067-1.35-1.884v-.107-6.292-.107c.07-1.244 1.173-2.275 2.523-2.275h55.206c.853 3.129 2.808 7.465 7.358 10.7.142.071.249.142.391.249zM208.735 211.127h-1.351v10.984h1.351v-10.984zM204.22 211.127h-1.351v10.984h1.351v-10.984zM198.781 211.127h-1.351v10.984h1.351v-10.984zM190.498 211.127h-1.351v10.984h1.351v-10.984zM181.718 211.127h-1.35v10.984h1.35v-10.984zM168.246 211.127h-1.351v10.984h1.351v-10.984z" fill="#F7944B"/><path d="M155.626 211.127h-1.351v10.984h1.351v-10.984zM144.358 211.127h-1.351v10.984h1.351v-10.984zM213.035 211.127h-1.35v10.984h1.35v-10.984zM215.879 211.127h-1.351v10.984h1.351v-10.984zM218.616 211.127h-1.35v10.984h1.35v-10.984zM220.679 211.162v10.878c-.178.035-.32.035-.498.035h-.818v-10.948h.818c.178 0 .32.035.498.035zM222.527 212.193v8.852c-.32.391-.782.711-1.351.888v-10.664c.569.213 1.031.533 1.351.924z" fill="#F7944B"/><path d="M225.833 202.559v6.185c0 .498-.178.96-.498 1.316a2.812 2.812 0 01-1.35.888 1.433 1.433 0 01-.534.107c-.177.035-.32.035-.497.035H105.505c-1.529 0-2.773-.995-2.844-2.275V202.524v-.107c.071-1.173 1.138-2.097 2.488-2.24H222.954c.177 0 .355 0 .497.036l.534.107c.533.177.995.497 1.35.888.32.391.498.853.498 1.351z" fill="#FFB783"/><path d="M168.14 211.127h-62.955c-1.351 0-2.453-.995-2.524-2.275v-6.292-.107c.071-1.173 1.031-2.097 2.24-2.239h55.489c.924 3.199 2.951 7.643 7.75 10.913zM211.543 200.178h-1.351v10.984h1.351v-10.984zM207.029 200.178h-1.351v10.984h1.351v-10.984zM201.625 200.178h-1.351v10.984h1.351v-10.984zM193.307 200.178h-1.35v10.984h1.35v-10.984zM184.527 200.178h-1.351v10.984h1.351v-10.984zM171.054 200.178h-1.35v10.984h1.35v-10.984z" fill="#F7944B"/><path d="M158.435 200.178h-1.351v10.984h1.351v-10.984zM147.167 200.177h-1.351v10.985h1.351v-10.985zM215.844 200.178h-1.35v10.984h1.35v-10.984zM218.688 200.178h-1.351v10.984h1.351v-10.984zM221.425 200.178h-1.351v10.984h1.351v-10.984zM223.487 200.214v10.877c-.178.036-.32.036-.498.036h-.817v-10.984h.817c.178.035.356.035.498.071zM225.335 201.209v8.851c-.32.391-.782.711-1.351.889v-10.664c.569.213 1.031.533 1.351.924z" fill="#F7944B"/><path d="M217.195 191.611v6.186c0 .497-.177.959-.497 1.315-.32.391-.782.711-1.351.888a1.412 1.412 0 01-.533.107c-.071 0-.107 0-.178.036H96.867c-1.528 0-2.773-.996-2.844-2.275v-6.292-.107-.107c.107-.995.996-1.848 2.133-2.097h.071c.214-.035.391-.071.605-.071H214.672c.035 0 .071 0 .142.036l.533.106c.533.178.995.498 1.351.889.32.427.497.889.497 1.386z" fill="#FFB783"/><path d="M159.501 200.177H96.547c-1.351 0-2.453-.995-2.524-2.275v-6.292-.106-.107c.107-1.031.924-1.884 1.955-2.097.036 0 .071 0 .107-.036.142-.035.284-.035.462-.035h55.205c0 .035 0 .035.036.071.888 3.199 2.95 7.607 7.713 10.877zM202.905 189.23h-1.35v10.984h1.35V189.23zM198.391 189.23h-1.351v10.984h1.351V189.23zM192.988 189.23h-1.351v10.984h1.351V189.23zM184.669 189.23h-1.351v10.984h1.351V189.23zM175.889 189.23h-1.351v10.984h1.351V189.23zM162.417 189.23h-1.351v10.984h1.351V189.23z" fill="#F7944B"/><path d="M149.797 189.23h-1.351v10.984h1.351V189.23zM138.529 189.229h-1.351v10.984h1.351v-10.984zM207.206 189.23h-1.351v10.984h1.351V189.23zM210.05 189.23h-1.351v10.984h1.351V189.23zM212.787 189.23h-1.35v10.984h1.35V189.23zM214.849 189.265v10.878c-.177.035-.319.035-.497.035h-.818v-10.984h.818c.178.036.355.036.497.071zM216.697 190.261v8.851a2.82 2.82 0 01-1.35.889v-10.629a2.82 2.82 0 011.35.889z" fill="#F7944B"/><path d="M216.946 180.698v6.186c0 .497-.177.959-.497 1.315-.32.391-.782.711-1.351.888a6.596 6.596 0 00-.391.107c-.036 0-.071 0-.107.036-.177.035-.32.035-.497.035H96.618c-.106 0-.249 0-.355-.035-.036 0-.107 0-.142-.036-1.28-.178-2.275-1.102-2.347-2.239v-6.292-.107c.072-1.244 1.316-2.275 2.844-2.275H214.6l.533.107c.036 0 .036 0 .072.035.035 0 .035 0 .071.036.035.035.106.035.142.071.035.035.106.035.142.071.036.035.107.035.142.071.036.036.107.071.142.107.036.035.072.035.107.071.036 0 .036.035.071.071.071.071.142.107.213.178l.072.071.071.071.106.106c.285.427.462.889.462 1.351z" fill="#FFB783"/><path d="M159.253 189.301H95.978c-1.208-.142-2.168-1.102-2.24-2.24v-6.292-.106c.072-1.244 1.174-2.275 2.525-2.275h55.205c.035.106.035.177.071.284.924 3.164 2.95 7.429 7.536 10.629.107-.071.142-.036.178 0zM202.656 178.317h-1.35v10.984h1.35v-10.984zM198.141 178.317h-1.35v10.984h1.35v-10.984zM192.738 178.317h-1.351v10.984h1.351v-10.984zM184.42 178.317h-1.351v10.984h1.351v-10.984zM175.64 178.317h-1.351v10.984h1.351v-10.984zM162.167 178.317h-1.351v10.984h1.351v-10.984z" fill="#F7944B"/><path d="M149.548 178.317h-1.351v10.984h1.351v-10.984zM138.28 178.316h-1.351V189.3h1.351v-10.984zM206.957 178.317h-1.351v10.984h1.351v-10.984zM209.801 178.317h-1.351v10.984h1.351v-10.984zM212.573 178.317h-1.35v10.984h1.35v-10.984zM214.6 178.352v10.878c-.178.035-.32.035-.498.035h-.817v-10.984h.817c.178.036.356.071.498.071zM216.448 179.383v8.851a2.82 2.82 0 01-1.35.889v-10.664c.568.213 1.031.533 1.35.924z" fill="#F7944B"/><path d="M223.025 170.033v6.185c0 .498-.178.96-.498 1.316-.32.391-.782.711-1.351.888a1.428 1.428 0 01-.533.107c-.178.035-.32.035-.498.035H102.696c-.462 0-.924-.106-1.315-.284-.818-.355-1.422-1.066-1.528-1.884v-.107V169.998v-.107c.07-1.244 1.315-2.275 2.843-2.275h117.485c.177 0 .355 0 .497.035l.534.107c.533.178.995.498 1.35.889.285.426.463.888.463 1.386z" fill="#FFB783"/><path d="M165.331 178.601h-62.955a2.61 2.61 0 01-1.173-.284c-.746-.356-1.28-1.067-1.35-1.884v-.107-6.292-.107c.07-1.244 1.173-2.275 2.523-2.275h55.206c.853 3.129 2.808 7.465 7.358 10.7.142.071.249.142.391.249zM208.735 167.617h-1.351v10.984h1.351v-10.984zM204.22 167.617h-1.351v10.984h1.351v-10.984zM198.781 167.617h-1.35v10.984h1.35v-10.984zM190.499 167.617h-1.351v10.984h1.351v-10.984zM181.718 167.617h-1.35v10.984h1.35v-10.984zM168.246 167.617h-1.35v10.984h1.35v-10.984z" fill="#F7944B"/><path d="M155.627 167.617h-1.351v10.984h1.351v-10.984zM144.358 167.616h-1.351V178.6h1.351v-10.984zM213.036 167.617h-1.351v10.984h1.351v-10.984zM215.88 167.617h-1.351v10.984h1.351v-10.984zM218.617 167.617h-1.351v10.984h1.351v-10.984zM220.679 167.652v10.878c-.178.035-.32.035-.498.035h-.818v-10.984h.818c.178.036.32.071.498.071zM222.527 168.683v8.852c-.32.391-.782.711-1.351.888v-10.664c.569.213 1.031.533 1.351.924z" fill="#F7944B"/><path d="M232.623 159.049v6.185c0 .498-.178.96-.498 1.315a2.82 2.82 0 01-1.35.889 1.433 1.433 0 01-.534.107c-.177.035-.319.035-.497.035H112.295c-1.529 0-2.773-.995-2.844-2.275v-6.292-.106c.071-1.173 1.138-2.098 2.488-2.24H229.744c.178 0 .355 0 .497.036l.534.106c.533.178.995.498 1.35.889.32.391.498.853.498 1.351z" fill="#FFB783"/><path d="M174.93 167.617h-62.955c-1.351 0-2.453-.996-2.524-2.275v-6.292-.107c.071-1.173 1.031-2.097 2.24-2.239h55.489c.889 3.199 2.951 7.642 7.75 10.913zM218.333 156.668h-1.351v10.984h1.351v-10.984zM213.818 156.668h-1.351v10.984h1.351v-10.984zM208.415 156.668h-1.351v10.984h1.351v-10.984zM200.097 156.668h-1.351v10.984h1.351v-10.984zM191.317 156.668h-1.351v10.984h1.351v-10.984zM177.844 156.668h-1.35v10.984h1.35v-10.984z" fill="#F7944B"/><path d="M165.225 156.668h-1.351v10.984h1.351v-10.984zM153.956 156.667h-1.351v10.984h1.351v-10.984zM222.634 156.668h-1.351v10.984h1.351v-10.984zM225.478 156.668h-1.351v10.984h1.351v-10.984zM228.215 156.668h-1.351v10.984h1.351v-10.984zM230.277 156.704v10.877c-.178.036-.32.036-.498.036h-.818v-10.984h.818c.178.035.32.035.498.071zM232.125 157.699v8.851c-.32.391-.782.711-1.351.889v-10.664c.569.213 1.031.533 1.351.924z" fill="#F7944B"/><path d="M217.195 148.101v6.185c0 .498-.177.96-.497 1.316-.32.391-.782.711-1.351.888a1.432 1.432 0 01-.533.107c-.071 0-.107 0-.178.036H96.867c-1.528 0-2.773-.996-2.844-2.275v-6.292-.107c.072-1.244 1.316-2.275 2.844-2.275h117.627c.106 0 .249 0 .355.035l.533.107c.072.036.178.071.249.107.036.035.107.035.143.071.035.035.106.035.142.071h.035c.036.036.071.036.142.071.107.071.178.142.285.213.035.036.071.036.071.071l.035.036.072.071c.035.036.071.071.106.142.356.462.533.924.533 1.422z" fill="#FFB783"/><path d="M159.501 156.667H96.547c-1.351 0-2.453-.995-2.524-2.275V148.1v-.106c.071-1.244 1.173-2.275 2.524-2.275h55.205c.036.071.036.177.071.248.924 3.2 2.986 7.501 7.678 10.7zM202.905 145.719h-1.35v10.985h1.35v-10.985zM198.391 145.719h-1.351v10.985h1.351v-10.985zM192.988 145.719h-1.351v10.985h1.351v-10.985zM184.669 145.719h-1.351v10.985h1.351v-10.985zM175.889 145.719h-1.351v10.985h1.351v-10.985zM162.417 145.719h-1.351v10.985h1.351v-10.985z" fill="#F7944B"/><path d="M149.797 145.719h-1.351v10.985h1.351v-10.985zM138.529 145.719h-1.351v10.985h1.351v-10.985zM207.206 145.719h-1.351v10.985h1.351v-10.985zM210.05 145.719h-1.351v10.985h1.351v-10.985zM212.787 145.719h-1.35v10.985h1.35v-10.985zM214.849 145.755v10.878c-.177.035-.319.035-.497.035h-.818v-10.949h.818c.178 0 .355 0 .497.036zM216.697 146.75v8.852a2.812 2.812 0 01-1.35.888v-10.664c.568.213 1.031.533 1.35.924z" fill="#F7944B"/><path d="M225.833 137.365v6.185c0 .498-.178.96-.498 1.315a2.82 2.82 0 01-1.35.889 1.433 1.433 0 01-.534.107c-.177.035-.32.035-.497.035H105.505c-.462 0-.889-.106-1.28-.248-.853-.356-1.457-1.067-1.564-1.92v-.107-6.292-.106c.071-1.173 1.138-2.098 2.488-2.24H222.954c.177 0 .355 0 .497.036l.534.106c.533.178.995.498 1.35.889.32.427.498.889.498 1.351z" fill="#FFB783"/><path d="M168.14 145.968h-62.955c-.391 0-.782-.106-1.138-.248-.782-.356-1.315-1.067-1.386-1.92v-.107-6.292-.106c.071-1.173 1.031-2.098 2.24-2.24h55.489c.853 3.128 2.844 7.465 7.359 10.7.142.036.284.142.391.213zM211.543 134.984h-1.351v10.984h1.351v-10.984zM207.029 134.984h-1.351v10.984h1.351v-10.984zM201.625 134.984h-1.351v10.984h1.351v-10.984zM193.307 134.984h-1.35v10.984h1.35v-10.984zM184.527 134.984h-1.351v10.984h1.351v-10.984zM171.054 134.984h-1.35v10.984h1.35v-10.984z" fill="#F7944B"/><path d="M158.435 134.984h-1.351v10.984h1.351v-10.984zM147.167 134.983h-1.351v10.984h1.351v-10.984zM215.844 134.984h-1.35v10.984h1.35v-10.984zM218.688 134.984h-1.351v10.984h1.351v-10.984zM221.425 134.984h-1.351v10.984h1.351v-10.984zM223.487 135.02v10.877c-.178.036-.32.036-.498.036h-.817v-10.984h.817c.178.035.356.071.498.071zM225.335 136.051v8.851c-.32.391-.782.711-1.351.889v-10.629a2.824 2.824 0 011.351.889z" fill="#F7944B"/><path d="M229.494 126.417v6.185c0 .498-.178.96-.497 1.316-.32.391-.782.711-1.351.888a1.412 1.412 0 01-.533.107c-.072 0-.107 0-.178.036H109.166c-1.528 0-2.773-.996-2.844-2.275v-6.292-.107c.071-1.244 1.316-2.275 2.844-2.275H226.65c.178 0 .356 0 .498.036l.533.106c.534.178.996.498 1.351.889.285.462.462.889.462 1.386z" fill="#FFB783"/><path d="M171.801 135.02h-62.919c-1.351 0-2.453-.996-2.524-2.275v-6.292-.107c.071-1.244 1.173-2.275 2.524-2.275h55.205c.889 3.199 2.915 7.643 7.714 10.949 0-.036 0 0 0 0zM215.24 124.036h-1.35v10.984h1.35v-10.984zM210.726 124.036h-1.351v10.984h1.351v-10.984zM205.287 124.036h-1.351v10.984h1.351v-10.984zM196.969 124.036h-1.351v10.984h1.351v-10.984zM188.189 124.036h-1.351v10.984h1.351v-10.984zM174.716 124.036h-1.351v10.984h1.351v-10.984z" fill="#F7944B"/><path d="M162.097 124.036h-1.351v10.984h1.351v-10.984zM150.863 124.036h-1.35v10.984h1.35v-10.984zM219.541 124.036h-1.351v10.984h1.351v-10.984zM222.385 124.036h-1.351v10.984h1.351v-10.984zM225.122 124.036h-1.351v10.984h1.351v-10.984zM227.184 124.071v10.878c-.178.035-.32.035-.498.035h-.817v-10.948h.817c.142 0 .32.035.498.035zM229.032 125.102v8.851a2.82 2.82 0 01-1.35.889v-10.664c.568.213 1.031.533 1.35.924zM90.958 169.055a3.583 3.583 0 00-.443-.665 2.054 2.054 0 00-.444-.416l-.664-.623-.178.124c-3.324-1.538-10.15.083-17.064 4.324-8.377 5.114-13.74 12.182-12.188 15.923l-.222.167.93.873.134.124.044.042c.222.208.488.374.798.54 3.28 1.622 10.194 0 17.197-4.282 8.51-5.197 13.962-12.431 12.1-16.131z" fill="#F7944B"/><path d="M71.19 170.884c8.51-5.197 16.931-6.444 18.749-2.785 1.861 3.7-3.59 10.892-12.1 16.131-8.51 5.197-16.931 6.444-18.749 2.785-1.817-3.7 3.59-10.892 12.1-16.131z" fill="#FFB783"/><path d="M65.074 187.556a8.12 8.12 0 01-1.862-.208c-1.064-.291-1.817-.831-2.172-1.621-.753-1.58-.044-3.908 1.995-6.569 1.995-2.619 5.097-5.239 8.643-7.442 5.496-3.368 11.036-4.989 14.183-4.158 1.064.291 1.817.832 2.172 1.622.753 1.58.044 3.908-1.995 6.569-1.994 2.619-5.097 5.238-8.643 7.442-4.52 2.785-9.086 4.365-12.321 4.365zm18.925-19.623c-3.102 0-7.623 1.579-12.01 4.282-3.502 2.162-6.516 4.739-8.51 7.275-1.907 2.453-2.616 4.615-1.951 5.987.31.624.93 1.081 1.817 1.331a6.9 6.9 0 001.684.207c3.103 0 7.624-1.579 12.012-4.282 3.501-2.162 6.515-4.739 8.51-7.275 1.906-2.453 2.615-4.615 1.95-5.987-.31-.624-.93-1.081-1.817-1.331a6.898 6.898 0 00-1.685-.207zM163.475 80.749l.313-.336.191-.31.286-.466-.099-.07c.464-2.086-1.225-5.767-4.478-9.217-3.912-4.175-8.526-6.396-10.507-5.085l-.108-.114-.382.622-.064.103c-.095.155-.141.346-.187.536-.554 2.06 1.193 5.818 4.456 9.312 3.929 4.262 8.675 6.501 10.579 5.025z" fill="#F7944B"/><path d="M160.102 69.677c3.97 4.253 5.642 8.887 3.778 10.355-1.904 1.477-6.65-.763-10.62-5.016-3.97-4.254-5.642-8.888-3.778-10.356 1.904-1.476 6.65.764 10.62 5.017z" fill="#FFB783"/><path d="M149.9 68.149a4.767 4.767 0 01-.101-1.11c.039-.642.275-1.143.679-1.452.807-.618 2.231-.502 3.978.36 1.698.83 3.57 2.3 5.251 4.082 2.555 2.734 4.142 5.711 4.018 7.592-.038.641-.275 1.142-.679 1.451-.807.618-2.231.503-3.978-.36-1.698-.829-3.57-2.3-5.251-4.082-2.113-2.236-3.543-4.657-3.917-6.481zm13.417 8.515c-.365-1.78-1.787-4.158-3.851-6.36-1.631-1.746-3.453-3.182-5.151-4.01-1.607-.802-2.95-.934-3.653-.428-.331.249-.504.647-.519 1.192-.028.278.002.633.074.98.365 1.781 1.786 4.159 3.85 6.36 1.631 1.747 3.453 3.183 5.151 4.011 1.607.802 2.95.934 3.653.428.331-.25.504-.647.519-1.193a3.684 3.684 0 00-.073-.98zM185.326 95.644c.064-.178.128-.355.236-.539.07-.136.189-.237.265-.332l.417-.522.144.063c2.296-1.465 7.469-.994 13.003 1.358 6.688 2.9 11.384 7.515 10.642 10.436l.193.099-.607.759-.076.095c-.152.19-.309.339-.517.453-2.24 1.541-7.501 1.082-13.091-1.346-6.819-2.88-11.577-7.613-10.609-10.525z" fill="#F7944B"/><path d="M200.042 94.906c-6.826-2.921-13.142-2.934-14.11-.022-.968 2.912 3.79 7.644 10.621 10.607 6.826 2.922 13.142 2.934 14.11.022.962-2.953-3.796-7.685-10.621-10.607z" fill="#FFB783"/><path d="M196.786 104.617c-2.864-1.225-5.38-2.836-7.151-4.555-1.82-1.753-2.59-3.364-2.192-4.64.224-.62.691-1.108 1.451-1.428 2.236-.952 6.488-.348 10.88 1.539 2.864 1.225 5.38 2.836 7.151 4.555 1.82 1.754 2.59 3.365 2.192 4.64-.224.621-.691 1.108-1.451 1.428-.377.18-.854.291-1.336.361-2.369.341-5.913-.323-9.544-1.9zm-7.701-10.23c-.634.26-1.025.652-1.173 1.177-.34 1.058.418 2.586 2.083 4.194 1.72 1.684 4.231 3.254 7.001 4.451 3.487 1.513 6.987 2.184 9.268 1.855.439-.063.872-.168 1.205-.342.634-.259 1.025-.652 1.173-1.177.34-1.057-.418-2.586-2.083-4.194-1.72-1.684-4.231-3.254-7.001-4.45-3.487-1.514-6.987-2.185-9.268-1.856-.433.105-.866.209-1.205.342z" fill="#F7944B"/></svg>