<svg width="27" height="27" fill="none" xmlns="http://www.w3.org/2000/svg"><path d="M24.627 4.251H2.373A2.376 2.376 0 000 6.624v13.752a2.376 2.376 0 002.373 2.373h22.254A2.376 2.376 0 0027 20.376V6.624a2.376 2.376 0 00-2.373-2.373zm-.31 1.582L24 6.097l-9.559 7.96a1.471 1.471 0 01-1.883 0L3 6.096l-.316-.264h21.634zM1.582 6.975l7.788 6.486-7.788 5.183V6.975zm23.045 14.192H2.373a.792.792 0 01-.775-.633l9.04-6.017.908.755c.566.472 1.26.707 1.954.707s1.388-.235 1.954-.707l.907-.755 9.041 6.017a.792.792 0 01-.775.633zm.791-2.523l-7.788-5.183 7.788-6.486v11.669z" fill="#000"/></svg>