<svg width="310" height="310" fill="none" xmlns="http://www.w3.org/2000/svg"><circle cx="155" cy="155" r="155" fill="#fff"/><path d="M129.771 202.025c.404.403.807.605 1.614 1.009v.403c0 1.21.403 2.42 1.21 3.429-.403.807-.605 1.613-.605 2.42 0 2.42 1.412 4.437 3.429 5.446l.403 1.613c.202 7.866 8.673 14.119 18.959 14.119 10.287 0 18.758-6.253 18.96-14.119l.403-1.613c2.017-1.009 3.429-3.026 3.429-5.446 0-.807-.202-1.613-.605-2.42a5.483 5.483 0 001.21-3.429v-.403c.605-.404 1.21-.606 1.613-1.009 2.219-1.613 3.429-3.832 4.236-6.656h-58.491c.806 2.622 2.017 4.841 4.235 6.656z" fill="#036A8F"/><path d="M155.386 80c-2.42 0-4.84.202-7.261.403-17.345 1.816-31.867 9.682-39.935 21.178-7.059 10.085-8.875 22.388-5.648 35.7 2.219 8.673 6.656 16.337 10.892 23.8 4.236 7.261 8.673 14.925 10.69 23.195.201.403.201 1.815.403 3.025.202 2.421.404 5.244 1.21 8.068h30.658V80h-1.009zM198.146 97.144c-9.48-10.488-25.01-16.942-41.751-17.144v115.369h27.834c.807-2.824 1.21-5.849 1.613-9.076.202-1.412.404-3.227.605-4.034 2.219-8.27 6.455-15.329 10.489-21.985 5.244-8.673 10.689-17.749 11.899-29.649 1.009-12.706-2.622-24.405-10.689-33.481z" fill="#F7944B"/><path d="M177.006 147.15c0-3.979-1.218-7.227-3.654-9.745-2.436-2.517-6.415-4.709-11.937-6.74-2.761-.893-4.872-1.786-6.415-2.436-1.543-.73-2.598-1.38-3.248-1.949-.65-.568-.974-1.299-.974-2.192 0-.974.406-1.786 1.299-2.274.893-.487 2.355-.812 4.466-.812 4.304 0 9.095 1.137 14.373 3.492.244.081.487.162.65.325l4.709-11.369c-1.786-.812-3.654-1.461-5.44-2.03-3.248-.974-6.415-1.624-9.582-1.867v-5.441h-10.475v5.603c-5.035.65-8.851 2.111-11.45 4.466-2.842 2.436-4.223 5.928-4.223 10.313 0 2.842.488 5.278 1.381 7.227.974 1.949 2.436 3.654 4.547 5.197 2.112 1.543 4.791 2.923 8.202 4.223 3.004 1.055 5.359 2.03 7.146 2.761 1.786.73 3.004 1.461 3.816 2.111.731.649 1.137 1.38 1.137 2.192 0 1.3-.487 2.193-1.543 2.761-1.055.569-2.68.812-4.953.812-2.761 0-5.928-.487-9.501-1.543-3.654-1.055-6.983-2.355-10.069-3.897v13.236c5.034 2.192 10.231 3.41 15.591 3.816v7.552h10.475v-7.877c4.953-.73 8.77-2.436 11.45-5.034 2.842-2.842 4.222-6.415 4.222-10.881z" fill="#fff"/><path d="M152.965 250a165.122 165.122 0 01-4.183-.174l.105-1.395c1.359.105 2.754.14 4.148.175l-.07 1.394zm4.218 0l-.035-1.394c1.394-.035 2.754-.105 4.148-.175l.105 1.395c-1.429.104-2.824.139-4.218.174zm-12.584-.523c-1.394-.139-2.788-.348-4.183-.558l.21-1.394c1.359.209 2.753.384 4.113.558l-.14 1.394zm20.95-.035l-.14-1.394c1.36-.139 2.754-.349 4.114-.558l.209 1.395a57.123 57.123 0 01-4.183.557zm-29.281-1.255a169.216 169.216 0 01-4.113-.906l.349-1.359c1.324.313 2.684.627 4.043.906l-.279 1.359zm37.577-.034l-.279-1.36c1.359-.279 2.719-.592 4.044-.906l.348 1.359c-1.359.349-2.719.628-4.113.907zm-45.733-1.987a90.02 90.02 0 01-4.009-1.29l.453-1.325c1.29.454 2.615.872 3.939 1.255l-.383 1.36zm53.89-.035l-.384-1.325a72.796 72.796 0 003.939-1.255l.453 1.325c-1.29.453-2.649.871-4.008 1.255zm-61.838-2.684c-1.29-.523-2.614-1.046-3.869-1.639l.558-1.289a74.617 74.617 0 003.834 1.603l-.523 1.325zm69.785-.035l-.523-1.29c1.29-.488 2.545-1.046 3.8-1.603l.557 1.289c-1.22.523-2.544 1.081-3.834 1.604zm-77.488-3.416a76.982 76.982 0 01-3.73-1.987l.697-1.22c1.185.662 2.44 1.325 3.66 1.952l-.627 1.255zm85.157-.035l-.628-1.255c1.22-.627 2.44-1.255 3.66-1.952l.698 1.22a96.376 96.376 0 01-3.73 1.987zm-92.477-4.078a75.34 75.34 0 01-3.521-2.301l.802-1.15c1.15.767 2.3 1.534 3.485 2.266l-.766 1.185zm99.797 0l-.732-1.185c1.15-.732 2.335-1.464 3.486-2.266l.801 1.15c-1.185.802-2.37 1.569-3.555 2.301zm-106.769-4.741a121.67 121.67 0 01-3.311-2.579l.871-1.081a59.056 59.056 0 003.277 2.545l-.837 1.115zm113.706 0l-.837-1.115c1.081-.837 2.196-1.674 3.242-2.545l.871 1.081a83.509 83.509 0 01-3.276 2.579zm6.483-5.298l-.941-1.046a115.66 115.66 0 003.032-2.823l.976 1.01a120.92 120.92 0 01-3.067 2.859zm-126.672 0a118.819 118.819 0 01-3.068-2.859l.976-1.01a57.976 57.976 0 003.033 2.823l-.941 1.046zm132.702-5.891l-1.01-.941a75.894 75.894 0 002.753-3.103l1.046.907a80.74 80.74 0 01-2.789 3.137zm-138.733 0a81.655 81.655 0 01-2.788-3.137l1.045-.907c.907 1.046 1.813 2.092 2.754 3.068l-1.01.976zm-5.472-6.379c-.872-1.081-1.709-2.231-2.51-3.347l1.15-.801a116.47 116.47 0 002.475 3.311l-1.115.837zm149.678 0l-1.081-.872c.837-1.08 1.674-2.196 2.475-3.311l1.151.802c-.837 1.15-1.708 2.265-2.545 3.381zm-154.558-6.832c-.767-1.151-1.5-2.371-2.197-3.556l1.186-.697c.697 1.185 1.429 2.37 2.16 3.521l-1.15.732zm159.438 0l-1.185-.767c.732-1.15 1.464-2.336 2.196-3.521l1.185.697a75.752 75.752 0 01-2.196 3.591zM71.05 199.526a63.359 63.359 0 01-1.882-3.764l1.254-.593c.593 1.255 1.22 2.475 1.848 3.695l-1.22.662zm167.979-.035l-1.22-.662c.662-1.22 1.254-2.475 1.847-3.695l1.255.593c-.593 1.255-1.255 2.509-1.882 3.764zm-171.57-7.564a128.745 128.745 0 01-1.533-3.904l1.324-.488c.488 1.29.976 2.58 1.534 3.835l-1.325.557zm175.16-.069l-1.29-.558c.523-1.255 1.046-2.58 1.534-3.869l1.324.488a66.177 66.177 0 01-1.568 3.939zm-178.088-7.774c-.418-1.324-.836-2.684-1.185-4.043l1.36-.384c.348 1.325.767 2.65 1.185 3.974l-1.36.453zm181.016-.104l-1.325-.419c.419-1.289.802-2.649 1.186-3.973l1.359.348c-.383 1.36-.802 2.719-1.22 4.044zm-183.212-8.018a85.615 85.615 0 01-.836-4.113l1.36-.244c.243 1.36.522 2.719.801 4.044l-1.324.313zm185.408-.104l-1.359-.314c.313-1.324.557-2.719.801-4.043l1.36.244a56.92 56.92 0 01-.802 4.113zm-186.906-8.157c-.175-1.394-.349-2.788-.454-4.183l1.395-.139c.104 1.359.279 2.754.453 4.113l-1.394.209zm188.37-.104l-1.394-.175c.174-1.359.348-2.753.453-4.113l1.394.105c-.104 1.394-.279 2.788-.453 4.183zm-189.102-8.262a84.087 84.087 0 01-.105-4.217h1.394c0 1.394.035 2.788.105 4.148l-1.394.069zm189.834-.104l-1.394-.07c.069-1.359.104-2.754.104-4.148v-.209h1.395v.209c0 1.394-.035 2.824-.105 4.218zm-188.44-8.261l-1.394-.07c.07-1.394.139-2.824.278-4.183l1.395.105a56.452 56.452 0 00-.28 4.148zm187.046-.314c-.07-1.36-.175-2.754-.279-4.148l1.394-.14c.14 1.395.209 2.789.279 4.183l-1.394.105zm-186.349-7.913l-1.394-.174c.174-1.394.383-2.789.627-4.148l1.36.244c-.21 1.324-.419 2.684-.593 4.078zm185.617-.314a77.357 77.357 0 00-.628-4.078l1.36-.244c.244 1.36.453 2.754.662 4.148l-1.394.174zm-184.188-7.842l-1.36-.314c.315-1.36.628-2.719 1.012-4.079l1.36.349c-.384 1.325-.698 2.684-1.012 4.044zm182.724-.314c-.314-1.36-.628-2.684-1.011-4.009l1.359-.383c.384 1.359.697 2.719 1.011 4.078l-1.359.314zm-180.563-7.704l-1.324-.418a76.108 76.108 0 011.36-3.974l1.324.488a86.985 86.985 0 00-1.36 3.904zm178.367-.279a74.636 74.636 0 00-1.36-3.904l1.325-.488c.488 1.29.941 2.65 1.394 3.974l-1.359.418zm-175.474-7.494l-1.29-.523a127.58 127.58 0 011.709-3.834l1.255.592a61.437 61.437 0 00-1.673 3.765zm172.58-.244a72.028 72.028 0 00-1.708-3.765l1.255-.592a75.122 75.122 0 011.708 3.834l-1.255.523zM72.2 111.302l-1.22-.663c.662-1.22 1.36-2.475 2.057-3.66l1.185.697a121.915 121.915 0 00-2.022 3.626zm165.504-.209c-.662-1.221-1.325-2.441-2.022-3.591l1.185-.697c.698 1.185 1.395 2.44 2.057 3.66l-1.22.628zm-161.286-6.937l-1.185-.767c.767-1.185 1.568-2.335 2.37-3.486l1.15.802c-.801 1.15-1.603 2.301-2.335 3.451zm157.103-.209a117.962 117.962 0 00-2.335-3.416l1.15-.802a120.2 120.2 0 012.37 3.451l-1.185.767zM81.228 97.394l-1.115-.872a82.236 82.236 0 012.649-3.242l1.046.907c-.837 1.045-1.743 2.126-2.58 3.207zm147.448-.175c-.837-1.08-1.743-2.161-2.614-3.207l1.045-.906a75.884 75.884 0 012.649 3.242l-1.08.871zm-142.08-6.135l-1.01-.94c.94-1.012 1.951-2.023 2.927-2.999l.977 1.011c-.977.941-1.953 1.952-2.894 2.928zm136.712-.14a115.827 115.827 0 00-2.893-2.962l.976-1.01a78.618 78.618 0 012.928 2.997l-1.011.976zM92.522 85.299l-.941-1.046a109.785 109.785 0 013.172-2.719l.871 1.08c-1.01.872-2.091 1.779-3.102 2.685zm124.86-.14a115.5 115.5 0 00-3.137-2.684l.871-1.08c1.081.871 2.161 1.812 3.207 2.719l-.941 1.046zM98.936 80.07l-.837-1.115a76.523 76.523 0 013.416-2.44l.802 1.15c-1.15.767-2.3 1.569-3.381 2.405zm112.032-.14a74.381 74.381 0 00-3.381-2.404l.767-1.15a76.74 76.74 0 013.416 2.44l-.802 1.115zm-105.2-4.53l-.732-1.186a75.658 75.658 0 013.625-2.126l.697 1.22a50.9 50.9 0 00-3.59 2.091zm98.333-.14a73.85 73.85 0 00-3.59-2.091l.662-1.22c1.22.662 2.44 1.394 3.625 2.126l-.697 1.185zm-91.152-3.904l-.628-1.255c1.255-.627 2.51-1.22 3.8-1.813l.557 1.255c-1.22.593-2.474 1.185-3.729 1.813zm83.902-.105a74.126 74.126 0 00-3.765-1.778l.558-1.29c1.29.558 2.545 1.186 3.799 1.813l-.592 1.255zm-76.338-3.276l-.523-1.29a76.033 76.033 0 013.939-1.464l.453 1.325c-1.29.418-2.614.906-3.869 1.429zm68.774-.105a129.86 129.86 0 00-3.904-1.43l.453-1.324c1.324.454 2.649.942 3.939 1.464l-.488 1.29zm-60.966-2.614l-.384-1.325c1.325-.383 2.684-.767 4.044-1.115l.348 1.36c-1.359.313-2.684.696-4.008 1.08zm53.123-.07c-1.325-.383-2.649-.767-4.009-1.08l.349-1.36c1.359.349 2.719.697 4.043 1.08l-.383 1.36zm-45.071-1.917l-.279-1.36a79.343 79.343 0 014.148-.732l.209 1.395a52.443 52.443 0 00-4.078.697zm37.019-.07a83.338 83.338 0 00-4.079-.732l.21-1.394c1.394.209 2.788.453 4.148.732l-.279 1.394zm-28.862-1.22l-.14-1.394c1.395-.14 2.789-.279 4.183-.384l.105 1.395c-1.395.104-2.789.209-4.148.383zm20.67-.035c-1.359-.14-2.754-.279-4.113-.348l.105-1.395c1.394.105 2.788.21 4.182.349l-.174 1.394zm-12.409-.523l-.035-1.394a85.221 85.221 0 014.218 0l-.035 1.394a82.414 82.414 0 00-4.148 0z" fill="#36C795"/></svg>