<svg width="29" height="29" fill="none" xmlns="http://www.w3.org/2000/svg"><path d="M14.5 0C6.496 0 0 6.486 0 14.492 0 22.506 6.495 29 14.5 29 22.51 29 29 22.506 29 14.492 29 6.486 22.51 0 14.5 0zm1.034 22.56c-.337.3-.727.45-1.17.45-.457 0-.856-.147-1.196-.443-.342-.296-.512-.71-.512-1.243 0-.472.165-.87.495-1.191a1.67 1.67 0 011.214-.483c.472 0 .87.16 1.192.483.322.322.484.719.484 1.191-.001.525-.17.937-.507 1.237zm4.2-10.41c-.26.48-.567.894-.923 1.242-.356.35-.995.936-1.917 1.76-.255.232-.46.436-.613.612a2.493 2.493 0 00-.343.484 2.324 2.324 0 00-.174.439c-.04.145-.102.402-.186.77-.142.78-.588 1.169-1.337 1.169a1.37 1.37 0 01-.984-.382c-.266-.255-.399-.633-.399-1.135 0-.63.098-1.175.293-1.636.193-.462.453-.866.775-1.215.322-.349.757-.762 1.304-1.242.48-.42.827-.737 1.04-.95.214-.214.394-.452.54-.714.146-.263.219-.547.219-.854 0-.6-.223-1.106-.67-1.518-.445-.412-1.02-.618-1.725-.618-.825 0-1.432.208-1.822.624-.39.416-.719 1.028-.989 1.838-.255.847-.739 1.27-1.45 1.27-.42 0-.774-.148-1.063-.443-.288-.296-.432-.617-.432-.962 0-.711.228-1.433.685-2.164.458-.73 1.125-1.336 2.002-1.815.877-.48 1.9-.72 3.069-.72 1.087 0 2.046.2 2.878.602.831.4 1.474.946 1.928 1.635.453.69.68 1.44.68 2.249.001.636-.128 1.194-.387 1.674z" fill="#36C795"/></svg>