<svg width="28" height="28" fill="none" xmlns="http://www.w3.org/2000/svg"><g clip-path="url(#clip0)" fill="#000"><path d="M27.28 21.76l-4.639-4.64a2.459 2.459 0 00-3.479 0l-1.16 1.16c-.96.96-2.52.96-3.483-.004L9.66 13.483c-.959-.96-.959-2.52 0-3.48l1.16-1.159c.96-.96.96-2.52 0-3.48L6.182.726c-.96-.959-2.52-.959-3.48 0l-1.16 1.16C.038 3.391-.404 6.71.388 10.547c.506 2.446 1.959 7.154 6.017 11.212 4.05 4.05 8.72 5.44 11.144 5.908 2.664.515 6.668.637 8.573-1.268l1.16-1.16c.959-.96.959-2.52 0-3.48zM3.863 1.885c.32-.32.84-.32 1.16 0l4.64 4.64c.32.32.32.84 0 1.16l-.577.576-5.8-5.799.577-.577zM17.86 26.057c-2.24-.432-6.554-1.716-10.295-5.457-3.756-3.756-5.102-8.119-5.57-10.385-.62-3.001-.362-5.258.24-6.485L7.982 9.48a4.11 4.11 0 00.524 5.168l4.857 4.793a4.107 4.107 0 005.164.52l5.753 5.752c-1.753.89-4.48.72-6.42.345zm8.262-1.978l-.577.577-5.8-5.799.578-.577a.82.82 0 011.16 0l4.639 4.64c.32.32.32.84 0 1.16zM15.697.006a.82.82 0 000 1.64c5.879 0 10.661 4.783 10.661 10.661a.82.82 0 101.64 0C27.999 5.524 22.48.006 15.698.006z"/><path d="M15.697 3.286a.82.82 0 000 1.64c4.07 0 7.381 3.311 7.381 7.381a.82.82 0 001.64 0c0-4.974-4.047-9.02-9.021-9.02z"/><path d="M15.697 6.567a.82.82 0 000 1.64c2.261 0 4.1 1.84 4.1 4.101a.82.82 0 101.64 0 5.747 5.747 0 00-5.74-5.74z"/><path d="M15.697 9.848a.82.82 0 000 1.64c.452 0 .82.368.82.82a.82.82 0 101.64 0 2.463 2.463 0 00-2.46-2.46z"/></g><defs><clipPath id="clip0"><path fill="#fff" d="M0 0h28v28H0z"/></clipPath></defs></svg>