<svg width="1440" height="1800" fill="none" xmlns="http://www.w3.org/2000/svg"><g clip-path="url(#clip0)"><path d="M-3 723C-3 323.698 320.698 0 720 0c399.3 0 723 323.698 723 723v827c0 138.07-111.93 250-250 250H247c-138.071 0-250-111.93-250-250V723z" fill="#fff"/><circle cx="65.5" cy="1103.5" r="196.5" fill="#036A8F"/><path d="M262 995.001l-119.627 39.709 24.039 20.07-103.507 108.68-90.751-78.14L-390 1382.95l3.177.05h90.23L-28.7 1162.89l95.636 82.38 145.089-152.39 25.888 21.69L262 995.001z" fill="#36C795"/><path d="M141 1050l-42.383 14.02 8.517 7.09-36.672 38.37-32.153-27.59L-90 1186.98l1.126.02h31.968l94.913-77.72 33.883 29.09 51.404-53.81 9.172 7.66L141 1050z" fill="#F7944B"/><path d="M161.334 973.507l-69.135 21.204 13.527 11.819-60.788 60.95-51.036-45.98-211.609 165.89 1.821.07 51.756 1.17 156.531-122.68 53.782 48.47 85.209-85.46 14.567 12.77 15.375-68.223z" fill="#FFD2B3"/><circle cx="1359.08" cy="1280" r="110" fill="#036A8F"/><path d="M1410.42 1301.64c-.23.17-21.39-3.26-21.39-3.26l-19.63-19.27 24.67 4.75 16.35 17.78z" fill="#36C795"/><path d="M1381.55 1282.04l-12.3-2.36 19.69 19.39s6.1 1.02 11.88 1.92l-19.27-18.95z" fill="#36C795"/><path d="M1401.4 1293.36c-3.89-4.14-13.02-14.64-14.28-20.44 6.74 2.29 17.45 11.66 21.77 15.56 1.44 1.3 2.81 2.85 3.89 4.13l9.01 11.56c.43 1.71-1.77 3.13-3.94 2.5l-12.1-9.54c-1.54-.93-2.98-2.23-4.35-3.77z" fill="url(#paint0_linear)"/><path d="M1415.84 1302.65c.52-.52 1.2-.96 1.72-1.47l2.18 3c.44 1.82-1.85 3.33-4.11 2.65l-3.06-2.51c1.22-.35 2.35-1.04 3.27-1.67z" fill="url(#paint1_linear)"/><path d="M1372.27 1335.05c.25-.19.24-19.14.24-19.14l-21.22-21.59 1.03 22.21 19.95 18.52z" fill="#36C795"/><path d="M1352.32 1305.13l-.4-10.86 20.77 21.04s.04 5.36-.03 10.38l-20.34-20.56z" fill="#36C795"/><path d="M1363.81 1327.52c-4.16-3.84-15.05-13.29-21.81-15.6 1.31 5.67 10.63 16.25 14.33 20.44 1.41 1.43 2.81 2.85 4.32 3.9l12.13 9.56c2 .57 4.2-.84 3.94-2.48l-9.05-11.56a29.275 29.275 0 00-3.86-4.26z" fill="url(#paint2_linear)"/><path d="M1369.85 1342.24c-.65.31-1.34.74-2.15.98l3.07 2.51c2.09.62 4.39-.89 4.11-2.63l-2.36-3.08c-.62.9-1.75 1.59-2.67 2.22z" fill="url(#paint3_linear)"/><path d="M1385.51 1323.28l8.4 13.46 16.15-11.64-14.47-9.11-10.08 7.29z" fill="url(#paint4_linear)"/><path opacity=".42" d="M1398.71 1311.55l-16.16 14.48 4.64 5.47 16.15-14.49-4.63-5.46z" fill="#D5D5D5"/><path d="M1376.61 1321.43l7.22 4.51c1.3.86 2.61.99 3.38.28l12.91-9.39c.73-.58.85-1.72.04-2.97l-4.37-6.54-19.18 14.11z" fill="url(#paint5_linear)"/><path opacity=".42" d="M1394.49 1297.98l-24.48 21.89 7.66 9 24.48-21.89-7.66-9z" fill="#D5D5D5"/><path d="M1274.51 1200.41s20.08 69.94 110.24 122.13l9.18-6.44 9.19-6.44c-47.9-81.62-128.61-109.25-128.61-109.25z" fill="url(#paint6_linear)"/><path d="M1342.92 1240.83c7.89 8.08 8.4 18.79.92 23.75-7.32 5.03-19.74 2.58-27.6-5.62-7.89-8.08-8.4-18.79-.92-23.75 7.32-5.03 19.54-2.52 27.6 5.62z" fill="#36C795"/><path opacity=".2" d="M1311.07 1243.9c.5-3 2.19-5.79 4.89-7.75 7.07-4.75 19.07-2.45 26.65 5.28 4.3 4.28 6.22 9.4 6.03 13.78l-37.57-11.31z" fill="#fff"/><path d="M1345.03 1265.85c-7.76 5.23-21.13 2.36-29.7-6.44-8.6-8.67-9.22-20-1.29-25.16 7.76-5.23 21.13-2.37 29.7 6.43 8.44 8.6 9.05 19.94 1.29 25.17zm-29.11-29.63c-6.81 4.48-6.38 14.43 1.21 22.08 7.41 7.57 19.17 10.18 26.02 5.57 6.81-4.48 6.38-14.42-1.21-22.07-7.58-7.65-19.17-10.18-26.02-5.58z" fill="url(#paint7_linear)"/><path d="M1399.62 1325.95c-.91.68-2.28-.01-2.99-.58l-42.61-38.81c-1.77-1.74-3.14-4.79-1.29-6.28 1.9-1.62 5.4.2 7.17 1.94l39.14 40.99c.82.77 1.33 2 .58 2.74z" fill="url(#paint8_linear)"/><path d="M1321.22 1326.06c-.13-.25-.27-.46-.44-.67-.14-.17-.27-.29-.45-.42l-.66-.62-.18.13c-3.32-1.54-10.15.08-17.06 4.32-8.38 5.11-13.74 12.18-12.19 15.92l-.22.17.93.87c.04.04.09.08.13.13l.04.04c.23.21.49.37.8.54 3.28 1.62 10.2 0 17.2-4.28 8.51-5.2 13.96-12.43 12.1-16.13z" fill="#F7944B"/><path d="M1301.45 1327.88c8.51-5.19 16.93-6.44 18.75-2.78 1.86 3.7-3.59 10.89-12.1 16.13-8.51 5.2-16.93 6.44-18.75 2.79-1.82-3.7 3.59-10.9 12.1-16.14z" fill="#FFB783"/><path d="M1295.34 1344.56c-.71 0-1.33-.09-1.87-.21-1.06-.29-1.81-.83-2.17-1.62-.75-1.58-.04-3.91 2-6.57 1.99-2.62 5.09-5.24 8.64-7.44 5.49-3.37 11.04-4.99 14.18-4.16 1.07.29 1.82.83 2.17 1.62.76 1.58.05 3.91-1.99 6.57-2 2.62-5.1 5.24-8.64 7.44-4.52 2.79-9.09 4.37-12.32 4.37zm18.92-19.63c-3.1 0-7.62 1.58-12.01 4.28-3.5 2.17-6.52 4.74-8.51 7.28-1.91 2.45-2.62 4.62-1.95 5.99.31.62.93 1.08 1.82 1.33.48.12 1.06.21 1.68.21 3.1 0 7.62-1.58 12.01-4.29 3.5-2.16 6.52-4.74 8.51-7.27 1.91-2.46 2.62-4.62 1.95-5.99-.31-.62-.93-1.08-1.82-1.33-.48-.12-1.06-.21-1.68-.21zM1258.78 1268.76c-.09-.12-.18-.25-.27-.37-.09-.09-.18-.17-.26-.25l-.4-.38-.09.09c-1.95-.88-5.9.04-9.93 2.53-4.88 3-7.98 7.07-7.09 9.27l-.13.09.53.5c.04.04.04.04.09.08.13.12.31.21.48.29 1.91.96 5.94 0 10.02-2.49 4.96-3 8.11-7.2 7.05-9.36z" fill="#F7944B"/><path d="M1247.25 1269.84c4.97-3.03 9.84-3.74 10.91-1.62 1.06 2.16-2.09 6.36-7.05 9.4-4.96 3.03-9.84 3.74-10.9 1.62-1.07-2.16 2.08-6.36 7.04-9.4z" fill="#FFB783"/><path d="M1243.71 1279.53c-.4 0-.76-.04-1.11-.13-.62-.16-1.06-.49-1.29-.95-.44-.92-.04-2.29 1.16-3.83 1.15-1.49 2.97-3.03 5.05-4.32 3.19-1.95 6.43-2.91 8.24-2.41.62.16 1.07.5 1.29.95.44.92.04 2.29-1.15 3.83-1.16 1.5-2.97 3.03-5.06 4.32-2.61 1.62-5.27 2.54-7.13 2.54zm11.03-11.43c-1.81 0-4.43.91-7 2.49-2.04 1.25-3.81 2.74-4.96 4.24-1.11 1.41-1.51 2.7-1.16 3.49.18.38.54.63 1.07.75.26.08.62.13.97.13 1.82 0 4.44-.92 7.01-2.5 2.04-1.25 3.81-2.74 4.96-4.24 1.11-1.41 1.51-2.7 1.15-3.49-.17-.38-.53-.62-1.06-.75-.31-.08-.62-.12-.98-.12zM1396.27 1239.25c.09-.17.18-.33.31-.5.09-.13.22-.21.31-.29l.49-.46.13.08c2.48-1.12 7.53.09 12.68 3.21 6.2 3.82 10.19 9.06 9.04 11.84l.17.13-.7.66-.09.09c-.18.16-.36.29-.58.37-2.44 1.21-7.58 0-12.76-3.2-6.34-3.82-10.38-9.19-9-11.93z" fill="#F7944B"/><path d="M1410.94 1240.62c-6.34-3.87-12.59-4.78-13.96-2.04-1.38 2.75 2.66 8.11 8.99 12.02 6.34 3.86 12.59 4.78 13.97 2.04 1.37-2.79-2.66-8.15-9-12.02z" fill="#FFB783"/><path d="M1406.33 1249.77c-2.66-1.62-4.92-3.58-6.43-5.53-1.55-2-2.08-3.7-1.5-4.91.31-.58.84-1 1.64-1.2 2.35-.63 6.47.58 10.54 3.07 2.66 1.62 4.92 3.58 6.43 5.53 1.55 2 2.08 3.7 1.51 4.91-.31.58-.84 1-1.64 1.2-.4.13-.89.17-1.38.17-2.39 0-5.8-1.16-9.17-3.24zm-6.16-11.23c-.67.17-1.11.5-1.33 1-.49 1 .04 2.62 1.46 4.45 1.46 1.91 3.73 3.82 6.3 5.4 3.23 2 6.6 3.16 8.9 3.16.45 0 .89-.04 1.25-.16.66-.17 1.1-.5 1.33-1 .48-1-.05-2.62-1.47-4.45-1.46-1.91-3.72-3.83-6.29-5.41-3.24-1.99-6.61-3.15-8.91-3.15-.44.04-.89.08-1.24.16z" fill="#F7944B"/></g><circle cx="1278" cy="404" r="147" fill="#036A8F"/><path d="M1358.82 548.273v6.185c0 .498-.17.96-.49 1.316-.32.391-.79.711-1.36.888-.17.071-.35.107-.53.107-.18.035-.32.035-.5.035H1238.5c-1.53 0-2.78-.995-2.85-2.275v-6.292-.106c.07-1.244 1.32-2.275 2.85-2.275h117.48c.18 0 .36 0 .5.035.17.036.35.071.53.107.53.178 1 .498 1.35.889.29.426.46.888.46 1.386z" fill="#FFB783"/><path d="M1301.13 556.84h-62.92c-1.35 0-2.45-.995-2.52-2.275v-6.292-.107c.07-1.244 1.17-2.275 2.52-2.275h55.21c.89 3.235 2.95 7.679 7.71 10.949zM1344.57 545.891h-1.35v10.985h1.35v-10.985zM1340.05 545.891h-1.35v10.985h1.35v-10.985zM1334.62 545.891h-1.35v10.985h1.35v-10.985zM1326.3 545.891h-1.35v10.985h1.35v-10.985zM1317.52 545.891h-1.35v10.985h1.35v-10.985zM1304.05 545.891h-1.36v10.985h1.36v-10.985z" fill="#F7944B"/><path d="M1291.43 545.891h-1.35v10.985h1.35v-10.985zM1280.19 545.891h-1.35v10.985h1.35v-10.985zM1348.87 545.891h-1.35v10.985h1.35v-10.985zM1351.71 545.891h-1.35v10.985h1.35v-10.985zM1354.45 545.891h-1.35v10.985h1.35v-10.985zM1356.51 545.927v10.877c-.17.036-.32.036-.49.036h-.82v-10.949h.82c.14 0 .32 0 .49.036zM1358.36 546.922v8.852c-.32.391-.78.711-1.35.888v-10.664c.57.213 1.03.533 1.35.924z" fill="#F7944B"/><path d="M1346.28 537.289v6.185c0 .498-.18.96-.5 1.315-.32.391-.78.711-1.35.889-.18.071-.36.107-.54.107-.17.035-.32.035-.49.035h-117.45c-1.53 0-2.78-.995-2.85-2.275v-6.292-.106c.07-1.244 1.32-2.275 2.85-2.275H1343.93l.53.106c.04 0 .04 0 .07.036.04 0 .04 0 .07.035.04.036.11.036.15.072.03 0 .07.035.07.035.03 0 .03.036.07.036.03.035.11.035.14.071.04.035.11.071.14.106.04.036.07.036.11.071.04 0 .04.036.07.072.07.071.14.106.21.177l.08.071c.03.036.03.036.07.071.03.036.07.072.1.107.29.427.47.889.47 1.351z" fill="#FFB783"/><path d="M1288.58 545.891h-62.95c-1.35 0-2.46-.995-2.53-2.275v-6.292-.106c.07-1.244 1.18-2.275 2.53-2.275h55.2c.04.106.04.178.07.284.96 3.164 3.03 7.465 7.68 10.664zM1331.99 534.907h-1.35v10.984h1.35v-10.984zM1327.47 534.907h-1.35v10.984h1.35v-10.984zM1322.07 534.907h-1.35v10.984h1.35v-10.984zM1313.75 534.907h-1.35v10.984h1.35v-10.984zM1304.97 534.907h-1.35v10.984h1.35v-10.984zM1291.5 534.907h-1.35v10.984h1.35v-10.984z" fill="#F7944B"/><path d="M1278.88 534.907h-1.35v10.984h1.35v-10.984zM1267.61 534.906h-1.35v10.985h1.35v-10.985zM1336.29 534.907h-1.35v10.984h1.35v-10.984zM1339.13 534.907h-1.35v10.984h1.35v-10.984zM1341.9 534.907h-1.35v10.984h1.35v-10.984zM1343.93 534.943v10.877c-.18.036-.32.036-.5.036h-.82v-10.984h.82c.18.035.36.071.5.071zM1345.78 535.974v8.851c-.32.391-.78.711-1.35.889v-10.665c.57.214 1.03.534 1.35.925z" fill="#F7944B"/><path d="M1352.35 526.589v6.185c0 .498-.17.96-.49 1.316-.32.391-.79.711-1.35.888-.18.071-.36.107-.54.107-.18.035-.32.035-.5.035h-117.44c-.47 0-.93-.106-1.32-.284-.82-.355-1.42-1.066-1.53-1.884v-.107V526.554v-.107c.07-1.244 1.32-2.275 2.85-2.275h117.48c.18 0 .36 0 .5.035.18.036.35.072.53.107.53.178 1 .498 1.35.889.29.462.46.924.46 1.386z" fill="#FFB783"/><path d="M1294.66 535.192h-62.95c-.43 0-.82-.107-1.18-.285-.74-.355-1.28-1.066-1.35-1.884v-.106-6.292-.107c.07-1.244 1.17-2.275 2.53-2.275h55.2c.85 3.128 2.81 7.465 7.36 10.7.14.071.25.142.39.249zM1338.06 524.207h-1.35v10.985h1.35v-10.985zM1333.55 524.207h-1.35v10.985h1.35v-10.985zM1328.11 524.207h-1.35v10.985h1.35v-10.985zM1319.83 524.207h-1.35v10.985h1.35v-10.985zM1311.05 524.207h-1.35v10.985h1.35v-10.985zM1297.57 524.207h-1.35v10.985h1.35v-10.985z" fill="#F7944B"/><path d="M1284.96 524.207h-1.36v10.985h1.36v-10.985zM1273.69 524.207h-1.35v10.985h1.35v-10.985zM1342.36 524.207h-1.35v10.985h1.35v-10.985zM1345.21 524.207h-1.35v10.985h1.35v-10.985zM1347.95 524.207h-1.36v10.985h1.36v-10.985zM1350.01 524.243v10.877c-.18.036-.32.036-.5.036h-.82v-10.949h.82c.18 0 .32.036.5.036zM1351.86 525.274v8.851c-.32.391-.79.711-1.36.889V524.35c.57.213 1.04.533 1.36.924z" fill="#F7944B"/><path d="M1355.16 515.64v6.185c0 .498-.18.96-.5 1.315-.32.391-.78.711-1.35.889-.17.071-.35.106-.53.106-.18.036-.32.036-.5.036h-117.45c-1.52 0-2.77-.995-2.84-2.275v-6.292-.107c.07-1.173 1.14-2.097 2.49-2.239h117.8c.18 0 .36 0 .5.036l.53.106c.54.178 1 .498 1.35.889.32.391.5.853.5 1.351z" fill="#FFB783"/><path d="M1297.47 524.207h-62.96c-1.35 0-2.45-.995-2.52-2.275V515.641v-.107c.07-1.173 1.03-2.097 2.24-2.24h55.49c.92 3.2 2.95 7.643 7.75 10.913zM1340.87 513.259h-1.35v10.984h1.35v-10.984zM1336.36 513.259h-1.35v10.984h1.35v-10.984zM1330.95 513.259h-1.35v10.984h1.35v-10.984zM1322.64 513.259h-1.35v10.984h1.35v-10.984zM1313.86 513.259h-1.35v10.984h1.35v-10.984zM1300.38 513.259h-1.35v10.984h1.35v-10.984z" fill="#F7944B"/><path d="M1287.76 513.259h-1.35v10.984h1.35v-10.984zM1276.5 513.258h-1.35v10.984h1.35v-10.984zM1345.17 513.259h-1.35v10.984h1.35v-10.984zM1348.02 513.259h-1.35v10.984h1.35v-10.984zM1350.75 513.259h-1.35v10.984h1.35v-10.984zM1352.82 513.294v10.878c-.18.035-.32.035-.5.035h-.82v-10.984h.82c.18.036.35.036.5.071zM1354.66 514.29v8.851c-.32.391-.78.711-1.35.889v-10.665c.57.214 1.03.534 1.35.925z" fill="#F7944B"/><path d="M1346.52 504.692v6.185c0 .498-.17.96-.49 1.315-.32.391-.79.711-1.35.889-.18.071-.36.107-.54.107-.07 0-.1 0-.17.035H1226.2c-1.53 0-2.78-.995-2.85-2.275v-6.292-.106-.107c.11-.995 1-1.848 2.14-2.097h.07c.21-.036.39-.071.6-.071H1344c.04 0 .07 0 .14.035l.54.107c.53.178.99.497 1.35.889.32.426.49.888.49 1.386z" fill="#FFB783"/><path d="M1288.83 513.258h-62.95c-1.35 0-2.46-.995-2.53-2.275v-6.292-.107-.106c.11-1.031.93-1.884 1.96-2.098.03 0 .07 0 .1-.035.15-.036.29-.036.47-.036h55.2c0 .036 0 .036.04.071.89 3.2 2.95 7.608 7.71 10.878zM1332.23 502.31h-1.35v10.984h1.35V502.31zM1327.72 502.31h-1.35v10.984h1.35V502.31zM1322.32 502.31h-1.35v10.984h1.35V502.31zM1314 502.31h-1.35v10.984h1.35V502.31zM1305.22 502.31h-1.35v10.984h1.35V502.31zM1291.75 502.31h-1.35v10.984h1.35V502.31z" fill="#F7944B"/><path d="M1279.13 502.31h-1.35v10.984h1.35V502.31zM1267.86 502.309h-1.35v10.985h1.35v-10.985zM1336.54 502.31h-1.36v10.984h1.36V502.31zM1339.38 502.31h-1.35v10.984h1.35V502.31zM1342.12 502.31h-1.35v10.984h1.35V502.31zM1344.18 502.346v10.877c-.18.036-.32.036-.5.036h-.82v-10.984h.82c.18.035.36.035.5.071zM1346.03 503.341v8.851c-.32.392-.79.711-1.35.889v-10.628c.56.177 1.03.497 1.35.888z" fill="#F7944B"/><path d="M1346.28 493.779v6.185c0 .498-.18.96-.5 1.315-.32.391-.78.711-1.35.889a4.09 4.09 0 00-.39.107c-.04 0-.08 0-.11.035-.18.036-.32.036-.5.036h-117.48c-.11 0-.25 0-.36-.036-.03 0-.1 0-.14-.035-1.28-.178-2.28-1.102-2.35-2.24v-6.292-.106c.07-1.245 1.32-2.275 2.85-2.275H1343.93l.53.106c.04 0 .04 0 .07.036.04 0 .04 0 .07.035.04.036.11.036.15.071.03.036.1.036.14.072.03.035.11.035.14.071.04.035.11.071.14.106.04.036.07.036.11.071.04 0 .04.036.07.071.07.072.14.107.21.178l.08.071c.03.036.03.036.07.071.03.036.07.071.1.107.29.427.47.889.47 1.351z" fill="#FFB783"/><path d="M1288.58 502.381h-63.27c-1.21-.142-2.17-1.102-2.24-2.239v-6.292-.107c.07-1.244 1.17-2.275 2.52-2.275h55.21c.03.107.03.178.07.285.92 3.163 2.95 7.429 7.53 10.628.11-.071.15-.035.18 0zM1331.99 491.397h-1.36v10.984h1.36v-10.984zM1327.47 491.397h-1.35v10.984h1.35v-10.984zM1322.07 491.397h-1.35v10.984h1.35v-10.984zM1313.75 491.397h-1.35v10.984h1.35v-10.984zM1304.97 491.397h-1.35v10.984h1.35v-10.984zM1291.5 491.397h-1.35v10.984h1.35v-10.984z" fill="#F7944B"/><path d="M1278.88 491.397h-1.35v10.984h1.35v-10.984zM1267.61 491.396h-1.35v10.984h1.35v-10.984zM1336.29 491.397h-1.35v10.984h1.35v-10.984zM1339.13 491.397h-1.35v10.984h1.35v-10.984zM1341.9 491.397h-1.35v10.984h1.35v-10.984zM1343.93 491.433v10.877c-.18.036-.32.036-.5.036h-.82v-10.984h.82c.18.035.36.071.5.071zM1345.78 492.464v8.851c-.32.391-.78.711-1.35.889v-10.665c.57.214 1.03.534 1.35.925z" fill="#F7944B"/><path d="M1352.35 483.114v6.185c0 .498-.17.96-.49 1.315-.32.391-.79.711-1.35.889-.18.071-.36.107-.54.107-.18.035-.32.035-.5.035h-117.44c-.47 0-.93-.107-1.32-.284-.82-.356-1.42-1.067-1.53-1.884v-.107-6.292-.107c.07-1.244 1.32-2.275 2.85-2.275h117.48c.18 0 .36 0 .5.036.18.035.35.071.53.107.53.177 1 .497 1.35.888.29.427.46.889.46 1.387z" fill="#FFB783"/><path d="M1294.66 491.682h-62.95c-.43 0-.82-.107-1.18-.285-.74-.355-1.28-1.066-1.35-1.884v-.107V483.115v-.107c.07-1.244 1.17-2.275 2.53-2.275h55.2c.85 3.128 2.81 7.465 7.36 10.7.14.071.25.142.39.249zM1338.06 480.697h-1.35v10.985h1.35v-10.985zM1333.55 480.697h-1.35v10.985h1.35v-10.985zM1328.11 480.697h-1.35v10.985h1.35v-10.985zM1319.83 480.697h-1.35v10.985h1.35v-10.985zM1311.05 480.697h-1.35v10.985h1.35v-10.985zM1297.58 480.697h-1.36v10.985h1.36v-10.985z" fill="#F7944B"/><path d="M1284.96 480.697h-1.36v10.985h1.36v-10.985zM1273.69 480.696h-1.35v10.985h1.35v-10.985zM1342.36 480.697h-1.35v10.985h1.35v-10.985zM1345.21 480.697h-1.35v10.985h1.35v-10.985zM1347.95 480.697h-1.35v10.985h1.35v-10.985zM1350.01 480.733v10.878c-.18.035-.32.035-.5.035h-.82v-10.984h.82c.18.035.32.071.5.071zM1351.86 481.764v8.851c-.32.391-.79.711-1.35.889V480.84c.56.213 1.03.533 1.35.924z" fill="#F7944B"/><path d="M1361.95 472.129v6.186c0 .497-.18.959-.5 1.315-.32.391-.78.711-1.35.889-.17.071-.35.106-.53.106-.18.036-.32.036-.5.036h-117.45c-1.52 0-2.77-.995-2.84-2.275v-6.292-.107c.07-1.173 1.14-2.097 2.49-2.239h117.8c.18 0 .36 0 .5.035.18.036.36.071.53.107.54.178 1 .498 1.35.889.32.391.5.853.5 1.35z" fill="#FFB783"/><path d="M1304.26 480.697h-62.96c-1.35 0-2.45-.995-2.52-2.275v-6.292-.106c.07-1.173 1.03-2.098 2.24-2.24h55.49c.89 3.2 2.95 7.643 7.75 10.913zM1347.66 469.749h-1.35v10.984h1.35v-10.984zM1343.15 469.749h-1.35v10.984h1.35v-10.984zM1337.74 469.749h-1.35v10.984h1.35v-10.984zM1329.43 469.749h-1.35v10.984h1.35v-10.984zM1320.65 469.749h-1.36v10.984h1.36v-10.984zM1307.17 469.749h-1.35v10.984h1.35v-10.984z" fill="#F7944B"/><path d="M1294.55 469.749h-1.35v10.984h1.35v-10.984zM1283.29 469.748h-1.36v10.984h1.36v-10.984zM1351.96 469.749h-1.35v10.984h1.35v-10.984zM1354.81 469.749h-1.35v10.984h1.35v-10.984zM1357.54 469.749h-1.35v10.984h1.35v-10.984zM1359.61 469.784v10.878c-.18.035-.32.035-.5.035h-.82v-10.984h.82c.18.036.32.036.5.071zM1361.45 470.78v8.851c-.32.391-.78.711-1.35.889v-10.665c.57.214 1.03.534 1.35.925z" fill="#F7944B"/><path d="M1346.52 461.182v6.185c0 .498-.17.96-.49 1.315-.32.391-.79.711-1.35.889-.18.071-.36.107-.54.107-.07 0-.1 0-.17.035H1226.2c-1.53 0-2.78-.995-2.85-2.275v-6.292-.106c.07-1.245 1.32-2.275 2.85-2.275h117.62c.11 0 .25 0 .36.035l.53.107c.07.035.18.071.25.106.04.036.11.036.14.071.04.036.11.036.14.072h.04c.04.035.07.035.14.071.11.071.18.142.29.213.03.035.07.035.07.071l.03.036c.04.035.07.071.07.071.04.035.08.071.11.142.36.462.53.924.53 1.422z" fill="#FFB783"/><path d="M1288.83 469.748h-62.95c-1.35 0-2.46-.996-2.53-2.275v-6.292-.107c.07-1.244 1.18-2.275 2.53-2.275h55.2c.04.071.04.178.07.249.93 3.199 2.99 7.501 7.68 10.7zM1332.23 458.8h-1.35v10.984h1.35V458.8zM1327.72 458.8h-1.35v10.984h1.35V458.8zM1322.32 458.8h-1.35v10.984h1.35V458.8zM1314 458.8h-1.35v10.984h1.35V458.8zM1305.22 458.8h-1.35v10.984h1.35V458.8zM1291.75 458.8h-1.35v10.984h1.35V458.8z" fill="#F7944B"/><path d="M1279.13 458.8h-1.35v10.984h1.35V458.8zM1267.86 458.8h-1.35v10.984h1.35V458.8zM1336.54 458.8h-1.36v10.984h1.36V458.8zM1339.38 458.8h-1.35v10.984h1.35V458.8zM1342.12 458.8h-1.35v10.984h1.35V458.8zM1344.18 458.836v10.877c-.18.036-.32.036-.5.036h-.82V458.8h.82c.18 0 .36 0 .5.036zM1346.03 459.831v8.851c-.32.391-.79.711-1.35.889v-10.664c.56.213 1.03.533 1.35.924z" fill="#F7944B"/><path d="M1355.16 450.446v6.185c0 .497-.18.96-.5 1.315-.32.391-.78.711-1.35.889-.17.071-.35.106-.53.106-.18.036-.32.036-.5.036h-117.45c-.46 0-.88-.107-1.28-.249-.85-.355-1.45-1.066-1.56-1.919v-.107-6.292-.107c.07-1.173 1.14-2.097 2.49-2.239h117.8c.18 0 .36 0 .5.035.18.036.36.071.53.107.54.178 1 .498 1.35.889.32.426.5.888.5 1.351z" fill="#FFB783"/><path d="M1297.47 459.049h-62.96c-.39 0-.78-.107-1.13-.249-.79-.355-1.32-1.066-1.39-1.919v-.107-6.292-.107c.07-1.173 1.03-2.097 2.24-2.239h55.49c.85 3.128 2.84 7.465 7.36 10.7.14.035.28.142.39.213zM1340.87 448.065h-1.35v10.984h1.35v-10.984zM1336.36 448.065h-1.35v10.984h1.35v-10.984zM1330.95 448.065h-1.35v10.984h1.35v-10.984zM1322.64 448.065h-1.35v10.984h1.35v-10.984zM1313.86 448.065h-1.35v10.984h1.35v-10.984zM1300.38 448.065h-1.35v10.984h1.35v-10.984z" fill="#F7944B"/><path d="M1287.76 448.065h-1.35v10.984h1.35v-10.984zM1276.5 448.064h-1.35v10.984h1.35v-10.984zM1345.17 448.065h-1.35v10.984h1.35v-10.984zM1348.02 448.065h-1.35v10.984h1.35v-10.984zM1350.75 448.065h-1.35v10.984h1.35v-10.984zM1352.82 448.1v10.878c-.18.035-.32.035-.5.035h-.82v-10.984h.82c.18.036.35.071.5.071zM1354.66 449.131v8.852c-.32.391-.78.71-1.35.888v-10.628c.57.177 1.03.497 1.35.888z" fill="#F7944B"/><path d="M1358.82 439.498v6.185c0 .498-.17.96-.49 1.315-.32.391-.79.711-1.36.889-.17.071-.35.107-.53.107-.07 0-.1 0-.18.035H1238.5c-1.53 0-2.78-.995-2.85-2.275v-6.292-.106c.07-1.245 1.32-2.275 2.85-2.275h117.48c.18 0 .36 0 .5.035.17.036.35.071.53.107.53.178 1 .497 1.35.888.29.463.46.889.46 1.387z" fill="#FFB783"/><path d="M1301.13 448.1h-62.92c-1.35 0-2.45-.995-2.52-2.275v-6.292-.106c.07-1.244 1.17-2.275 2.52-2.275h55.21c.89 3.199 2.91 7.642 7.71 10.948 0-.035 0 0 0 0zM1344.57 437.116h-1.35V448.1h1.35v-10.984zM1340.05 437.116h-1.35V448.1h1.35v-10.984zM1334.62 437.116h-1.35V448.1h1.35v-10.984zM1326.3 437.116h-1.35V448.1h1.35v-10.984zM1317.52 437.116h-1.35V448.1h1.35v-10.984zM1304.05 437.116h-1.36V448.1h1.36v-10.984z" fill="#F7944B"/><path d="M1291.43 437.116h-1.35V448.1h1.35v-10.984zM1280.19 437.116h-1.35V448.1h1.35v-10.984zM1348.87 437.116h-1.35V448.1h1.35v-10.984zM1351.71 437.116h-1.35V448.1h1.35v-10.984zM1354.45 437.116h-1.35V448.1h1.35v-10.984zM1356.51 437.152v10.877c-.17.036-.32.036-.49.036h-.82v-10.949h.82c.14 0 .32.036.49.036zM1358.36 438.183v8.851c-.32.391-.78.711-1.35.889v-10.665c.57.214 1.03.534 1.35.925z" fill="#F7944B"/><path d="M1272.12 517.539c.99 1.13 1.13 2.397.63 3.753-.9 2.488-3.89 5.292-7.37 8.096-.45.362-.86.679-1.18.995-.09.091-.18.181-.27.226-.09.046-.13.136-.22.181-3.26 2.985-2.04 3.664-7.87 9.769-6.65 6.92-11.22 7.056-12.53 6.423-1.09-.543 1.13-4.206 3.62-8.322.13-.181.22-.407.36-.588.32-.543.68-1.086.99-1.674 2.9-4.975 2.17-7.281 1.5-14.699-.55-6.015-9.37-33.558-9.37-33.558l12.76-2.217s3.84 21.936 8.05 25.328c2.26 1.809 4.79 1.809 6.96 3.166.14.09.32.181.46.271 1.22.905 2.48 1.719 3.48 2.85z" fill="#FFB27D"/><path d="M1272.12 517.538c.99 1.131 1.13 2.398.63 3.754-1.13 2.488-4.02 5.292-7.42 8.096-.45.362-.81.679-1.17.995-.09.091-.18.181-.27.226-.09.045-.14.136-.23.181-3.26 2.985-2.03 3.664-7.87 9.769-6.65 6.92-11.21 7.056-12.53 6.423-1.08-.543 1.13-4.206 3.62-8.322 1.31-.452 7.33-2.94 11.85-8.729 4.03-5.111 6.7-11.669 9.41-15.468.13.09.32.181.45.271 1.27.86 2.53 1.674 3.53 2.804z" fill="#233862"/><path d="M1169.27 509.578c-.77 3.935-6.38 3.302-12.66 1.764-6.29-1.537-4.8.272-13.71-.678-8.91-.95-11.62-4.297-11.89-5.654-.23-1.175 4.16-1.582 8.91-2.125.59-.045 1.17-.136 1.81-.226 5.33-.679 9.27-4.116 14.11-6.965 4.61-2.669 11.44-13.614 11.44-13.614l12.26.95s-6.42 9.769-8.91 13.975c-1.45 2.488-1.4 5.789-1.22 8.322.09 1.447.18 2.895-.14 4.251z" fill="#FFB27D"/><path d="M1156.61 511.342c-6.29-1.537-4.8.272-13.71-.678-8.91-.95-11.62-4.297-11.89-5.654-.23-1.175 4.16-1.583 8.91-2.125l.04.09s5.34 3.799 12.8 3.98c6.06.136 12.49-1.583 16.65-1.537.09 1.402.18 2.804-.09 4.206-.82 3.889-6.43 3.256-12.71 1.718z" fill="#233862"/><path d="M1216.17 431.335l11.44 30.8 14.93 40.207s4.07.407 7.91-.724c3.58-1.04 7.69-3.754 7.69-3.754s-4.16-43.147-11.89-67.931c-1.99-6.377-4.21-11.488-6.65-14.383-11.99-14.201-23.43 15.785-23.43 15.785z" fill="#16865F"/><path d="M1227.8 382.444c7.5-2.397 28.85.678 50.33 4.884l4.48-7.417 46.36-3.618s15.29 33.92 6.92 55.584c-1.22 3.166-4.3 4.523-8.46 4.568 0 0-27.68.679-36.63.679-23.07 0-48.8-15.875-52.15-16.508-5.47-1.086-7.64 9.814-13.07 21.257-5.47 11.442-51.24 50.7-51.24 50.7s-7.06.09-9.95-1.04c-3.12-1.176-4.26-2.714-4.26-2.714s50.8-100.903 67.67-106.375z" fill="#36C795"/><path d="M1287.59 243.73c3.48-2.08 6.87-2.351 8.91-2.306 1.49.045 2.94-.091 4.43-.271 17.59-2.352 28.13 23.156 28.76 30.935 1.13 14.247 8.69 16.418 19.32 25.373 21.3 17.91 15.06 38.715 3.39 46.449-6.97 4.658-19.31 0-19.31 0-.19.135-33.7-18.725-50.21-27.815-24.69-3.573-5.24-66.44 4.71-72.365z" fill="#233862"/><path d="M1296.77 308.315c-.09.046 8.14 2.85 13.61.407 5.16-2.261 9.05-10.764 9-10.764-2.35-.09-4.93-2.171-6.92-15.603l-.99.362-16.78 6.06s1.22 5.382 1.99 10.538c.63 4.252.99 8.412.09 9z" fill="#FFB27D"/><path d="M1294.64 288.777s1.22 5.382 1.99 10.538c9.64-1.718 13.44-11.352 14.79-16.553l-16.78 6.015z" fill="#ED975D"/><path d="M1292.15 294.114s22.98-3.075 20.85-17.367c-2.12-14.292-.63-24.288-15.37-22.931-14.75 1.357-16.78 7.237-17.23 12.166-.46 4.93 5.74 28.539 11.75 28.132z" fill="#FFB27D"/><path d="M1281.21 258.158s14.7 12.664 24.74 13.704c9.99 1.04 13.79-2.171 13.79-2.171s-5.88-4.884-9.45-12.799a7.015 7.015 0 00-5.79-4.161c-7.14-.633-20.71-.905-23.29 5.427z" fill="#233862"/><path d="M1290.44 257.027s-4.93 4.749-6.47 8.277c-1.49 3.392-1.95 11.533-.77 14.789 0 0-7.69-14.925-3.35-22.161 4.62-7.689 10.59-.905 10.59-.905z" fill="#233862"/><path d="M1277.41 342.191c.68 46.539.18 36.815 5.29 41.202 1.22 1.041 4.66 1.719 9.23 1.99 14.25.95 39.35-1.402 40.3-4.025 3.3-9.136.95-11.94 3.71-25.915.27-1.493.63-3.076 1.04-4.84 2.3-9.588 4.52-12.844-3.62-28.267-7.38-13.975-15.02-25.282-15.7-24.875-19.44 11.533-20.98 1.854-20.98 1.854s-19.59 20.172-19.27 42.876z" fill="#fff"/><path d="M1227.61 462.135l14.93 40.207s4.07.407 7.91-.724c3.58-1.04 7.69-3.754 7.69-3.754s-4.16-43.147-11.89-67.931l-18.64 32.202z" fill="#36C795"/><path d="M1296.68 299.27s-19.99 3.392-22.35 11.985c-2.35 8.594-16.14 59.203-16.14 59.203s10.17 1.809 14.88-2.849c4.7-4.704 16.33-43.554 16.33-43.554l7.28-24.785z" fill="#fff"/><path d="M1291.93 385.383c14.25.95 39.35-1.402 40.3-4.025 3.3-9.136.95-11.94 3.71-25.915l-6.88-19.358s1.13 21.574-5.25 27.227c-6.37 5.654-26.05 10.945-29.12 15.694-1.5 2.262-2.49 4.568-2.76 6.377z" fill="#EBF3FF"/><path d="M1308.26 376.293s-14.07-3.121-16.33-1.9c-2.26 1.266-7.83 5.789-8.5 7.372-.68 1.583 5.06-1.221 6.92-1.719 1.22-.316 4.38.769 5.97 1.312 6.64 2.216 10.71 1.086 10.71 1.086l1.23-6.151z" fill="#FFB27D"/><path d="M1317.66 297.416s18.91 1.176 25.42 10.266c9.23 12.845 27.45 67.57 17.01 74.897-11.81 8.232-53.64 2.171-53.64 2.171s-1.41-6.513.54-9.678c1.94-3.166 33.42-8.232 34.91-9.679 1.45-1.447-18.18-28.358-18.18-32.7 0-4.387-6.06-35.277-6.06-35.277z" fill="#fff"/><path d="M1291.2 378.328s-2.94 3.799-3.93 4.251c-1 .453-1.58.362-1.58.362l1.99-3.573 3.52-1.04zM1291.93 374.438l-8.6 4.161s.37.588 1.41.543c1.04-.045 3.71-1.04 3.71-1.04l3.48-3.664z" fill="#FFB27D"/><path d="M1242.59 419.648c7.3 12.913 16.46 17.894 16.46 17.894h38.17s-60.21-27.717-54.63-17.894z" fill="#16865F"/><path d="M1287.31 388.414h-67.84l-20.39-50.701h67.75l20.48 50.701z" fill="#F99746"/><path d="M1218.7 386.469h89.55v1.945h-88.78l-.77-1.945z" fill="#ED7D2B"/><path d="M1236.61 363.041c-.49-1.764.5-3.211 2.31-3.211 1.76 0 3.66 1.447 4.16 3.211.5 1.764-.5 3.211-2.3 3.211-1.81.045-3.67-1.402-4.17-3.211z" fill="#fff"/><defs><linearGradient id="paint0_linear" x1="1409.55" y1="1286.47" x2="1402.6" y2="1293.93" gradientUnits="userSpaceOnUse"><stop stop-color="#36C795"/><stop offset="1" stop-color="#2CAB80"/></linearGradient><linearGradient id="paint1_linear" x1="1414.46" y1="1306.14" x2="1418.52" y2="1302.16" gradientUnits="userSpaceOnUse"><stop stop-color="#36C795"/><stop offset="1" stop-color="#3AB2C6"/></linearGradient><linearGradient id="paint2_linear" x1="1362.57" y1="1326.25" x2="1356.46" y2="1332.39" gradientUnits="userSpaceOnUse"><stop offset=".001" stop-color="#2AA77C"/><stop offset="1" stop-color="#36C795"/></linearGradient><linearGradient id="paint3_linear" x1="1374.31" y1="1341.8" x2="1370.26" y2="1345.77" gradientUnits="userSpaceOnUse"><stop stop-color="#36C795"/><stop offset="1" stop-color="#3AB2C6"/></linearGradient><linearGradient id="paint4_linear" x1="1396.25" y1="1316.04" x2="1393.7" y2="1336.74" gradientUnits="userSpaceOnUse"><stop offset=".001" stop-color="#36C795"/><stop offset="1" stop-color="#3AB2C6"/></linearGradient><linearGradient id="paint5_linear" x1="1386.45" y1="1306.26" x2="1383.94" y2="1326.42" gradientUnits="userSpaceOnUse"><stop offset=".001" stop-color="#36C795"/><stop offset="1" stop-color="#3AB2C6"/></linearGradient><linearGradient id="paint6_linear" x1="1401.12" y1="1211.68" x2="1313.03" y2="1302.68" gradientUnits="userSpaceOnUse"><stop offset=".608" stop-color="#FAFDFE"/><stop offset="1" stop-color="#36C795"/></linearGradient><linearGradient id="paint7_linear" x1="1315.28" y1="1259.34" x2="1339.11" y2="1235.94" gradientUnits="userSpaceOnUse"><stop offset=".003" stop-color="#3AB2C6"/><stop offset="1" stop-color="#36C795"/></linearGradient><linearGradient id="paint8_linear" x1="1378.85" y1="1325.05" x2="1381.45" y2="1281.2" gradientUnits="userSpaceOnUse"><stop stop-color="#0AB1BA"/><stop offset="1" stop-color="#36C795"/></linearGradient><clipPath id="clip0"><path d="M-3 723C-3 323.698 320.698 0 720 0c399.3 0 723 323.698 723 723v827c0 138.07-111.93 250-250 250H247c-138.071 0-250-111.93-250-250V723z" fill="#fff"/></clipPath></defs></svg>