<svg width="21" height="21" fill="none" xmlns="http://www.w3.org/2000/svg"><g clip-path="url(#clip0)" fill="#000"><path d="M13.922 0H6.328C2.834 0 0 2.939 0 6.563v7.875C0 18.06 2.834 21 6.328 21h7.594c3.494 0 6.328-2.939 6.328-6.563V6.564C20.25 2.938 17.416 0 13.922 0zm4.43 14.438c0 2.533-1.988 4.593-4.43 4.593H6.328c-2.443 0-4.43-2.06-4.43-4.593V6.561c0-2.533 1.987-4.593 4.43-4.593h7.594c2.442 0 4.43 2.06 4.43 4.593v7.875z"/><path d="M10.125 5.25c-2.796 0-5.063 2.35-5.063 5.25s2.267 5.25 5.063 5.25 5.063-2.35 5.063-5.25-2.267-5.25-5.063-5.25zm0 8.531c-1.744 0-3.164-1.472-3.164-3.281 0-1.81 1.42-3.281 3.164-3.281 1.744 0 3.164 1.471 3.164 3.281 0 1.809-1.42 3.281-3.164 3.281zM15.57 5.556a.687.687 0 00.674-.7c0-.386-.302-.7-.675-.7a.687.687 0 00-.675.7c0 .387.303.7.675.7z"/></g><defs><clipPath id="clip0"><path fill="#fff" d="M0 0h20.25v21H0z"/></clipPath></defs></svg>