<svg width="314" height="41" fill="none" xmlns="http://www.w3.org/2000/svg"><path d="M149.413 8.275c0-2.546 1.727-4.015 3.82-4.015 1.134 0 1.937.478 2.46.991l-.925 1.11c-.401-.341-.802-.614-1.482-.614-1.204 0-2.059.922-2.059 2.46 0 1.572.733 2.494 2.198 2.494.332 0 .646-.085.838-.239V9.147h-1.291V7.728h2.861v3.52c-.541.513-1.483.923-2.582.923-2.146.034-3.838-1.316-3.838-3.896zM157 6.225h1.468l.124 1.047h.053c.442-.803 1.096-1.186 1.715-1.186.336 0 .549.052.726.122l-.301 1.517c-.212-.052-.407-.105-.655-.105-.442 0-1.008.297-1.326 1.099v3.453h-1.786V6.224H157zM161.085 10.449c0-1.227 1.019-1.892 3.431-2.13-.036-.512-.304-.853-.965-.853-.518 0-1.018.205-1.608.529l-.643-1.142c.768-.443 1.644-.767 2.608-.767 1.555 0 2.43.852 2.43 2.625v3.323h-1.483l-.125-.597h-.053c-.519.427-1.09.733-1.769.733-1.126.034-1.823-.732-1.823-1.721zm3.431-.068V9.358c-1.287.17-1.697.511-1.697.955 0 .375.267.545.696.545.411.017.679-.17 1.001-.477zM167.506 9.059c0-1.93 1.247-3.112 2.566-3.112.686 0 1.102.243 1.518.626l-.073-.905V3.651h1.825v8.381h-1.499l-.127-.59h-.054c-.434.416-1.048.73-1.645.73-1.517 0-2.511-1.165-2.511-3.113zm3.993 1.148V7.772a1.454 1.454 0 00-1.012-.382c-.578 0-1.102.521-1.102 1.652 0 1.165.416 1.704 1.12 1.704.398 0 .705-.157.994-.54zM174.509 9.772V6.086h1.734v3.46c0 .852.223 1.13.738 1.13.429 0 .704-.191 1.047-.66v-3.93h1.734v5.929h-1.425l-.137-.817h-.034c-.498.591-1.047.973-1.837.973-1.27-.017-1.82-.921-1.82-2.399zM180.93 10.449c0-1.227 1.018-1.892 3.43-2.13-.036-.512-.304-.853-.965-.853-.518 0-1.018.205-1.608.529l-.643-1.142c.768-.443 1.644-.767 2.609-.767 1.554 0 2.429.852 2.429 2.625v3.323H184.7l-.126-.597h-.053c-.518.427-1.09.733-1.769.733-1.126.034-1.822-.732-1.822-1.721zm3.43-.068V9.358c-1.286.17-1.697.511-1.697.955 0 .375.268.545.697.545.41.017.678-.17 1-.477zM188.878 14.503c.898-.054 1.18-.196 1.18-.534 0-.25-.183-.41-.881-.516l.482-1.032c-1.346-.214-2.309-1.353-2.309-3.15 0-2.029 1.379-3.185 2.941-3.185.698 0 1.229.267 1.661.64l-.781 1.157c-.282-.25-.498-.356-.764-.356-.814 0-1.329.676-1.329 1.726 0 1.05.531 1.726 1.263 1.726.365 0 .714-.195 1.013-.445l.665 1.175a2.539 2.539 0 01-1.379.676l-.266.64c.565.143.864.41.864.926 0 .836-.831 1.21-2.26 1.263l-.1-.711zM192.603 10.377c0-1.279 1.018-1.971 3.43-2.22-.036-.533-.304-.888-.965-.888-.518 0-1.018.213-1.608.55l-.643-1.19c.768-.46 1.644-.798 2.608-.798 1.555 0 2.43.888 2.43 2.735v3.462h-1.483l-.125-.621h-.053c-.518.444-1.09.763-1.769.763-1.126.036-1.822-.763-1.822-1.793zm2.09-6.091c-.25 0-.375.195-.429.675l-1.125-.054c.035-1.26.571-1.864 1.518-1.864.768 0 1.197.781 1.59.781.25 0 .376-.213.429-.675l1.126.054c-.036 1.26-.572 1.864-1.519 1.864-.768 0-1.197-.781-1.59-.781zm1.34 6.02V9.24c-1.286.178-1.697.533-1.697.995 0 .39.268.568.696.568.411.018.679-.178 1.001-.497zM199.022 9.129c0-1.938 1.407-3.043 2.919-3.043s2.918 1.105 2.918 3.043c0 1.938-1.406 3.043-2.918 3.043-1.512 0-2.919-1.105-2.919-3.043zm4.026 0c0-1.003-.369-1.65-1.107-1.65-.739 0-1.108.647-1.108 1.65s.369 1.649 1.108 1.649c.738 0 1.107-.63 1.107-1.65zM209.84 5.775h-2.063V4.26h5.836v1.515h-2.063v6.396h-1.71V5.776zM213.613 9.129c0-1.887 1.356-3.043 2.764-3.043 1.665 0 2.489 1.207 2.489 2.788 0 .306-.034.612-.069.765h-3.501c.154.85.738 1.224 1.527 1.224.429 0 .841-.136 1.271-.391l.583 1.037c-.601.407-1.373.662-2.077.662-1.699 0-2.987-1.121-2.987-3.042zm3.777-.63c0-.645-.292-1.104-.979-1.104-.549 0-1.012.357-1.133 1.105h2.112zM220.033 9.137c0-1.943 1.374-3.051 2.947-3.051.696 0 1.226.255 1.656.613l-.778 1.108c-.282-.238-.497-.34-.762-.34-.811 0-1.324.647-1.324 1.653s.53 1.654 1.258 1.654c.364 0 .712-.188 1.01-.427l.662 1.125c-.563.512-1.258.7-1.871.7-1.573.016-2.798-1.092-2.798-3.035zM225.87 4.26h4.669v1.515h-3.003v1.833h2.558v1.498h-2.558v3.066h-1.666V4.26zM231.706 4c0-.57.377-.957.876-.957.513 0 .875.386.875.957 0 .57-.362.975-.875.975-.499 0-.876-.405-.876-.975zm.121 1.896h1.524v6.276h-1.524V5.896zM235.208 6.242h1.416l.119.748h.051c.495-.487 1.074-.904 1.859-.904 1.262 0 1.808.904 1.808 2.4v3.685h-1.723v-3.46c0-.87-.221-1.13-.716-1.13-.426 0-.699.209-1.074.574v4h-1.723V6.241h-.017zM149.413 20.716c0-1.945 1.268-3.676 3.136-3.676.722 0 1.233.357 1.533.892l-.652.518c-.229-.357-.511-.571-.934-.571-1.269 0-2.114 1.41-2.114 2.766 0 .982.387 1.66 1.409 1.66.335 0 .617-.125.811-.286l.282-1.392h-1.075l.158-.785h1.939l-.529 2.677a2.705 2.705 0 01-1.727.607c-1.427.017-2.237-.91-2.237-2.41zM154.962 18.966h.807l-.092.805h.037c.366-.52.861-.905 1.412-.905.201 0 .33.033.458.084l-.33.788a1.105 1.105 0 00-.422-.067c-.422 0-.862.302-1.228.94l-.532 2.515h-.99l.88-4.16zM157.583 21.44c0-1.778 1.084-3.183 2.218-3.183.401 0 .767.262.951.656h.017l.183-.543h.717l-.817 4.643h-.734l.05-.637h-.033c-.384.45-.884.75-1.368.75-.717.018-1.184-.6-1.184-1.686zm2.635.075l.334-1.853c-.184-.394-.45-.562-.701-.562-.7 0-1.334 1.01-1.334 2.21 0 .673.234.992.617.992.351 0 .751-.225 1.084-.787zM165.685 18.059l.296-1.627h.941l-1.254 6.583h-.767l.052-.629h-.034c-.401.444-.924.74-1.429.74-.749 0-1.237-.592-1.237-1.664 0-1.757 1.132-3.144 2.317-3.144.418 0 .767.24.941.61h.035l.139-.87zm-.662 3.477l.348-1.831c-.191-.389-.47-.555-.731-.555-.732 0-1.394.999-1.394 2.182 0 .666.244.98.645.98.365 0 .766-.222 1.132-.776zM170.169 23.025h-.768l.035-.587h-.035c-.436.37-.925.688-1.449.688-.716 0-1.03-.386-1.03-1.057 0-.201.017-.369.07-.587l.541-2.616h.943l-.524 2.499c-.052.201-.07.319-.07.436 0 .352.175.537.541.537.297 0 .629-.202 1.065-.638l.577-2.834h.942l-.838 4.16zM171.591 21.44c0-1.778 1.084-3.183 2.218-3.183.4 0 .767.262.95.656h.017l.183-.543h.717l-.817 4.643h-.733l.05-.637h-.034c-.383.45-.884.75-1.367.75-.734.018-1.184-.6-1.184-1.686zm2.635.075l.333-1.853c-.183-.394-.45-.562-.7-.562-.701 0-1.334 1.01-1.334 2.21 0 .673.233.992.617.992.35 0 .75-.225 1.084-.787zM176.565 24.557c.676-.033.947-.165.981-.411.017-.181-.135-.296-.592-.346l.49-.707c-.693-.165-1.184-.724-1.184-1.612 0-1.464 1.1-2.615 2.402-2.615.508 0 .863.23 1.1.493l-.507.543c-.203-.214-.373-.312-.643-.312-.745 0-1.404.838-1.404 1.858 0 .609.287.97.845.97.322 0 .576-.147.796-.312l.389.56a2.213 2.213 0 01-1.218.46l-.271.428c.406.098.558.263.524.559-.067.543-.693.822-1.691.839l-.017-.395zM179.762 21.519c0-1.696 1.195-3.035 2.445-3.035a1.2 1.2 0 011.048.625h.018l.202-.518h.791l-.919 4.427h-.809l.055-.607h-.037c-.422.429-.974.714-1.507.714-.79.018-1.287-.57-1.287-1.606zm2.886.071l.368-1.767c-.202-.375-.496-.535-.772-.535-.772 0-1.471.964-1.471 2.106 0 .643.258.946.68.946.405 0 .828-.214 1.195-.75zm-.606-4.427c-.239 0-.405.215-.478.607l-.68-.035c.165-.822.569-1.303 1.213-1.303.625 0 .753.66 1.176.66.239 0 .405-.214.478-.607l.68.036c-.165.803-.57 1.303-1.213 1.303-.625.018-.754-.66-1.176-.66zM184.431 21.471c0-1.556 1.231-2.605 2.426-2.605 1 0 1.66.639 1.66 1.655 0 1.54-1.231 2.605-2.445 2.605-.999 0-1.641-.655-1.641-1.655zm3.104-.934c0-.606-.267-.967-.767-.967-.696 0-1.356.82-1.356 1.852 0 .606.268.967.785.967.678.016 1.338-.803 1.338-1.852zM192.957 17.907h-1.522l.165-.867h3.921l-.149.867h-1.522l-.926 5.219h-.91l.943-5.22zM197.152 18.866c.944 0 1.286.658 1.286 1.497 0 .361-.114.723-.179.855H195.8c-.098.855.391 1.233.993 1.233.294 0 .603-.164.815-.328l.325.575c-.325.23-.798.428-1.384.428-.961 0-1.612-.625-1.612-1.727.016-1.513 1.156-2.533 2.215-2.533zm.521 1.793c.032-.115.049-.23.049-.362 0-.395-.163-.757-.652-.757-.488 0-.977.411-1.172 1.119h1.775zM199.022 21.471c0-1.458 1.1-2.605 2.403-2.605.507 0 .862.23 1.099.491l-.507.541c-.203-.213-.372-.311-.643-.311-.744 0-1.404.835-1.404 1.851 0 .607.287.967.846.967.321 0 .575-.148.795-.311l.389.557c-.322.23-.744.475-1.37.475-.931 0-1.608-.606-1.608-1.655zM203.373 18.966h.761l-.052.587h.035c.45-.369.935-.687 1.472-.687.709 0 1.021.386 1.021 1.056 0 .202-.017.37-.069.587l-.537 2.617h-.935l.52-2.5c.034-.2.069-.318.069-.435 0-.352-.173-.537-.537-.537-.294 0-.623.201-1.09.637l-.572 2.818h-.935l.849-4.143zM207.777 21.471c0-1.556 1.055-2.605 2.08-2.605.856 0 1.422.639 1.422 1.655 0 1.54-1.055 2.605-2.095 2.605-.841 0-1.407-.655-1.407-1.655zm2.661-.934c0-.606-.23-.967-.658-.967-.596 0-1.162.82-1.162 1.852 0 .606.229.967.673.967.596.016 1.147-.803 1.147-1.852zM212.446 22.386c0-.148.015-.296.06-.481l.883-5.473h.808l-.898 5.51c-.015.092-.015.148-.015.185 0 .148.06.203.135.203.045 0 .075 0 .135-.037l-.015.74c-.12.055-.255.092-.464.092-.434.019-.629-.277-.629-.74zM214.197 21.327c0-1.692 1.195-2.832 2.355-2.832.969 0 1.61.694 1.61 1.799 0 1.674-1.195 2.832-2.372 2.832-.952 0-1.593-.713-1.593-1.8zm3.012-1.015c0-.66-.259-1.051-.744-1.051-.675 0-1.316.89-1.316 2.012 0 .66.26 1.051.762 1.051.675.018 1.298-.872 1.298-2.012zm-1.038-3.046l1.541-1.443.571.748-1.697 1.247-.415-.552zM218.866 24.382l.37-.604c.293.252.632.453 1.033.453.571 0 .941-.386 1.095-1.057l.2-.804c-.37.402-.786.654-1.249.654-.647 0-1.11-.487-1.11-1.459 0-1.509.972-2.7 2.005-2.7.37 0 .693.236.863.588h.031l.169-.487h.679l-.771 4.208c-.216 1.174-.894 1.778-1.912 1.778-.509 0-1.002-.218-1.403-.57zm2.729-2.733l.293-1.543c-.185-.352-.401-.503-.632-.503-.617 0-1.187.856-1.187 1.845 0 .553.216.821.555.821.277.017.678-.184.971-.62zM224.462 18.874h1l-.908 4.252h-1.019l.927-4.252zm.166-1.234c0-.326.297-.6.667-.6.297 0 .575.172.575.48 0 .343-.297.6-.667.6-.297 0-.575-.171-.575-.48zM225.87 21.471c0-1.458 1.1-2.605 2.402-2.605.508 0 .863.23 1.1.491l-.508.541c-.203-.213-.372-.311-.642-.311-.745 0-1.404.835-1.404 1.851 0 .607.287.967.845.967.322 0 .576-.148.795-.311l.39.557c-.322.23-.745.475-1.371.475-.93 0-1.607-.606-1.607-1.655zM229.372 21.44c0-1.778 1.239-3.183 2.535-3.183.457 0 .876.262 1.086.656h.019l.21-.543h.819l-.934 4.643h-.838l.057-.637h-.038c-.438.45-1.01.75-1.563.75-.838.018-1.353-.6-1.353-1.686zm3.011.075l.381-1.853c-.209-.394-.514-.562-.8-.562-.8 0-1.525 1.01-1.525 2.21 0 .673.267.992.705.992.401 0 .858-.225 1.239-.787zM238.376 18.866c1.102 0 1.502.658 1.502 1.497 0 .361-.134.723-.21.855h-2.869c-.114.855.456 1.233 1.159 1.233.342 0 .703-.164.95-.328l.38.575a3.12 3.12 0 01-1.615.428c-1.121 0-1.881-.625-1.881-1.727.019-1.513 1.349-2.533 2.584-2.533zm.589 1.793c.038-.115.057-.23.057-.362 0-.395-.19-.757-.76-.757-.57 0-1.14.411-1.368 1.119h2.071zM240.758 18.966h.824l-.057.587h.038c.468-.369 1.011-.687 1.517-.687.711 0 .973.319 1.086.771.543-.47 1.105-.771 1.61-.771.768 0 1.105.386 1.105 1.056 0 .202-.037.37-.075.587l-.58 2.617h-1.012l.562-2.5c.056-.2.075-.318.075-.435 0-.352-.187-.537-.562-.537-.243 0-.636.201-1.104.637l-.637 2.835h-1.011l.561-2.5c.057-.2.075-.318.075-.435 0-.352-.187-.537-.561-.537-.244 0-.637.201-1.105.637l-.618 2.835h-1.012l.881-4.16zM249.216 20.716c0-1.945 1.268-3.676 3.136-3.676.723 0 1.233.357 1.533.892l-.652.518c-.229-.357-.511-.571-.934-.571-1.268 0-2.114 1.41-2.114 2.766 0 .982.388 1.66 1.409 1.66.335 0 .617-.125.811-.286l.282-1.392h-1.075l.159-.785h1.92l-.528 2.677a2.705 2.705 0 01-1.727.607c-1.427.017-2.22-.91-2.22-2.41zM256.683 18.866c.945 0 1.287.658 1.287 1.497 0 .361-.114.723-.179.855h-2.459c-.098.855.39 1.233.993 1.233.293 0 .603-.164.814-.328l.326.575c-.326.23-.798.428-1.384.428-.961 0-1.613-.625-1.613-1.727.017-1.513 1.157-2.533 2.215-2.533zm.522 1.793c.032-.115.048-.23.048-.362 0-.395-.162-.757-.651-.757s-.977.411-1.173 1.119h1.776zM257.97 22.34l.547-.427c.273.345.615.541 1.008.541s.734-.23.734-.524c0-.262-.222-.393-.751-.672-.564-.295-.906-.639-.906-1.13 0-.738.701-1.262 1.538-1.262.546 0 1.008.246 1.332.573l-.512.476c-.222-.213-.479-.377-.803-.377-.393 0-.666.229-.666.508 0 .294.358.442.717.639.632.327.94.639.94 1.146 0 .787-.701 1.295-1.675 1.295-.563 0-1.195-.328-1.503-.787zM262.185 22.099c0-.172.037-.326.055-.497l.462-2.07h-.646l.147-.685.702-.052.37-1.146h.831l-.24 1.146h1.108l-.166.736h-1.127l-.462 2.106c-.018.102-.037.205-.037.308 0 .308.148.462.536.462a.872.872 0 00.425-.12l.184.65a2.648 2.648 0 01-.96.188c-.831.018-1.182-.445-1.182-1.026zM264.974 21.519c0-1.696 1.195-3.035 2.445-3.035a1.2 1.2 0 011.048.625h.018l.202-.518h.791l-.901 4.427h-.809l.055-.607h-.036c-.423.429-.975.714-1.508.714-.809.018-1.305-.57-1.305-1.606zm2.905.071l.367-1.767c-.202-.375-.496-.535-.772-.535-.772 0-1.47.964-1.47 2.106 0 .643.257.946.68.946.386 0 .827-.214 1.195-.75zm-.625-4.427c-.239 0-.405.215-.478.607l-.681-.035c.166-.822.57-1.303 1.214-1.303.625 0 .753.66 1.176.66.239 0 .405-.214.478-.607l.68.036c-.165.803-.57 1.303-1.213 1.303-.607.018-.735-.66-1.176-.66zM269.643 21.471c0-1.556 1.231-2.605 2.426-2.605.999 0 1.66.639 1.66 1.655 0 1.54-1.231 2.605-2.445 2.605-.981 0-1.641-.655-1.641-1.655zm3.104-.934c0-.606-.267-.967-.767-.967-.696 0-1.356.82-1.356 1.852 0 .606.268.967.785.967.696.016 1.338-.803 1.338-1.852zM277.121 17.04h3.028l-.144.848h-2.179l-.305 1.808h1.843l-.144.848h-1.827l-.464 2.582h-.866l1.058-6.086zM281.064 18.874h1.008l-.915 4.252h-1.009l.916-4.252zm.168-1.234c0-.326.299-.6.672-.6.299 0 .579.172.579.48 0 .343-.299.6-.672.6-.299 0-.579-.171-.579-.48zM283.332 18.966h.761l-.052.587h.035c.45-.369.935-.687 1.472-.687.709 0 1.021.386 1.021 1.056 0 .202-.017.37-.069.587l-.537 2.617h-.935l.52-2.5c.034-.2.069-.318.069-.435 0-.352-.173-.537-.537-.537-.294 0-.623.201-1.091.637l-.571 2.835h-.935l.849-4.16zM287.152 21.44c0-1.778 1.084-3.183 2.218-3.183.4 0 .767.262.951.656h.016l.184-.543h.717l-.817 4.643h-.734l.05-.637h-.033c-.384.45-.884.75-1.368.75-.733.018-1.184-.6-1.184-1.686zm2.635.075l.334-1.853c-.184-.394-.451-.562-.701-.562-.7 0-1.334 1.01-1.334 2.21 0 .673.234.992.617.992.35 0 .751-.225 1.084-.787zM292.67 18.966h.761l-.052.587h.035c.45-.369.935-.687 1.471-.687.71 0 1.022.386 1.022 1.056 0 .202-.017.37-.069.587l-.537 2.617h-.935l.519-2.5c.035-.2.07-.318.07-.435 0-.352-.173-.537-.537-.537-.294 0-.623.201-1.091.637l-.571 2.835h-.935l.849-4.16zM296.491 21.471c0-1.458 1.099-2.605 2.402-2.605.507 0 .863.23 1.1.491l-.508.541c-.203-.213-.372-.311-.643-.311-.744 0-1.404.835-1.404 1.851 0 .607.288.967.846.967.321 0 .575-.148.795-.311l.389.557c-.321.23-.744.475-1.37.475-.931 0-1.607-.606-1.607-1.655zM302.577 18.866c1.102 0 1.501.658 1.501 1.497 0 .361-.133.723-.209.855H301c-.114.855.456 1.233 1.159 1.233.342 0 .703-.164.95-.328l.38.575a3.12 3.12 0 01-1.615.428c-1.121 0-1.881-.625-1.881-1.727.019-1.513 1.349-2.533 2.584-2.533zm.608 1.793c.038-.115.057-.23.057-.362 0-.395-.19-.757-.76-.757-.57 0-1.14.411-1.368 1.119h2.071zM305.348 18.874h.756l-.686 4.252h-.756l.686-4.252zm.126-1.234c0-.326.224-.6.504-.6.224 0 .435.172.435.48 0 .343-.225.6-.505.6-.224 0-.434-.171-.434-.48zM307.293 18.966h.806l-.091.805h.036c.367-.52.862-.905 1.412-.905.202 0 .33.033.458.084l-.33.788a1.103 1.103 0 00-.421-.067c-.422 0-.862.302-1.229.94l-.531 2.515h-.99l.88-4.16zM309.915 21.44c0-1.778 1.083-3.183 2.217-3.183.401 0 .767.262.951.656h.017l.183-.543H314l-.817 4.643h-.734l.05-.637h-.033c-.384.45-.884.75-1.367.75-.734.018-1.184-.6-1.184-1.686zm2.634.075l.334-1.853c-.184-.394-.45-.562-.701-.562-.7 0-1.334 1.01-1.334 2.21 0 .673.234.992.617.992.351 0 .751-.225 1.084-.787zM150.458 27.994h.871c1.457 0 2.169.935 2.169 2.365 0 2.108-.982 3.721-2.819 3.721h-1.266l1.045-6.085zm.237 5.775c1.568 0 2.455-1.522 2.455-3.373 0-1.228-.602-2.072-1.853-2.072h-.57l-.934 5.426h.902v.019zM156.293 29.82c.919 0 1.291.606 1.291 1.448 0 .287-.071.556-.124.707h-2.989c-.23 1.28.425 1.819 1.274 1.819.389 0 .76-.185 1.078-.404l.177.252c-.353.236-.796.438-1.291.438-.99 0-1.627-.59-1.627-1.683-.017-1.533 1.114-2.577 2.211-2.577zm.902 1.87c.035-.17.053-.304.053-.489 0-.556-.248-1.095-.991-1.095-.76 0-1.503.657-1.733 1.583h2.671zM158.308 34.41l-.324 1.496h-.401l1.354-5.984h.324l-.096.578h.038c.496-.357 1.049-.68 1.697-.68.819 0 1.353.527 1.353 1.48 0 1.58-1.239 2.838-2.497 2.838-.534 0-.953-.289-1.22-.663h-.019l-.209.935zm.819-3.519l-.495 2.227c.343.51.705.714 1.143.714 1.106 0 2.116-1.224 2.116-2.465 0-.816-.401-1.24-1.049-1.24-.533 0-1.2.305-1.715.764zM162.836 32.621c0-1.56 1.186-2.8 2.408-2.8.511 0 .894.268 1.149.653h.036l.183-.553h.31l-.876 4.059h-.328l.11-.638h-.037c-.456.436-1.021.738-1.623.738-.821 0-1.332-.52-1.332-1.459zm3.028.268l.456-2.046c-.328-.52-.675-.738-1.094-.738-1.058 0-2.007 1.208-2.007 2.432 0 .822.383 1.225.985 1.225.584.016 1.131-.302 1.66-.873zM168.411 29.923h.314l-.148.79h.037c.369-.498.831-.893 1.404-.893.129 0 .258.017.406.069l-.148.344c-.092-.035-.184-.07-.351-.07-.48 0-1.052.43-1.44 1.169l-.591 2.748h-.388l.905-4.157zM170.478 33.25c0-.155.018-.276.036-.414l.598-2.73h-.688l.054-.276.706-.035.308-1.192h.325l-.253 1.192h1.194l-.072.311h-1.194l-.598 2.747c-.018.104-.036.208-.036.329 0 .38.145.587.615.587.218 0 .381-.086.525-.155l.109.276c-.181.087-.416.19-.706.19-.688 0-.923-.38-.923-.83zM172.758 32.621c0-1.56 1.186-2.8 2.408-2.8.511 0 .894.268 1.149.653h.036l.183-.553h.31l-.876 4.059h-.328l.109-.638h-.036c-.456.436-1.021.738-1.623.738-.821 0-1.332-.52-1.332-1.459zm3.028.268l.456-2.046c-.328-.52-.675-.738-1.094-.738-1.058 0-2.007 1.208-2.007 2.432 0 .822.383 1.225.985 1.225.566.016 1.131-.302 1.66-.873zM178.274 29.922h.287l-.101.648h.034c.456-.426.964-.75 1.37-.75.676 0 .93.392.947.852.558-.545 1.1-.852 1.489-.852.677 0 .964.41.964 1.006a2.3 2.3 0 01-.068.562l-.524 2.658h-.355l.524-2.607c.051-.256.068-.375.068-.528 0-.511-.22-.767-.711-.767-.27 0-.795.256-1.37.87l-.609 3.05h-.355l.524-2.608c.051-.255.068-.375.068-.528 0-.511-.22-.767-.711-.767-.27 0-.795.256-1.353.87l-.609 3.05h-.355l.846-4.159zM186.058 29.82c.92 0 1.291.606 1.291 1.448 0 .287-.07.556-.123.707h-2.989c-.23 1.28.424 1.819 1.273 1.819.389 0 .761-.185 1.079-.404l.177.252c-.354.236-.796.438-1.291.438-.99 0-1.627-.59-1.627-1.683-.018-1.533 1.114-2.577 2.21-2.577zm.902 1.87c.036-.17.053-.304.053-.489 0-.556-.247-1.095-.99-1.095-.76 0-1.503.657-1.733 1.583h2.67zM188.9 29.923h.336l-.119.65h.04c.592-.428 1.125-.753 1.717-.753.809 0 1.145.41 1.145 1.01 0 .205-.02.325-.079.564l-.612 2.67h-.415l.612-2.618c.059-.257.079-.377.079-.53 0-.514-.256-.77-.849-.77-.414 0-.967.256-1.697.872l-.71 3.062h-.415l.967-4.157zM192.657 33.25c0-.155.018-.276.036-.414l.597-2.73h-.687l.054-.276.706-.035.307-1.192h.326l-.253 1.192h1.194l-.072.311h-1.195l-.597 2.747c-.018.104-.036.208-.036.329 0 .38.145.587.615.587.217 0 .38-.086.525-.155l.109.276c-.181.087-.417.19-.706.19-.688 0-.923-.38-.923-.83zM194.937 32.47c0-1.526 1.206-2.65 2.49-2.65.972 0 1.595.587 1.595 1.61 0 1.51-1.206 2.65-2.49 2.65-.973 0-1.595-.587-1.595-1.61zm3.676-1.006c0-.872-.447-1.342-1.225-1.342-1.012 0-2.043 1.057-2.043 2.298 0 .872.448 1.358 1.226 1.358 1.011 0 2.042-1.056 2.042-2.314zM204.748 29.29l.347-1.904h.347l-1.207 6.585h-.298l.099-.689h-.033c-.413.472-.926.798-1.472.798-.694 0-1.174-.562-1.174-1.578 0-1.687 1.075-3.03 2.183-3.03.463 0 .811.29 1.026.708h.033l.149-.89zm-.645 3.484l.413-2.213c-.298-.563-.612-.799-.992-.799-.96 0-1.82 1.307-1.82 2.631 0 .89.348 1.325.893 1.325.513.018 1.026-.327 1.506-.944zM208.237 29.82c.919 0 1.291.606 1.291 1.448 0 .287-.071.556-.124.707h-2.989c-.23 1.28.425 1.819 1.274 1.819.389 0 .76-.185 1.078-.404l.177.252c-.354.236-.796.438-1.291.438-.99 0-1.627-.59-1.627-1.683-.018-1.533 1.114-2.577 2.211-2.577zm.902 1.87c.035-.17.053-.304.053-.489 0-.556-.248-1.095-.973-1.095-.76 0-1.503.657-1.733 1.583h2.653zM213.71 27.994h.395l.676 6.086h-.363l-.214-2.12h-2.092l-1.021 2.12h-.396l3.015-6.085zm-1.45 3.656h1.895l-.132-1.17c-.066-.676-.132-1.352-.198-2.083h-.033c-.329.73-.642 1.37-.988 2.083l-.544 1.17zM219.339 29.29l.347-1.904h.348l-1.208 6.585h-.297l.099-.689h-.033c-.414.472-.927.798-1.472.798-.695 0-1.175-.562-1.175-1.578 0-1.687 1.075-3.03 2.184-3.03.463 0 .81.29 1.025.708h.033l.149-.89zm-.662 3.484l.414-2.213c-.298-.563-.612-.799-.992-.799-.96 0-1.82 1.307-1.82 2.631 0 .89.347 1.325.893 1.325.53.018 1.026-.327 1.505-.944zM221.463 29.922h.288l-.102.648h.034c.457-.426.964-.75 1.37-.75.677 0 .931.392.948.852.558-.545 1.099-.852 1.488-.852.677 0 .965.41.965 1.006a2.3 2.3 0 01-.068.562l-.524 2.658h-.356l.525-2.607a2.52 2.52 0 00.067-.528c0-.511-.22-.767-.71-.767-.271 0-.795.256-1.37.87l-.609 3.05h-.356l.525-2.608a2.52 2.52 0 00.067-.528c0-.511-.22-.767-.71-.767-.271 0-.795.256-1.354.87l-.609 3.05h-.355l.846-4.159zM227.941 29.761h.395l-.904 4.32h-.395l.904-4.32zm.132-1.356c0-.232.188-.41.395-.41.169 0 .32.124.32.303a.391.391 0 01-.395.393c-.189.017-.32-.108-.32-.286zM230.201 29.923h.288l-.102.65h.034c.507-.428.964-.753 1.472-.753.693 0 .981.41.981 1.01 0 .205-.017.325-.068.564l-.524 2.67h-.355l.524-2.618c.051-.257.068-.377.068-.53 0-.514-.22-.77-.728-.77-.355 0-.829.256-1.455.872l-.609 3.062h-.355l.829-4.157zM234.361 29.761h.395l-.904 4.32h-.395l.904-4.32zm.132-1.356c0-.232.188-.41.395-.41.169 0 .32.124.32.303a.391.391 0 01-.395.393c-.189.017-.32-.108-.32-.286zM235.208 33.355l.238-.186c.222.354.603.64 1.094.64.524 0 .984-.387.984-.858 0-.32-.143-.539-.73-.876-.682-.387-.936-.673-.936-1.11 0-.69.555-1.145 1.206-1.145.428 0 .793.202 1.062.488l-.222.22c-.206-.236-.476-.422-.856-.422-.492 0-.888.37-.888.791 0 .387.333.59.713.808.825.471.968.791.968 1.162 0 .74-.571 1.211-1.348 1.211-.555.034-1.063-.353-1.285-.724zM239.335 33.25c0-.155.013-.276.027-.414l.448-2.73h-.516l.041-.276.529-.035.231-1.192h.244l-.19 1.192h.896l-.054.311h-.896l-.448 2.747a2.353 2.353 0 00-.027.329c0 .38.108.587.461.587.163 0 .285-.086.394-.155l.081.276c-.135.087-.312.19-.529.19-.516 0-.692-.38-.692-.83zM242.352 29.923h.251l-.118.79h.029c.296-.498.665-.893 1.123-.893.104 0 .207.017.326.069l-.119.344c-.074-.035-.147-.07-.28-.07-.385 0-.843.43-1.153 1.169l-.473 2.748h-.31l.724-4.157zM243.963 32.621c0-1.56 1.185-2.8 2.407-2.8.511 0 .894.268 1.149.653h.037l.182-.553h.31l-.875 4.059h-.328l.109-.638h-.036c-.456.436-1.022.738-1.624.738-.802 0-1.331-.52-1.331-1.459zm3.028.268l.456-2.046c-.329-.52-.675-.738-1.095-.738-1.058 0-2.006 1.208-2.006 2.432 0 .822.383 1.225.985 1.225.583.016 1.149-.302 1.66-.873zM248.96 35.685c.748-.034 1.131-.221 1.131-.51 0-.238-.201-.357-.62-.39l.456-.664c-.784-.102-1.295-.68-1.295-1.615 0-1.598 1.204-2.686 2.389-2.686.511 0 .821.204 1.113.493l-.237.238c-.274-.306-.493-.425-.894-.425-1.003 0-1.97 1.071-1.97 2.33 0 .883.401 1.376 1.222 1.376.438 0 .821-.204 1.149-.425l.201.255c-.328.221-.766.476-1.332.476l-.31.476c.42.102.529.255.529.493-.018.51-.602.782-1.477.799l-.055-.221zM252.134 32.485c0-1.706 1.12-3.063 2.275-3.063.483 0 .845.293 1.086.715h.035l.172-.605h.293l-.827 4.438h-.311l.104-.697h-.035c-.431.477-.965.807-1.534.807-.776 0-1.258-.568-1.258-1.595zm2.861.293l.431-2.237c-.31-.569-.638-.808-1.034-.808-1 0-1.896 1.321-1.896 2.66 0 .899.362 1.339.931 1.339.534.018 1.068-.33 1.568-.954zm-.844-5.08c-.311 0-.5.385-.604.88l-.293-.018c.138-.587.397-1.174.931-1.174.621 0 .655.899 1.138.899.31 0 .5-.404.603-.862l.293.018c-.138.569-.396 1.174-.931 1.174-.603 0-.637-.917-1.137-.917zM256.803 32.47c0-1.526 1.206-2.65 2.49-2.65.973 0 1.595.587 1.595 1.61 0 1.51-1.206 2.65-2.49 2.65-.973 0-1.595-.587-1.595-1.61zm3.657-1.006c0-.872-.447-1.342-1.225-1.342-1.012 0-2.043 1.057-2.043 2.298 0 .872.447 1.358 1.225 1.358 1.012 0 2.043-1.056 2.043-2.314z" fill="#fff"/><path d="M139.491 0H100.97v40.166h38.521V0z" fill="#000"/><path fill-rule="evenodd" clip-rule="evenodd" d="M107.17 18.653V22.2c0 .775.085 1.243.238 1.423.221.27.543.396.968.396h.442v.324h-4.929v-.324h.425c.493 0 .833-.162 1.037-.504.119-.18.17-.63.17-1.315v-7.886c0-.774-.068-1.242-.221-1.422-.221-.27-.544-.396-.986-.396h-.425v-.325h4.215c1.037 0 1.836.109 2.431.343.595.216 1.088.612 1.496 1.134.408.54.612 1.17.612 1.89 0 .99-.306 1.801-.935 2.431-.612.63-1.496.936-2.635.936a5.47 5.47 0 01-.901-.072c-.271-.054-.628-.108-1.002-.18zm0-.522c.306.054.561.108.799.126.237.036.424.036.594.036.595 0 1.105-.234 1.53-.72.425-.486.646-1.098.646-1.873 0-.522-.102-1.026-.306-1.476-.204-.45-.493-.792-.867-1.026-.374-.234-.799-.342-1.275-.342-.289 0-.662.054-1.121.162v5.113zM121.998 12.487v-.316h4.069v.316h-.441c-.457 0-.796.193-1.034.597-.118.175-.186.596-.186 1.262v4.823c0 1.193-.119 2.122-.339 2.771-.238.667-.678 1.228-1.357 1.701-.678.474-1.576.702-2.729.702-1.254 0-2.204-.228-2.848-.684a3.684 3.684 0 01-1.373-1.806c-.186-.527-.271-1.491-.271-2.93v-4.647c0-.736-.102-1.21-.288-1.438-.187-.228-.509-.35-.95-.35h-.44v-.316h4.967v.315h-.441c-.475 0-.814.158-1.017.456-.136.21-.204.65-.204 1.316v5.173c0 .456.034 1 .119 1.579.085.596.237 1.07.441 1.403.22.333.525.614.932.824.407.228.898.333 1.492.333.746 0 1.424-.175 2.017-.508s1-.772 1.221-1.298c.22-.526.322-1.42.322-2.683v-4.806c0-.736-.085-1.21-.238-1.385-.22-.264-.542-.386-.983-.386h-.441v-.018zM136.004 11.617l.259 4.14h-.259c-.361-1.242-.861-2.142-1.515-2.682-.655-.54-1.447-.828-2.377-.828-.775 0-1.481.198-2.101.612-.62.414-1.12 1.062-1.481 1.962-.362.9-.534 2.016-.534 3.348 0 1.098.172 2.07.516 2.88.345.81.844 1.422 1.533 1.854.672.432 1.447.648 2.325.648.758 0 1.43-.162 2.015-.504.586-.342 1.223-1.008 1.912-2.016l.276.18c-.586 1.08-1.275 1.89-2.05 2.376-.775.504-1.705.756-2.773.756-1.929 0-3.427-.756-4.495-2.25-.792-1.116-1.188-2.43-1.188-3.942 0-1.224.258-2.34.775-3.366a5.864 5.864 0 012.153-2.376 5.641 5.641 0 012.996-.846c.844 0 1.671.216 2.498.648.241.126.413.198.516.198a.489.489 0 00.396-.18c.155-.162.259-.378.328-.666h.275v.054zM124.442 25.579c.435 0 .787.092 1.022.278.234.185.351.445.351.778 0 .26-.067.464-.201.63a.961.961 0 01-.569.334l.703 1.223c.067.112.134.204.168.241.05.038.101.075.151.075v.074h-.955v-.075h.033c.034 0 .05-.018.067-.037.017-.018.034-.037.034-.055 0-.019 0-.019-.017-.037 0-.019-.017-.019-.017-.037l-.77-1.335h-1.09v1.224c0 .074.017.13.034.166.017.037.067.056.134.075v.092h-.955V29.1c.084-.018.117-.037.151-.074a.417.417 0 00.033-.166v-2.948a.417.417 0 00-.033-.166c-.017-.037-.067-.056-.151-.075v-.11h1.877v.018zm.184.574h-1.29v.946h1.29c.218 0 .385-.037.486-.112.1-.074.151-.203.151-.37 0-.149-.051-.278-.151-.352-.118-.075-.268-.112-.486-.112zM129.343 28.876c0 .075.021.13.041.168.021.037.082.056.185.075v.093h-1.168v-.093a.407.407 0 00.185-.075.35.35 0 00.041-.168v-2.962a.35.35 0 00-.041-.168c-.021-.037-.082-.055-.185-.074v-.112h1.168v.112a.407.407 0 00-.185.075.35.35 0 00-.041.167v2.962zM133.928 29.212c-.591 0-1.075-.18-1.451-.52a1.706 1.706 0 01-.574-1.306c0-.537.197-.967.574-1.307.376-.34.878-.519 1.469-.519.591 0 1.075.18 1.469.52.377.34.574.787.574 1.306s-.197.966-.574 1.307c-.394.34-.896.519-1.487.519zm-1.362-1.844c0 .412.126.734.377.985.25.25.591.375 1.003.375.412 0 .735-.125.986-.376.25-.25.376-.572.376-.984 0-.394-.126-.716-.376-.966-.251-.251-.592-.358-1.004-.358-.412 0-.752.125-1.003.357-.233.251-.359.573-.359.967z" fill="#fff"/><path d="M59.532 11.563h2.278v.627h-1.606v1.104h1.364v.627h-1.364v1.274h1.662v.628h-2.334v-4.26zM62.45 15.183l.338-.494c.225.275.547.476.853.476.37 0 .564-.201.564-.53 0-.33-.21-.44-.5-.604l-.45-.238c-.322-.164-.66-.493-.66-1.078 0-.658.45-1.152 1.094-1.152.387 0 .741.201.999.53l-.29.457c-.21-.22-.435-.347-.709-.347-.306 0-.515.183-.515.475 0 .33.242.439.515.585l.435.238c.386.201.66.512.66 1.097 0 .658-.434 1.225-1.159 1.225a1.664 1.664 0 01-1.175-.64zM65.368 13.702c0-1.335.772-2.14 1.732-2.14.47 0 .848.239 1.092.513l-.357.475c-.189-.22-.415-.347-.716-.347-.621 0-1.054.567-1.054 1.48 0 .933.414 1.5 1.054 1.5.339 0 .603-.165.81-.42l.357.457c-.3.384-.696.603-1.205.603-.96-.018-1.713-.768-1.713-2.12zM68.286 13.675c0-1.34.708-2.112 1.751-2.112s1.751.79 1.751 2.112c0 1.34-.708 2.148-1.75 2.148-1.024 0-1.752-.808-1.752-2.148zm2.774 0c0-.918-.393-1.488-1.023-1.488-.63 0-1.023.551-1.023 1.488 0 .918.394 1.524 1.023 1.524.63 0 1.023-.606 1.023-1.524zM72.372 11.563h.525v3.632h1.226v.628h-1.75v-4.26zM75.813 11.563h.704l1.107 4.26h-.637l-.52-2.263c-.1-.457-.201-.932-.302-1.408h-.017c-.1.476-.184.951-.301 1.408l-.52 2.263h-.62l1.106-4.26zm-.453 2.51h1.593v.59H75.36v-.59zM59.55 18.257h1.03c1.183 0 1.87.704 1.87 2.111 0 1.408-.706 2.15-1.85 2.15h-1.068v-4.26h.019zm.993 3.652c.782 0 1.22-.495 1.22-1.54 0-1.047-.438-1.503-1.22-1.503h-.306v3.043h.306zM63.033 18.257h2.279v.647h-1.606v1.084h1.363v.646h-1.363v1.256h1.662v.627h-2.335v-4.26zM67.12 18.257h.571l.974 2.397.325.912h.015c-.03-.437-.077-.988-.077-1.464v-1.845h.526v4.26h-.572l-.974-2.396-.325-.913h-.016c.031.457.078.97.078 1.446v1.863h-.526v-4.26zM70.621 18.257H72.9v.647h-1.6v1.084h1.355v.646H71.3v1.256h1.657v.627H70.62v-4.26zM72.955 20.396c0-1.334.766-2.139 1.751-2.139.529 0 .876.256 1.113.512l-.347.476c-.182-.201-.401-.348-.748-.348-.656 0-1.094.567-1.094 1.481 0 .933.383 1.5 1.13 1.5a.84.84 0 00.53-.183v-.878h-.693v-.603h1.276v1.81c-.237.274-.675.493-1.167.493-1.021 0-1.75-.768-1.75-2.12zM76.457 20.416c0-1.31.59-2.065 1.46-2.065.868 0 1.458.772 1.458 2.065 0 1.31-.59 2.101-1.459 2.101-.869.018-1.459-.79-1.459-2.101zm2.312 0c0-.898-.328-1.454-.853-1.454-.525 0-.852.538-.852 1.454 0 .898.328 1.49.852 1.49.525 0 .853-.574.853-1.49zm-1.18-2.55l.786-.826.312.467-.853.718-.246-.359zM80.543 20.396c0-1.334.617-2.139 1.386-2.139.376 0 .677.238.873.512l-.286.476c-.15-.22-.331-.348-.572-.348-.497 0-.844.567-.844 1.481 0 .933.332 1.5.844 1.5.27 0 .482-.165.647-.421l.287.457c-.241.384-.558.603-.964.603-.769 0-1.371-.768-1.371-2.12zM84.045 18.257h-.584v4.26h.584v-4.26zM84.628 20.369c0-1.34.708-2.112 1.75-2.112 1.044 0 1.752.79 1.752 2.112 0 1.34-.708 2.148-1.751 2.148-1.043.018-1.751-.808-1.751-2.148zm2.774 0c0-.918-.394-1.488-1.023-1.488-.63 0-1.023.551-1.023 1.488 0 .918.393 1.524 1.023 1.524.61 0 1.023-.588 1.023-1.524zM88.13 21.877l.422-.493c.282.274.685.475 1.067.475.463 0 .705-.201.705-.53 0-.33-.262-.439-.624-.604l-.564-.237c-.402-.165-.825-.494-.825-1.079 0-.658.563-1.152 1.368-1.152.484 0 .926.201 1.248.53l-.362.458c-.262-.22-.543-.348-.885-.348-.383 0-.645.183-.645.476 0 .329.302.438.645.585l.543.237c.483.201.825.512.825 1.097 0 .659-.543 1.225-1.449 1.225-.564-.036-1.087-.256-1.47-.64zM59.532 24.952h1.315c.925 0 1.603.277 1.603 1.124 0 .815-.678 1.19-1.583 1.19h-.595v1.337h-.74v-3.651zm1.274 1.776c.616 0 .904-.212.904-.668 0-.456-.329-.603-.945-.603h-.514v1.271h.555zM63.033 26.97v-2.018h.55v2.065c0 .785.244 1.041.625 1.041.382 0 .641-.256.641-1.04v-2.066h.519v2.017c0 1.185-.443 1.634-1.16 1.634-.717.016-1.175-.449-1.175-1.634zM65.952 26.785c0-1.144.772-1.833 1.732-1.833.47 0 .847.203 1.092.438l-.358.408a.962.962 0 00-.715-.298c-.622 0-1.055.486-1.055 1.27 0 .799.415 1.285 1.055 1.285.338 0 .602-.142.81-.36l.357.39c-.301.33-.697.518-1.205.518-.96 0-1.713-.643-1.713-1.818zM70.62 26.777h-1.166v.609h1.167v-.609zM71.205 24.952h1.323c.817 0 1.44.26 1.44 1.087 0 .779-.623 1.136-1.44 1.136h-.623v1.428h-.7v-3.651zm1.245 1.687c.544 0 .836-.21.836-.616 0-.422-.292-.568-.836-.568h-.565v1.184h.565zm-.059.341l.506-.39 1.226 1.98h-.778l-.954-1.59zM75.29 24.952h-.584v3.651h.584v-3.651zM75.874 26.762c0-1.15.59-1.81 1.459-1.81.868 0 1.459.676 1.459 1.81 0 1.148-.59 1.841-1.46 1.841-.868 0-1.458-.708-1.458-1.841zm2.311 0c0-.787-.328-1.275-.852-1.275-.525 0-.853.472-.853 1.275 0 .787.328 1.306.853 1.306.524-.016.852-.52.852-1.306zM9.166 8.4c1.41 0 2.477-.99 2.477-2.374 0-1.403-1.05-2.375-2.477-2.375-1.41 0-2.476.954-2.476 2.375C6.707 7.41 7.756 8.4 9.166 8.4zM45.04 25.794h-3.044c-2.063 0-2.768-.612-2.768-1.619 0-.791.326-1.241.825-1.709a6.343 6.343 0 002.305.468c3.611 0 6.483-2.123 6.483-6.08 0-.467-.034-.9-.086-1.313l7.275-5.126-1.72-2.609-6.896 4.84c-.688-.828-1.548-1.512-2.546-1.89-.756-.287-1.599-.431-2.528-.431-3.577 0-6.741 2.302-6.741 6.403 0 1.403.482 2.627 1.152 3.562l-6.346 4.479-.051-6.728c0-4.964-2.098-7.716-6.363-7.716-2.718 0-5.125 1.097-7 2.338l1.48 2.788c1.495-.953 3.095-1.763 4.797-1.763 2.305 0 3.044 1.601 3.096 3.508-3.887.432-6.552 1.241-8.152 2.536l.086-.072-7.171 5.109V10.756H0v3.184h7.515V28.6h3.629l5.28-3.777c.36 2.608 2.287 4.209 4.97 4.209 2.012 0 3.766-1.044 5.297-2.41h.103l.31 1.978h3.284l5.607-3.957c-.018.126-.018.144-.018.27 0 1.439.671 2.374 1.548 2.986v.143c-1.565.99-2.46 2.303-2.46 3.814 0 3.13 3.028 4.659 7.104 4.659 5.572 0 9.097-2.77 9.097-6.296.017-3.112-2.15-4.425-6.225-4.425zm-2.665-12.591c1.668 0 2.958 1.277 2.958 3.507 0 2.267-1.324 3.598-2.958 3.598-1.634 0-2.958-1.331-2.958-3.598 0-2.248 1.29-3.507 2.958-3.507zM26.398 23.815c-1.272 1.223-2.321 1.925-3.714 1.925-1.428 0-2.46-.683-2.46-2.266 0-1.8 1.548-3.058 6.174-3.67v4.011zm16.39 9.948c-2.683 0-4.351-.954-4.351-2.573 0-.827.395-1.619 1.324-2.356.653.18 1.393.252 2.304.252h2.34c1.96 0 3.009.414 3.009 1.78 0 1.547-1.875 2.897-4.626 2.897z" fill="#fff"/></svg>