<svg width="36" height="60" fill="none" xmlns="http://www.w3.org/2000/svg"><path fill-rule="evenodd" clip-rule="evenodd" d="M27.493 15.753l.276.46.705-.092.245.46-.429.552.521.92.706-.092.245.46-.43.552.277.46.675-.398.184-.706.828.123-1.196-2.055-.583.337-.276-.46.583-.337-.399-.675.46-.276.399.675.552-.338.276.46-.552.338 1.196 2.055c.153-.276.153-.522.307-.767l.705.184.675-.399-.245-.46-.706.092-.245-.46.43-.552-.522-.92-.706.092-.245-.46.43-.552-.277-.46-3.864 2.239z" fill="#93938E"/><path d="M27.493 15.753l.276.46.705-.092.245.46-.429.552.521.92.706-.092.245.46-.43.552.277.46.675-.398.184-.706.828.123-1.196-2.055-.583.337-.276-.46.583-.337-.399-.675.46-.276.399.675.552-.338.276.46-.552.338 1.196 2.055c.153-.276.153-.522.307-.767l.705.184.675-.399-.245-.46-.706.092-.245-.46.43-.552-.522-.92-.706.092-.245-.46.43-.552-.277-.46-3.864 2.239z" stroke="#211915" stroke-width=".225" stroke-miterlimit="2.613"/><path fill-rule="evenodd" clip-rule="evenodd" d="M27.462 15.753L7.035 27.56c.307.154.552.368.736.675.552.95.215 2.147-.736 2.699-.767.46-1.748.307-2.362-.307a1.103 1.103 0 01-.306.215 2 2 0 01-2.454-.399l-.184.184c-.246.154-.552.092-.675-.122-.123-.215-.03-.522.215-.645.061-.03.153-.06.245-.091a2.002 2.002 0 01.89-2.331c.122-.062.214-.123.337-.154a1.975 1.975 0 01.92-2.208c.951-.552 2.147-.215 2.7.736.183.307.245.644.214.981l20.458-11.808 5.091-2.945c.675-.398 1.135.4.46.798l-5.122 2.914zM4.857 27.868c-.276-.368-.736-.614-1.257-.644a1.12 1.12 0 01-.092-.46c0-.614.521-1.135 1.135-1.135.613 0 1.134.521 1.134 1.135-.03.521-.398.981-.92 1.104zm.368.613c.184.43.154.951-.061 1.442a.901.901 0 00.368.307 1.114 1.114 0 001.534-.43 1.114 1.114 0 00-.43-1.533c-.49-.276-1.043-.154-1.41.214zm-1.84-.49c-.613 0-1.135.49-1.135 1.134 0 .614.522 1.135 1.135 1.135.614 0 1.135-.49 1.135-1.135 0-.613-.521-1.134-1.135-1.134z" fill="#93938E"/><path d="M27.462 15.753L7.035 27.56c.307.154.552.368.736.675.552.95.215 2.147-.736 2.699-.767.46-1.748.307-2.362-.307a1.103 1.103 0 01-.306.215 2 2 0 01-2.454-.399l-.184.184c-.246.154-.552.092-.675-.122-.123-.215-.03-.522.215-.645.061-.03.153-.06.245-.091a2.002 2.002 0 01.89-2.331c.122-.062.214-.123.337-.154a1.975 1.975 0 01.92-2.208c.951-.552 2.147-.215 2.7.736.183.307.245.644.214.981l20.458-11.808 5.091-2.945c.675-.398 1.135.4.46.798l-5.122 2.914zM4.857 27.868c-.276-.368-.736-.614-1.257-.644a1.12 1.12 0 01-.092-.46c0-.614.521-1.135 1.135-1.135.613 0 1.134.521 1.134 1.135-.03.521-.398.981-.92 1.104zm.368.613c.184.43.154.951-.061 1.442a.901.901 0 00.368.307 1.114 1.114 0 001.534-.43 1.114 1.114 0 00-.43-1.533c-.49-.276-1.043-.154-1.41.214zm-1.84-.49c-.613 0-1.135.49-1.135 1.134 0 .614.522 1.135 1.135 1.135.614 0 1.135-.49 1.135-1.135 0-.613-.521-1.134-1.135-1.134z" stroke="#211915" stroke-width=".225" stroke-miterlimit="2.613"/><path fill-rule="evenodd" clip-rule="evenodd" d="M7.373 25.72a.45.45 0 00-.154.645l.583 1.012c.123.215.43.307.644.184a.45.45 0 00.153-.644l-.582-1.012a.485.485 0 00-.644-.184z" fill="#93938E"/><path d="M7.373 25.72a.45.45 0 00-.154.645l.583 1.012c.123.215.43.307.644.184a.45.45 0 00.153-.644l-.582-1.012a.485.485 0 00-.644-.184z" stroke="#211915" stroke-width=".223" stroke-miterlimit="2.613"/><path fill-rule="evenodd" clip-rule="evenodd" d="M8.477 15.753l-.276.46-.706-.092-.245.46.43.552-.522.92-.706-.092-.245.46.43.552-.277.46-.675-.398-.184-.706-.828.123 1.197-2.055.582.337.276-.46-.582-.337.398-.675-.46-.276-.398.675-.553-.338-.276.46.552.338-1.196 2.055c-.153-.276-.153-.522-.306-.767l-.706.184-.675-.399.276-.46.706.092.245-.46-.43-.552.522-.92.706.092.276-.46-.43-.552.276-.46 3.804 2.239z" fill="#C6BD90"/><path d="M8.477 15.753l-.276.46-.706-.092-.245.46.43.552-.522.92-.706-.092-.245.46.43.552-.277.46-.675-.398-.184-.706-.828.123 1.197-2.055.582.337.276-.46-.582-.337.398-.675-.46-.276-.398.675-.553-.338-.276.46.552.338-1.196 2.055c-.153-.276-.153-.522-.306-.767l-.706.184-.675-.399.276-.46.706.092.245-.46-.43-.552.522-.92.706.092.276-.46-.43-.552.276-.46 3.804 2.239z" stroke="#211915" stroke-width=".225" stroke-miterlimit="2.613"/><path fill-rule="evenodd" clip-rule="evenodd" d="M8.538 15.753L28.965 27.56a1.733 1.733 0 00-.736.675c-.552.95-.215 2.147.736 2.699.767.46 1.748.307 2.362-.307.092.092.184.154.306.215a2 2 0 002.454-.399l.184.184c.245.154.552.092.675-.122.123-.215.03-.522-.215-.645a2.1 2.1 0 00-.245-.091 2.002 2.002 0 00-.89-2.331c-.122-.062-.214-.123-.337-.154a1.975 1.975 0 00-.92-2.208c-.951-.552-2.147-.215-2.7.736a1.595 1.595 0 00-.214.981L8.967 14.986l-5.091-2.945c-.675-.398-1.135.4-.46.798l5.122 2.914zm22.574 12.115c.276-.368.736-.614 1.258-.644.06-.123.092-.307.092-.46 0-.614-.522-1.135-1.135-1.135-.614 0-1.135.521-1.135 1.135.03.521.43.981.92 1.104zm-.337.613c-.184.43-.154.951.06 1.442a.901.901 0 01-.367.307 1.114 1.114 0 01-1.534-.43 1.114 1.114 0 01.43-1.533c.46-.276 1.043-.154 1.41.214zm1.84-.49c.613 0 1.135.49 1.135 1.134 0 .614-.522 1.135-1.135 1.135-.614 0-1.135-.49-1.135-1.135 0-.613.49-1.134 1.135-1.134z" fill="#C6BD90"/><path d="M8.538 15.753L28.965 27.56a1.733 1.733 0 00-.736.675c-.552.95-.215 2.147.736 2.699.767.46 1.748.307 2.362-.307.092.092.184.154.306.215a2 2 0 002.454-.399l.184.184c.245.154.552.092.675-.122.123-.215.03-.522-.215-.645a2.1 2.1 0 00-.245-.091 2.002 2.002 0 00-.89-2.331c-.122-.062-.214-.123-.337-.154a1.975 1.975 0 00-.92-2.208c-.951-.552-2.147-.215-2.7.736a1.595 1.595 0 00-.214.981L8.967 14.986l-5.091-2.945c-.675-.398-1.135.4-.46.798l5.122 2.914zm22.574 12.115c.276-.368.736-.614 1.258-.644.06-.123.092-.307.092-.46 0-.614-.522-1.135-1.135-1.135-.614 0-1.135.521-1.135 1.135.03.521.43.981.92 1.104zm-.337.613c-.184.43-.154.951.06 1.442a.901.901 0 01-.367.307 1.114 1.114 0 01-1.534-.43 1.114 1.114 0 01.43-1.533c.46-.276 1.043-.154 1.41.214zm1.84-.49c.613 0 1.135.49 1.135 1.134 0 .614-.522 1.135-1.135 1.135-.614 0-1.135-.49-1.135-1.135 0-.613.49-1.134 1.135-1.134z" stroke="#211915" stroke-width=".225" stroke-miterlimit="2.613"/><path fill-rule="evenodd" clip-rule="evenodd" d="M28.628 25.72a.45.45 0 01.153.645l-.583 1.012c-.122.215-.43.307-.644.184a.45.45 0 01-.153-.644l.583-1.012c.153-.215.429-.307.644-.184z" fill="#C6BD90"/><path d="M28.628 25.72a.45.45 0 01.153.645l-.583 1.012c-.122.215-.43.307-.644.184a.45.45 0 01-.153-.644l.583-1.012c.153-.215.429-.307.644-.184z" stroke="#211915" stroke-width=".223" stroke-miterlimit="2.613"/><path fill-rule="evenodd" clip-rule="evenodd" d="M17.954 29.555h8.956V16.673H9.03V29.34c0 2.209.276 5.214 2.975 5.95l.95.184c1.596-.06 3.559.829 4.51 2.055l.275.43c.062.092.092.122.123.184.061 0 .092 0 .123.03l.123-.03c.03-.062.06-.092.122-.184l.276-.43c.951-1.227 2.914-2.116 4.509-2.055l.95-.184c2.608-.705 2.945-3.527 2.976-5.704h-8.987v-.031z" fill="#004E96"/><path fill-rule="evenodd" clip-rule="evenodd" d="M17.954 29.555h8.956V16.673H9.03V29.34c0 2.209.276 5.214 2.975 5.95l.95.184c1.596-.06 3.559.829 4.51 2.055l.275.43c.062.092.092.122.123.184.061 0 .092 0 .123.03l.123-.03c.03-.062.06-.092.122-.184l.276-.43c.951-1.227 2.914-2.116 4.509-2.055l.95-.184c2.608-.705 2.945-3.527 2.976-5.704h-8.987v-.031z" fill="#004F97"/><path fill-rule="evenodd" clip-rule="evenodd" d="M17.954 29.555h8.956V16.673H9.03V29.34c0 2.209.276 5.214 2.975 5.95l.95.184c1.596-.06 3.559.829 4.51 2.055l.275.43c.062.092.092.122.123.184.061 0 .092 0 .123.03l.123-.03c.03-.062.06-.092.122-.184l.276-.43c.951-1.227 2.914-2.116 4.509-2.055l.95-.184c2.608-.705 2.945-3.527 2.976-5.704h-8.987v-.031z" fill="#035097"/><path fill-rule="evenodd" clip-rule="evenodd" d="M17.954 29.555h8.956V16.673H9.03V29.34c0 2.209.276 5.214 2.975 5.95l.95.184c1.596-.06 3.559.829 4.51 2.055l.275.43c.062.092.092.122.123.184.061 0 .092 0 .123.03l.123-.03c.03-.062.06-.092.122-.184l.276-.43c.951-1.227 2.914-2.116 4.509-2.055l.95-.184c2.608-.705 2.945-3.527 2.976-5.704h-8.987v-.031z" fill="#005198"/><path fill-rule="evenodd" clip-rule="evenodd" d="M17.953 29.555h8.957v-12.79l-.123-.092H9.12l-.122.092V29.34c0 2.209.276 5.214 2.975 5.95l.95.184c1.595-.06 3.558.829 4.51 2.055l.275.43c.062.092.092.122.123.184.061 0 .092 0 .122.03l.123-.03c.03-.062.062-.092.123-.184l.276-.43c.95-1.227 2.914-2.116 4.509-2.055l.95-.184c2.607-.705 2.945-3.527 2.976-5.704h-8.957v-.031z" fill="#155198"/><path fill-rule="evenodd" clip-rule="evenodd" d="M17.954 29.555h8.956V16.918c-.123-.092-.215-.153-.337-.245H9.366c-.122.061-.215.153-.337.245V29.34c0 2.209.276 5.214 2.975 5.95l.95.184c1.596-.06 3.559.829 4.51 2.055l.275.43c.062.092.092.122.123.184.061 0 .092 0 .123.03l.123-.03c.03-.062.06-.092.122-.184l.276-.43c.951-1.227 2.914-2.116 4.509-2.055l.95-.184c2.608-.705 2.945-3.527 2.976-5.704h-8.987v-.031z" fill="#1D5399"/><path fill-rule="evenodd" clip-rule="evenodd" d="M17.954 29.555h8.956V17.072c-.184-.123-.368-.276-.552-.399H9.612c-.184.123-.368.245-.552.399V29.34c0 2.209.276 5.214 2.975 5.95l.95.184c1.595-.06 3.558.829 4.51 2.055l.275.43c.061.092.092.122.123.184.061 0 .092 0 .123.03l.122-.03c.03-.062.062-.092.123-.184l.276-.43c.95-1.227 2.914-2.116 4.509-2.055l.95-.184c2.608-.705 2.945-3.527 2.976-5.704h-9.018v-.031z" fill="#235399"/><path fill-rule="evenodd" clip-rule="evenodd" d="M17.954 29.555h8.956v-12.33c-.245-.184-.521-.368-.797-.552H9.826c-.276.184-.552.368-.797.552V29.34c0 2.209.276 5.214 2.975 5.95l.95.184c1.596-.06 3.559.829 4.51 2.055l.275.43c.062.092.092.122.123.184.061 0 .092 0 .123.03l.123-.03c.03-.062.06-.092.122-.184l.276-.43c.951-1.227 2.914-2.116 4.509-2.055l.95-.184c2.608-.705 2.945-3.527 2.976-5.704h-8.987v-.031z" fill="#23559B"/><path fill-rule="evenodd" clip-rule="evenodd" d="M17.953 29.555h8.957V17.378c-.338-.245-.675-.49-1.043-.705H10.04c-.368.215-.705.46-1.042.705V29.34c0 2.209.276 5.214 2.975 5.95l.95.184c1.595-.06 3.558.829 4.51 2.055l.275.43c.062.092.092.122.123.184.061 0 .092 0 .122.03l.123-.03c.03-.062.062-.092.123-.184l.276-.43c.95-1.227 2.914-2.116 4.509-2.055l.95-.184c2.607-.705 2.945-3.527 2.976-5.704h-8.957v-.031z" fill="#28579C"/><path fill-rule="evenodd" clip-rule="evenodd" d="M17.953 29.555h8.957V17.532a13.413 13.413 0 00-1.289-.859H10.286c-.43.276-.859.552-1.288.859V29.34c0 2.209.276 5.214 2.975 5.95l.95.184c1.595-.06 3.558.829 4.51 2.055l.275.43c.062.092.092.122.123.184.061 0 .092 0 .122.03l.123-.03c.03-.062.062-.092.123-.184l.276-.43c.95-1.227 2.914-2.116 4.509-2.055l.95-.184c2.607-.705 2.945-3.527 2.976-5.704h-8.957v-.031z" fill="#2D579C"/><path fill-rule="evenodd" clip-rule="evenodd" d="M17.953 29.555h8.957v-11.87c-.491-.368-.982-.705-1.534-1.012H10.531a16.55 16.55 0 00-1.533 1.012V29.34c0 2.209.276 5.214 2.975 5.95l.95.184c1.595-.06 3.558.829 4.51 2.055l.275.43c.062.092.092.122.123.184.061 0 .092 0 .122.03l.123-.03c.03-.062.062-.092.123-.184l.276-.43c.95-1.227 2.914-2.116 4.509-2.055l.95-.184c2.607-.705 2.945-3.527 2.976-5.704h-8.957v-.031z" fill="#31599D"/><path fill-rule="evenodd" clip-rule="evenodd" d="M17.954 29.555h8.956V17.839a13.658 13.658 0 00-1.779-1.166H10.808c-.614.337-1.227.736-1.78 1.166V29.34c0 2.209.277 5.214 2.976 5.95l.95.184c1.596-.06 3.559.829 4.51 2.055l.275.43c.062.092.092.122.123.184.061 0 .092 0 .123.03l.123-.03c.03-.062.06-.092.122-.184l.276-.43c.951-1.227 2.914-2.116 4.509-2.055l.95-.184c2.608-.705 2.945-3.527 2.976-5.704h-8.987v-.031z" fill="#35599D"/><path fill-rule="evenodd" clip-rule="evenodd" d="M17.953 29.555h8.957V18.023c-.645-.491-1.32-.951-2.055-1.32H11.052c-.705.4-1.41.829-2.054 1.32V29.34c0 2.209.276 5.214 2.975 5.95l.95.184c1.595-.061 3.558.829 4.51 2.055l.275.43c.062.092.092.122.123.184.061 0 .092 0 .122.03l.123-.03c.03-.062.062-.092.123-.184l.276-.43c.95-1.227 2.914-2.116 4.509-2.055l.95-.184c2.607-.705 2.945-3.527 2.976-5.704h-8.957v-.031z" fill="#355A9E"/><path fill-rule="evenodd" clip-rule="evenodd" d="M17.954 29.555h8.956V18.176a16.473 16.473 0 00-2.3-1.503H11.33c-.829.43-1.596.92-2.301 1.503V29.34c0 2.209.276 5.214 2.975 5.95l.95.184c1.596-.06 3.559.829 4.51 2.055l.275.43c.062.092.092.122.123.184.061 0 .092 0 .123.03l.123-.03c.03-.062.06-.092.122-.184l.276-.43c.951-1.227 2.914-2.116 4.509-2.055l.95-.184c2.608-.705 2.945-3.527 2.976-5.704h-8.987v-.031z" fill="#385B9E"/><path fill-rule="evenodd" clip-rule="evenodd" d="M17.953 29.555h8.957V18.33a13.424 13.424 0 00-2.608-1.657H11.605a14.42 14.42 0 00-2.607 1.656V29.34c0 2.209.276 5.214 2.975 5.95l.95.184c1.595-.06 3.558.829 4.51 2.055l.275.43c.062.092.092.122.123.184.061 0 .092 0 .122.03l.123-.03c.03-.062.062-.092.123-.184l.276-.43c.95-1.227 2.914-2.116 4.509-2.055l.95-.184c2.607-.705 2.945-3.527 2.976-5.704h-8.957v-.031z" fill="#3B5D9F"/><path fill-rule="evenodd" clip-rule="evenodd" d="M17.954 29.555h8.956V18.483a14.71 14.71 0 00-2.883-1.81H11.912a14.71 14.71 0 00-2.883 1.81V29.34c0 2.209.276 5.214 2.975 5.95l.95.184c1.596-.06 3.559.829 4.51 2.055l.275.43c.062.092.092.122.123.184.061 0 .092 0 .123.03l.123-.03c.03-.062.06-.092.122-.184l.276-.43c.951-1.227 2.914-2.116 4.509-2.055l.95-.184c2.608-.705 2.945-3.527 2.976-5.704h-8.987v-.031z" fill="#3E5D9F"/><path fill-rule="evenodd" clip-rule="evenodd" d="M17.953 29.555h8.957V18.667a12.582 12.582 0 00-3.19-1.963H12.187c-1.165.521-2.208 1.196-3.19 1.963V29.34c0 2.209.277 5.214 2.976 5.95l.95.184c1.595-.061 3.558.829 4.51 2.055l.275.43c.062.092.092.122.123.184.061 0 .092 0 .122.03l.123-.03c.03-.062.062-.092.123-.184l.276-.43c.95-1.227 2.914-2.116 4.509-2.055l.95-.184c2.607-.705 2.945-3.527 2.976-5.704h-8.957v-.031z" fill="#415FA1"/><path fill-rule="evenodd" clip-rule="evenodd" d="M17.954 29.555h8.956V18.82a14.47 14.47 0 00-3.496-2.147H12.525A13.57 13.57 0 009.03 18.82v10.52c0 2.209.276 5.214 2.975 5.95l.95.184c1.596-.06 3.559.829 4.51 2.055l.275.43c.062.092.092.122.123.184.061 0 .092 0 .123.03l.123-.03c.03-.062.06-.092.122-.184l.276-.43c.951-1.227 2.914-2.116 4.509-2.055l.95-.184c2.608-.705 2.945-3.527 2.976-5.704h-8.987v-.031z" fill="#4160A1"/><path fill-rule="evenodd" clip-rule="evenodd" d="M17.953 29.555h8.957V18.973a13.86 13.86 0 00-3.834-2.3H12.83a13.86 13.86 0 00-3.833 2.3V29.34c0 2.209.276 5.214 2.975 5.95l.95.184c1.595-.06 3.558.829 4.51 2.055l.275.43c.062.092.092.122.123.184.061 0 .092 0 .122.03l.123-.03c.03-.062.062-.092.123-.184l.276-.43c.95-1.227 2.914-2.116 4.509-2.055l.95-.184c2.607-.705 2.945-3.527 2.976-5.704h-8.957v-.031z" fill="#4461A2"/><path fill-rule="evenodd" clip-rule="evenodd" d="M17.954 29.555h8.956V19.157c-1.227-1.043-2.638-1.901-4.171-2.453H13.2a14.246 14.246 0 00-4.171 2.453V29.34c0 2.209.276 5.214 2.975 5.95l.95.184c1.596-.061 3.559.829 4.51 2.055l.275.43c.062.092.092.122.123.184.061 0 .092 0 .123.03l.123-.03c.03-.062.06-.092.122-.184l.276-.43c.951-1.227 2.914-2.116 4.509-2.055l.95-.184c2.608-.705 2.945-3.527 2.976-5.704h-8.987v-.031z" fill="#4762A3"/><path fill-rule="evenodd" clip-rule="evenodd" d="M17.954 29.555h8.956V19.31a13.468 13.468 0 00-4.54-2.637H13.6c-1.687.583-3.251 1.472-4.54 2.638v10.03c0 2.207.277 5.213 2.976 5.95l.95.183c1.595-.06 3.558.829 4.51 2.055l.275.43c.061.092.092.122.123.184.061 0 .092 0 .123.03l.122-.03c.03-.062.062-.092.123-.184l.276-.43c.95-1.227 2.914-2.116 4.509-2.055l.95-.184c2.608-.705 2.945-3.527 2.976-5.704h-9.018v-.031z" fill="#4963A3"/><path fill-rule="evenodd" clip-rule="evenodd" d="M17.953 29.555h8.957V19.495a13.04 13.04 0 00-4.97-2.791h-7.974a13.458 13.458 0 00-4.968 2.79v9.816c0 2.208.276 5.214 2.975 5.95l.95.184c1.595-.062 3.558.828 4.51 2.055l.275.43c.062.091.092.122.123.183.061 0 .092 0 .122.03l.123-.03c.03-.061.062-.092.123-.184l.276-.43c.95-1.226 2.914-2.116 4.509-2.054l.95-.184c2.607-.706 2.945-3.527 2.976-5.705h-8.957z" fill="#4964A4"/><path fill-rule="evenodd" clip-rule="evenodd" d="M17.954 29.555h8.956v-9.907c-1.533-1.38-3.374-2.423-5.398-2.975h-7.054a12.954 12.954 0 00-5.398 2.975v9.692c0 2.209.276 5.214 2.975 5.95l.95.184c1.595-.06 3.558.829 4.51 2.055l.275.43c.061.092.092.122.123.184.061 0 .092 0 .123.03l.122-.03c.03-.062.062-.092.123-.184l.276-.43c.95-1.227 2.914-2.116 4.509-2.055l.95-.184c2.608-.705 2.945-3.527 2.976-5.704h-9.018v-.031z" fill="#4C64A4"/><path fill-rule="evenodd" clip-rule="evenodd" d="M17.954 29.555h8.956V19.832a13.32 13.32 0 00-5.92-3.128h-6.042a13.32 13.32 0 00-5.92 3.128v9.508c0 2.209.277 5.214 2.976 5.95l.95.184c1.596-.061 3.559.829 4.51 2.055l.275.43c.062.092.092.122.123.184.061 0 .092 0 .123.03l.123-.03c.03-.062.06-.092.122-.184l.276-.43c.951-1.227 2.914-2.116 4.509-2.055l.95-.184c2.608-.705 2.945-3.527 2.976-5.704h-8.987v-.031z" fill="#4E66A5"/><path fill-rule="evenodd" clip-rule="evenodd" d="M17.954 29.555h8.956V19.985c-1.779-1.656-4.049-2.852-6.533-3.312h-4.815c-2.515.46-4.754 1.656-6.533 3.313v9.354c0 2.209.276 5.214 2.975 5.95l.95.184c1.596-.06 3.559.829 4.51 2.055l.275.43c.062.092.092.122.123.184.061 0 .092 0 .123.03l.123-.03c.03-.062.06-.092.122-.184l.276-.43c.951-1.227 2.914-2.116 4.509-2.055l.95-.184c2.608-.705 2.945-3.527 2.976-5.704h-8.987v-.031z" fill="#5168A6"/><path fill-rule="evenodd" clip-rule="evenodd" d="M17.954 29.555h8.956V20.17a13.052 13.052 0 00-7.361-3.497h-3.16a12.67 12.67 0 00-7.36 3.497v9.17c0 2.209.276 5.214 2.975 5.95l.95.184c1.596-.06 3.559.829 4.51 2.055l.275.43c.062.092.092.122.123.184.061 0 .092 0 .123.03l.123-.03c.03-.062.06-.092.122-.184l.276-.43c.951-1.227 2.914-2.116 4.509-2.055l.95-.184c2.608-.705 2.945-3.527 2.976-5.704h-8.987v-.031z" fill="#5368A6"/><path fill-rule="evenodd" clip-rule="evenodd" d="M17.953 29.555h8.957v-9.202a12.79 12.79 0 00-8.957-3.619c-3.465 0-6.624 1.38-8.955 3.62v8.986c0 2.208.276 5.214 2.975 5.95l.95.184c1.595-.061 3.558.829 4.51 2.055l.275.43c.062.092.092.122.123.184.061 0 .092 0 .122.03l.123-.03c.03-.062.062-.092.123-.184l.276-.43c.95-1.227 2.914-2.116 4.509-2.055l.95-.184c2.607-.705 2.945-3.527 2.976-5.704h-8.957v-.031z" fill="#536AA7"/><path fill-rule="evenodd" clip-rule="evenodd" d="M17.953 29.555h8.957v-9.048c-2.3-2.27-5.46-3.68-8.957-3.68-3.496 0-6.655 1.41-8.955 3.68v8.833c0 2.209.276 5.214 2.975 5.95l.95.184c1.595-.06 3.558.829 4.51 2.056l.275.429c.062.092.092.122.123.184.061 0 .092 0 .122.03l.123-.03c.03-.062.062-.092.123-.184l.276-.43c.95-1.226 2.914-2.116 4.509-2.055l.95-.183c2.607-.706 2.945-3.528 2.976-5.705h-8.957v-.031z" fill="#556AA7"/><path fill-rule="evenodd" clip-rule="evenodd" d="M17.953 29.555h8.957V20.69a12.582 12.582 0 00-8.957-3.741c-3.496 0-6.655 1.441-8.955 3.742v8.65c0 2.207.276 5.213 2.975 5.95l.95.183c1.595-.061 3.558.829 4.51 2.055l.275.43c.062.092.092.122.123.184.061 0 .092 0 .122.03l.123-.03c.03-.062.062-.092.123-.184l.276-.43c.95-1.227 2.914-2.116 4.509-2.055l.95-.184c2.607-.705 2.945-3.527 2.976-5.704h-8.957v-.031z" fill="#576CA8"/><path fill-rule="evenodd" clip-rule="evenodd" d="M17.953 29.555h8.957v-8.68c-2.27-2.331-5.43-3.803-8.957-3.803a12.388 12.388 0 00-8.955 3.803v8.465c0 2.209.276 5.214 2.975 5.95l.95.184c1.595-.06 3.558.829 4.51 2.056l.275.429c.062.092.092.122.123.184.061 0 .092 0 .122.03l.123-.03c.03-.062.062-.092.123-.184l.276-.43c.95-1.226 2.914-2.116 4.509-2.055l.95-.183c2.607-.706 2.945-3.528 2.976-5.705h-8.957v-.031z" fill="#596CA8"/><path fill-rule="evenodd" clip-rule="evenodd" d="M17.953 29.555h8.957V21.059a12.311 12.311 0 00-8.957-3.834c-3.527 0-6.686 1.472-8.955 3.834v8.281c0 2.209.276 5.214 2.975 5.95l.95.184c1.595-.06 3.558.829 4.51 2.055l.275.43c.062.092.092.122.123.184.061 0 .092 0 .122.03l.123-.03c.03-.062.062-.092.123-.184l.276-.43c.95-1.226 2.914-2.116 4.509-2.055l.95-.184c2.607-.705 2.945-3.527 2.976-5.704h-8.957v-.031z" fill="#5C6EAA"/><path fill-rule="evenodd" clip-rule="evenodd" d="M17.953 29.555h8.957V21.243c-2.24-2.392-5.399-3.895-8.957-3.895a12.247 12.247 0 00-8.955 3.895v8.097c0 2.208.276 5.214 2.975 5.95l.95.184c1.595-.061 3.558.828 4.51 2.055l.275.43c.062.092.092.122.123.184.061 0 .092 0 .122.03l.123-.03c.03-.062.062-.092.123-.184l.276-.43c.95-1.227 2.914-2.116 4.509-2.055l.95-.184c2.607-.705 2.945-3.527 2.976-5.704h-8.957v-.031z" fill="#5C6EAA"/><path fill-rule="evenodd" clip-rule="evenodd" d="M17.953 29.555h8.957v-8.128a12.084 12.084 0 00-8.957-3.957 12.084 12.084 0 00-8.955 3.957v7.913c0 2.208.276 5.214 2.975 5.95l.95.184c1.595-.061 3.558.828 4.51 2.055l.275.43c.062.092.092.122.123.184.061 0 .092 0 .122.03l.123-.03c.03-.062.062-.092.123-.184l.276-.43c.95-1.227 2.914-2.116 4.509-2.055l.95-.184c2.607-.705 2.945-3.527 2.976-5.704h-8.957v-.031z" fill="#5F71AC"/><path fill-rule="evenodd" clip-rule="evenodd" d="M17.953 29.555h8.957V21.61c-2.178-2.484-5.399-4.018-8.957-4.018-3.557 0-6.747 1.564-8.955 4.018v7.73c0 2.207.276 5.213 2.975 5.95l.95.183c1.595-.06 3.558.829 4.51 2.055l.275.43c.062.092.092.122.123.184.061 0 .092 0 .122.03l.123-.03c.03-.062.062-.092.123-.184l.276-.43c.95-1.226 2.914-2.116 4.509-2.055l.95-.184c2.607-.705 2.945-3.527 2.976-5.704h-8.957v-.031z" fill="#6173AD"/><path fill-rule="evenodd" clip-rule="evenodd" d="M17.953 29.555h8.957v-7.76a11.77 11.77 0 00-8.957-4.08c-3.588 0-6.778 1.596-8.955 4.08v7.545c0 2.208.276 5.214 2.975 5.95l.95.184c1.595-.061 3.558.828 4.51 2.055l.275.43c.062.092.092.122.123.184.061 0 .092 0 .122.03l.123-.03c.03-.062.062-.092.123-.184l.276-.43c.95-1.227 2.914-2.116 4.509-2.055l.95-.184c2.607-.705 2.945-3.527 2.976-5.705h-8.957v-.03z" fill="#6373AD"/><path fill-rule="evenodd" clip-rule="evenodd" d="M17.953 29.555h8.957V22.01a11.7 11.7 0 00-17.912 0v7.33c0 2.209.276 5.214 2.975 5.95l.95.184c1.595-.06 3.558.829 4.51 2.055l.275.43c.062.092.092.122.123.184.061 0 .092 0 .122.03l.123-.03c.03-.062.062-.092.123-.184l.276-.43c.95-1.226 2.914-2.116 4.509-2.055l.95-.184c2.607-.705 2.945-3.527 2.976-5.704h-8.957v-.031z" fill="#6374AE"/><path fill-rule="evenodd" clip-rule="evenodd" d="M17.953 29.555h8.957v-7.361a11.56 11.56 0 00-8.957-4.233c-3.619 0-6.808 1.656-8.955 4.233v7.146c0 2.209.276 5.214 2.975 5.95l.95.184c1.595-.06 3.558.829 4.51 2.055l.275.43c.062.092.092.122.123.184.061 0 .092 0 .122.03l.123-.03c.03-.062.062-.092.123-.184l.276-.43c.95-1.226 2.914-2.116 4.509-2.055l.95-.184c2.607-.705 2.945-3.527 2.976-5.704h-8.957v-.031z" fill="#6575AF"/><path fill-rule="evenodd" clip-rule="evenodd" d="M17.953 29.555h8.957v-7.146c-2.086-2.638-5.337-4.294-8.957-4.294-3.619 0-6.84 1.686-8.955 4.294v6.931c0 2.209.276 5.214 2.975 5.95l.95.184c1.595-.061 3.558.829 4.51 2.055l.275.43c.062.092.092.122.123.184.061 0 .092 0 .122.03l.123-.03c.03-.062.062-.092.123-.184l.276-.43c.95-1.227 2.914-2.116 4.509-2.055l.95-.184c2.607-.705 2.945-3.527 2.976-5.704h-8.957v-.031z" fill="#6777B0"/><path fill-rule="evenodd" clip-rule="evenodd" d="M17.953 29.555h8.957v-6.962c-2.086-2.669-5.307-4.387-8.957-4.387-3.65 0-6.87 1.718-8.955 4.387v6.747c0 2.209.276 5.214 2.975 5.95l.95.184c1.595-.06 3.558.829 4.51 2.055l.275.43c.062.092.092.122.123.184.061 0 .092 0 .122.03l.123-.03c.03-.062.062-.092.123-.184l.276-.43c.95-1.227 2.914-2.116 4.509-2.055l.95-.184c2.607-.705 2.945-3.527 2.976-5.704h-8.957v-.031z" fill="#6977B0"/><path fill-rule="evenodd" clip-rule="evenodd" d="M17.953 29.555h8.957v-6.748a11.243 11.243 0 00-8.957-4.447c-3.65 0-6.9 1.748-8.955 4.447v6.533c0 2.209.276 5.214 2.975 5.95l.95.184c1.595-.061 3.558.829 4.51 2.055l.275.43c.062.092.092.122.123.184.061 0 .092 0 .122.03l.123-.03c.03-.062.062-.092.123-.184l.276-.43c.95-1.227 2.914-2.116 4.509-2.055l.95-.184c2.607-.705 2.945-3.527 2.976-5.704h-8.957v-.031z" fill="#6B79B1"/><path fill-rule="evenodd" clip-rule="evenodd" d="M17.953 29.555h8.957v-6.533a11.065 11.065 0 00-8.957-4.54c-3.68 0-6.931 1.78-8.955 4.54v6.318c0 2.209.276 5.214 2.975 5.95l.95.184c1.595-.06 3.558.829 4.51 2.056l.275.429c.062.092.092.122.123.184.061 0 .092 0 .122.03l.123-.03c.03-.062.062-.092.123-.184l.276-.43c.95-1.226 2.914-2.116 4.509-2.055l.95-.183c2.607-.706 2.945-3.528 2.976-5.705h-8.957v-.031z" fill="#6B7BB2"/><path fill-rule="evenodd" clip-rule="evenodd" d="M17.953 29.555h8.957V23.237c-1.994-2.791-5.245-4.632-8.957-4.632-3.71 0-6.962 1.84-8.955 4.632v6.103c0 2.209.276 5.214 2.975 5.95l.95.184c1.595-.061 3.558.829 4.51 2.055l.275.43c.062.092.092.122.123.184.061 0 .092 0 .122.03l.123-.03c.03-.062.062-.092.123-.184l.276-.43c.95-1.227 2.914-2.116 4.509-2.055l.95-.184c2.607-.705 2.945-3.527 2.976-5.704h-8.957v-.031z" fill="#6D7BB2"/><path fill-rule="evenodd" clip-rule="evenodd" d="M17.953 29.555h8.957V23.45c-1.963-2.852-5.215-4.723-8.957-4.723-3.71 0-6.992 1.87-8.955 4.723v5.89c0 2.207.276 5.213 2.975 5.95l.95.183c1.595-.061 3.558.829 4.51 2.055l.275.43c.062.092.092.122.123.184.061 0 .092 0 .122.03l.123-.03c.03-.062.062-.092.123-.184l.276-.43c.95-1.227 2.914-2.116 4.509-2.055l.95-.184c2.607-.705 2.945-3.527 2.976-5.704h-8.957v-.031z" fill="#6F7DB4"/><path fill-rule="evenodd" clip-rule="evenodd" d="M17.953 29.555h8.957V23.697a10.694 10.694 0 00-8.957-4.846c-3.741 0-7.023 1.932-8.955 4.846v5.643c0 2.209.276 5.214 2.975 5.95l.95.184c1.595-.06 3.558.829 4.51 2.056l.275.429c.062.092.092.122.123.184.061 0 .092 0 .122.03l.123-.03c.03-.062.062-.092.123-.184l.276-.43c.95-1.226 2.914-2.116 4.509-2.055l.95-.183c2.607-.706 2.945-3.528 2.976-5.705h-8.957v-.031z" fill="#717FB5"/><path fill-rule="evenodd" clip-rule="evenodd" d="M17.953 29.555h8.957V23.91a10.553 10.553 0 00-8.957-4.938 10.553 10.553 0 00-8.955 4.938v5.43c0 2.207.276 5.213 2.975 5.95l.95.183c1.595-.061 3.558.829 4.51 2.055l.275.43c.062.092.092.122.123.184.061 0 .092 0 .122.03l.123-.03c.03-.062.062-.092.123-.184l.276-.43c.95-1.227 2.914-2.116 4.509-2.055l.95-.184c2.607-.705 2.945-3.527 2.976-5.704h-8.957v-.031z" fill="#7280B5"/><path fill-rule="evenodd" clip-rule="evenodd" d="M17.953 29.555h8.957v-5.398c-1.84-3.037-5.153-5.06-8.957-5.06-3.803 0-7.115 2.023-8.955 5.06v5.183c0 2.209.276 5.214 2.975 5.95l.95.184c1.595-.06 3.558.829 4.51 2.055l.275.43c.062.092.092.122.123.184.061 0 .092 0 .122.03l.123-.03c.03-.062.062-.092.123-.184l.276-.43c.95-1.226 2.914-2.116 4.509-2.055l.95-.184c2.607-.705 2.945-3.527 2.976-5.704h-8.957v-.031z" fill="#7280B5"/><path fill-rule="evenodd" clip-rule="evenodd" d="M17.953 29.555h8.957V24.402a10.313 10.313 0 00-8.957-5.183 10.313 10.313 0 00-8.955 5.183v4.908c0 2.208.276 5.214 2.975 5.95l.95.184c1.595-.062 3.558.828 4.51 2.055l.275.43c.062.091.092.122.123.183.061 0 .092 0 .122.03l.123-.03c.03-.061.062-.092.123-.184l.276-.43c.95-1.226 2.914-2.115 4.509-2.054l.95-.184c2.607-.706 2.945-3.527 2.976-5.705h-8.957z" fill="#7482B7"/><path fill-rule="evenodd" clip-rule="evenodd" d="M17.953 29.555h8.957V24.647a10.188 10.188 0 00-8.957-5.306c-3.864 0-7.207 2.147-8.955 5.306v4.693c0 2.208.276 5.214 2.975 5.95l.95.184c1.595-.061 3.558.829 4.51 2.055l.275.43c.062.092.092.122.123.184.061 0 .092 0 .122.03l.123-.03c.03-.062.062-.092.123-.184l.276-.43c.95-1.227 2.914-2.116 4.509-2.055l.95-.184c2.607-.705 2.945-3.527 2.976-5.704h-8.957v-.031z" fill="#7684B8"/><path fill-rule="evenodd" clip-rule="evenodd" d="M17.953 29.555h8.957v-4.632c-1.687-3.25-5.061-5.459-8.957-5.459-3.895 0-7.268 2.208-8.955 5.46v4.416c0 2.208.276 5.214 2.975 5.95l.95.184c1.595-.061 3.558.829 4.51 2.055l.275.43c.062.092.092.122.123.184.061 0 .092 0 .122.03l.123-.03c.03-.062.062-.092.123-.184l.276-.43c.95-1.227 2.914-2.116 4.509-2.055l.95-.184c2.607-.705 2.945-3.527 2.976-5.704h-8.957v-.031z" fill="#7884B8"/><path fill-rule="evenodd" clip-rule="evenodd" d="M17.953 29.555h8.957V25.2c-1.626-3.313-5-5.613-8.957-5.613-3.925 0-7.33 2.3-8.955 5.613v4.14c0 2.209.276 5.214 2.975 5.95l.95.184c1.595-.06 3.558.829 4.51 2.055l.275.43c.062.092.092.122.123.184.061 0 .092 0 .122.03l.123-.03c.03-.062.062-.092.123-.184l.276-.43c.95-1.226 2.914-2.116 4.509-2.055l.95-.184c2.607-.705 2.945-3.527 2.976-5.704h-8.957v-.031z" fill="#7886B9"/><path fill-rule="evenodd" clip-rule="evenodd" d="M17.953 29.555h8.957V25.506a9.808 9.808 0 00-8.957-5.766c-3.987 0-7.391 2.362-8.955 5.766v3.834c0 2.209.276 5.214 2.975 5.95l.95.184c1.595-.06 3.558.829 4.51 2.055l.275.43c.062.092.092.122.123.184.061 0 .092 0 .122.03l.123-.03c.03-.062.062-.092.123-.184l.276-.43c.95-1.227 2.914-2.116 4.509-2.055l.95-.184c2.607-.705 2.945-3.527 2.976-5.704h-8.957v-.031z" fill="#7A86B9"/><path fill-rule="evenodd" clip-rule="evenodd" d="M17.953 29.555h8.957v-3.742c-1.473-3.497-4.908-5.95-8.957-5.95-4.017 0-7.483 2.453-8.955 5.95v3.527c0 2.208.276 5.214 2.975 5.95l.95.184c1.595-.061 3.558.828 4.51 2.055l.275.43c.062.092.092.122.123.184.061 0 .092 0 .122.03l.123-.03c.03-.062.062-.092.123-.184l.276-.43c.95-1.227 2.914-2.116 4.509-2.055l.95-.184c2.607-.705 2.945-3.527 2.976-5.705h-8.957v-.03z" fill="#7C88BB"/><path fill-rule="evenodd" clip-rule="evenodd" d="M17.953 29.555h8.957V26.15a9.549 9.549 0 00-8.957-6.165c-4.079 0-7.575 2.577-8.955 6.165v3.19c0 2.209.276 5.214 2.975 5.95l.95.184c1.595-.06 3.558.829 4.51 2.055l.275.43c.062.092.092.122.123.184.061 0 .092 0 .122.03l.123-.03c.03-.062.062-.092.123-.184l.276-.43c.95-1.227 2.914-2.116 4.509-2.055l.95-.184c2.607-.705 2.945-3.527 2.976-5.704h-8.957v-.031z" fill="#7E8ABC"/><path fill-rule="evenodd" clip-rule="evenodd" d="M17.953 29.555h8.957v-3.036a9.42 9.42 0 00-8.957-6.41 9.46 9.46 0 00-8.955 6.41v2.79c0 2.209.276 5.215 2.975 5.95l.95.185c1.595-.062 3.558.828 4.51 2.055l.275.43c.062.091.092.122.123.183.061 0 .092 0 .122.03l.123-.03c.03-.061.062-.092.123-.184l.276-.43c.95-1.226 2.914-2.115 4.509-2.054l.95-.184c2.607-.706 2.945-3.527 2.976-5.705h-8.957z" fill="#808BBC"/><path fill-rule="evenodd" clip-rule="evenodd" d="M17.953 29.555h8.957v-2.607a9.302 9.302 0 00-8.957-6.717c-4.232 0-7.82 2.852-8.955 6.717v2.361c0 2.209.276 5.214 2.975 5.95l.95.185c1.595-.062 3.558.828 4.51 2.055l.275.429c.062.092.092.123.123.184.061 0 .092 0 .122.03l.123-.03c.03-.061.062-.092.123-.184l.276-.43c.95-1.226 2.914-2.116 4.509-2.054l.95-.184c2.607-.706 2.945-3.528 2.976-5.705h-8.957z" fill="#808BBC"/><path fill-rule="evenodd" clip-rule="evenodd" d="M17.953 29.555h8.957v-2.116a9.18 9.18 0 00-8.957-7.086c-4.355 0-8.005 3.037-8.955 7.085v1.871c0 2.209.276 5.214 2.975 5.95l.95.185c1.595-.062 3.558.828 4.51 2.055l.275.429c.062.092.092.123.123.184.061 0 .092 0 .122.03l.123-.03c.03-.061.062-.092.123-.184l.276-.43c.95-1.226 2.914-2.116 4.509-2.054l.95-.184c2.607-.706 2.945-3.528 2.976-5.705h-8.957z" fill="#828DBE"/><path fill-rule="evenodd" clip-rule="evenodd" d="M17.953 29.555h8.957V28.113a9.05 9.05 0 00-8.957-7.637c-4.508 0-8.25 3.313-8.955 7.637v1.197c0 .92.06 1.993.306 2.944.154.49.368.981.583 1.442.43.705 1.104 1.288 2.086 1.564l.95.184c1.595-.062 3.558.828 4.51 2.055l.275.43c.062.091.092.122.123.183.061 0 .092 0 .122.03l.123-.03c.03-.061.062-.092.123-.184l.276-.43c.95-1.226 2.914-2.116 4.509-2.054l.95-.184a3.527 3.527 0 002.086-1.534c.245-.46.43-.95.614-1.472.214-.89.276-1.84.306-2.7h-8.987z" fill="#848FBF"/><path fill-rule="evenodd" clip-rule="evenodd" d="M17.954 29.555h8.925a8.914 8.914 0 00-8.925-8.925 8.914 8.914 0 00-8.925 8.925c0 1.779.521 3.435 1.41 4.846.4.399.89.705 1.534.859l.951.184c1.595-.062 3.558.828 4.509 2.055l.276.43c.061.091.092.122.122.183.062 0 .093 0 .123.03l.123-.03c.03-.061.061-.092.122-.184l.276-.43c.951-1.226 2.914-2.115 4.51-2.054l.95-.184a3.714 3.714 0 001.534-.859 8.973 8.973 0 001.41-4.846h-8.925z" fill="#8791C1"/><path fill-rule="evenodd" clip-rule="evenodd" d="M17.954 29.555h8.803c0-4.877-3.957-8.803-8.803-8.803-4.877 0-8.803 3.957-8.803 8.803 0 1.932.614 3.711 1.657 5.153.337.245.705.429 1.165.552l.95.184c1.596-.062 3.559.828 4.51 2.055l.276.43c.061.091.092.122.122.183.062 0 .092 0 .123.03l.123-.03c.03-.061.061-.092.122-.184l.276-.43c.951-1.226 2.914-2.116 4.51-2.054l.95-.184c.46-.123.859-.307 1.165-.552a8.754 8.754 0 001.657-5.153h-8.803z" fill="#8793C2"/><path fill-rule="evenodd" clip-rule="evenodd" d="M17.954 29.555h8.68c0-4.785-3.895-8.68-8.68-8.68s-8.68 3.895-8.68 8.68c0 2.024.675 3.864 1.84 5.337.246.153.552.276.859.368l.95.184c1.596-.062 3.559.828 4.51 2.055l.276.43c.06.091.091.122.122.183.061 0 .092 0 .123.03l.123-.03c.03-.061.06-.092.122-.184l.276-.43c.951-1.226 2.914-2.116 4.509-2.054l.95-.184c.338-.092.614-.215.86-.368a8.589 8.589 0 001.84-5.337h-8.68z" fill="#8995C3"/><path fill-rule="evenodd" clip-rule="evenodd" d="M17.954 29.555h8.557a8.56 8.56 0 00-8.557-8.557 8.56 8.56 0 00-8.558 8.557c0 2.086.737 4.018 1.994 5.49.184.092.368.153.583.215l.95.184c1.596-.062 3.559.828 4.51 2.055l.275.43c.062.091.092.122.123.183h.245c.031-.061.062-.092.123-.184l.276-.43c.951-1.226 2.914-2.115 4.509-2.054l.95-.184c.215-.062.4-.123.583-.215 1.258-1.472 1.994-3.404 1.994-5.49h-8.557z" fill="#8B95C4"/><path fill-rule="evenodd" clip-rule="evenodd" d="M17.954 29.555h8.434a8.43 8.43 0 00-8.434-8.435 8.43 8.43 0 00-8.435 8.435 8.48 8.48 0 002.116 5.613c.092.03.215.061.338.122l.95.184c1.595-.061 3.558.829 4.51 2.055l.275.43c0 .03.03.061.03.061h.43c0-.03.031-.03.031-.061l.276-.43c.95-1.227 2.914-2.116 4.509-2.055l.95-.184c.123-.03.215-.061.338-.122a8.48 8.48 0 002.116-5.613h-8.434z" fill="#8D98C5"/><path fill-rule="evenodd" clip-rule="evenodd" d="M17.954 29.555h8.312c0-4.6-3.711-8.312-8.312-8.312a8.299 8.299 0 00-8.312 8.312c0 2.208.859 4.202 2.24 5.674l.091.03.95.185c1.596-.062 3.559.828 4.51 2.055l.214.337h.614l.214-.337c.951-1.227 2.914-2.117 4.51-2.055l.95-.184.092-.03a8.326 8.326 0 002.239-5.675h-8.312z" fill="#8F98C5"/><path fill-rule="evenodd" clip-rule="evenodd" d="M17.954 29.555h8.19c0-4.509-3.65-8.19-8.19-8.19-4.509 0-8.19 3.65-8.19 8.19 0 2.239.89 4.263 2.362 5.735l.798.154c1.595-.062 3.558.828 4.508 2.055l.154.215h.736l.153-.215c.951-1.227 2.914-2.117 4.509-2.055l.797-.154c1.442-1.472 2.362-3.496 2.362-5.735h-8.19z" fill="#8F9AC7"/><path fill-rule="evenodd" clip-rule="evenodd" d="M17.954 29.555h8.066c0-4.447-3.619-8.067-8.066-8.067-4.448 0-8.067 3.62-8.067 8.067 0 2.27.951 4.324 2.454 5.766l.583.123c1.595-.062 3.558.828 4.508 2.055l.062.092h.92l.061-.092c.95-1.227 2.914-2.117 4.509-2.055l.583-.123c1.502-1.472 2.453-3.496 2.453-5.766h-8.066z" fill="#939BC7"/><path fill-rule="evenodd" clip-rule="evenodd" d="M17.954 29.555h7.913c0-4.386-3.558-7.913-7.913-7.913-4.386 0-7.914 3.558-7.914 7.913 0 2.3.982 4.355 2.546 5.828l.368.06c1.595-.06 3.497.829 4.478 2.025.184 0 .368.03.552.03.184 0 .368 0 .552-.03.982-1.196 2.883-2.086 4.478-2.024l.369-.062a7.916 7.916 0 002.545-5.827h-7.974z" fill="#939DC8"/><path fill-rule="evenodd" clip-rule="evenodd" d="M17.954 29.555h7.79c0-4.294-3.496-7.79-7.79-7.79-4.294 0-7.79 3.496-7.79 7.79a7.792 7.792 0 002.637 5.858l.123.03c1.534-.03 3.374.767 4.355 1.902.215.03.43.03.675.03.215 0 .46 0 .675-.03 1.012-1.135 2.822-1.932 4.355-1.901l.123-.031a7.792 7.792 0 002.637-5.858h-7.79z" fill="#959EC9"/><path fill-rule="evenodd" clip-rule="evenodd" d="M17.954 29.555h7.668a7.67 7.67 0 00-7.668-7.668 7.67 7.67 0 00-7.668 7.668 7.736 7.736 0 002.73 5.889c1.441 0 3.128.705 4.14 1.748.277.03.522.03.798.03s.521 0 .797-.03c1.012-1.043 2.7-1.748 4.141-1.748a7.635 7.635 0 002.73-5.89h-7.668z" fill="#97A0CA"/><path fill-rule="evenodd" clip-rule="evenodd" d="M17.954 29.555h7.545a7.54 7.54 0 00-7.545-7.545 7.54 7.54 0 00-7.545 7.545 7.526 7.526 0 002.821 5.889c1.32.061 2.822.705 3.804 1.595.306.03.613.061.95.061.307 0 .645-.03.951-.061.951-.92 2.454-1.565 3.803-1.595a7.526 7.526 0 002.822-5.89h-7.606z" fill="#99A2CB"/><path fill-rule="evenodd" clip-rule="evenodd" d="M17.954 29.555h7.422a7.409 7.409 0 00-7.422-7.423 7.409 7.409 0 00-7.423 7.423 7.38 7.38 0 002.914 5.889c1.196.092 2.484.674 3.404 1.441a6.71 6.71 0 002.209 0c.92-.797 2.208-1.35 3.404-1.441a7.38 7.38 0 002.914-5.89h-7.422z" fill="#9BA3CC"/><path fill-rule="evenodd" clip-rule="evenodd" d="M17.954 29.555h7.3c0-4.018-3.282-7.3-7.3-7.3s-7.3 3.282-7.3 7.3c0 2.454 1.197 4.6 3.037 5.92 1.043.153 2.147.613 2.975 1.257.43.061.859.123 1.288.123.43 0 .89-.03 1.288-.123.828-.644 1.932-1.104 2.975-1.258a7.29 7.29 0 003.037-5.919h-7.3z" fill="#9BA4CD"/><path fill-rule="evenodd" clip-rule="evenodd" d="M17.954 29.555h7.177c0-3.957-3.22-7.177-7.177-7.177-3.957 0-7.177 3.22-7.177 7.177a7.177 7.177 0 003.19 5.98 5.894 5.894 0 012.423 1.043c.49.123 1.012.154 1.533.154.522 0 1.043-.062 1.534-.154.705-.49 1.595-.858 2.423-1.042a7.136 7.136 0 003.19-5.981h-7.116z" fill="#9DA5CD"/><path fill-rule="evenodd" clip-rule="evenodd" d="M17.954 29.555h7.054a7.055 7.055 0 00-14.109 0c0 2.576 1.38 4.815 3.436 6.073.613.153 1.226.43 1.748.736a7.207 7.207 0 001.84.245c.644 0 1.258-.092 1.84-.245a6.239 6.239 0 011.749-.736 7.073 7.073 0 003.435-6.073h-6.993z" fill="#9FA8CF"/><path fill-rule="evenodd" clip-rule="evenodd" d="M17.954 29.555h6.932a6.925 6.925 0 00-6.932-6.932 6.924 6.924 0 00-6.931 6.932 6.918 6.918 0 003.987 6.288c.153.06.306.122.43.184.766.306 1.594.46 2.484.46.889 0 1.717-.154 2.484-.46.153-.062.276-.123.43-.184a6.918 6.918 0 003.986-6.288h-6.87z" fill="#A1A9CF"/><path fill-rule="evenodd" clip-rule="evenodd" d="M17.954 29.555h6.809c0-3.742-3.036-6.81-6.809-6.81-3.742 0-6.809 3.037-6.809 6.81 0 3.742 3.037 6.809 6.809 6.809 3.742 0 6.809-3.037 6.809-6.81h-6.809z" fill="#A3ABD2"/><path fill-rule="evenodd" clip-rule="evenodd" d="M17.954 29.555h6.656a6.65 6.65 0 00-6.656-6.656 6.65 6.65 0 00-6.656 6.656 6.65 6.65 0 006.656 6.656 6.65 6.65 0 006.656-6.656h-6.656z" fill="#A5AED3"/><path fill-rule="evenodd" clip-rule="evenodd" d="M17.954 29.555h6.533c0-3.62-2.944-6.533-6.533-6.533-3.619 0-6.533 2.944-6.533 6.533 0 3.619 2.945 6.533 6.533 6.533 3.589 0 6.533-2.945 6.533-6.533h-6.533z" fill="#A7AFD4"/><path fill-rule="evenodd" clip-rule="evenodd" d="M17.954 29.555h6.44a6.407 6.407 0 00-6.41-6.41 6.407 6.407 0 00-6.41 6.41 6.407 6.407 0 006.41 6.41 6.407 6.407 0 006.41-6.41h-6.44z" fill="#A9B1D5"/><path fill-rule="evenodd" clip-rule="evenodd" d="M17.954 29.555h6.287a6.296 6.296 0 00-6.287-6.288 6.296 6.296 0 00-6.288 6.288 6.296 6.296 0 006.288 6.288 6.296 6.296 0 006.287-6.288h-6.287z" fill="#ABB2D5"/><path fill-rule="evenodd" clip-rule="evenodd" d="M17.953 29.555h6.165a6.165 6.165 0 10-12.33 0 6.165 6.165 0 0012.33 0h-6.165z" fill="#ABB3D6"/><path fill-rule="evenodd" clip-rule="evenodd" d="M17.954 29.555h6.042c0-3.343-2.699-6.042-6.042-6.042a6.034 6.034 0 00-6.042 6.042c0 3.343 2.699 6.042 6.042 6.042a6.034 6.034 0 006.042-6.042h-6.042z" fill="#ADB4D7"/><path fill-rule="evenodd" clip-rule="evenodd" d="M17.954 29.555h5.92a5.904 5.904 0 00-5.92-5.92 5.923 5.923 0 00-5.92 5.92 5.923 5.923 0 005.92 5.92 5.904 5.904 0 005.92-5.92h-5.92z" fill="#AFB6D8"/><path fill-rule="evenodd" clip-rule="evenodd" d="M17.954 29.555h5.797a5.792 5.792 0 00-5.797-5.797c-3.19 0-5.797 2.607-5.797 5.797a5.792 5.792 0 005.797 5.797 5.792 5.792 0 005.797-5.797h-5.797z" fill="#B2B9DA"/><path fill-rule="evenodd" clip-rule="evenodd" d="M17.954 29.555h5.674a5.68 5.68 0 00-5.674-5.674 5.68 5.68 0 00-5.674 5.674 5.681 5.681 0 005.674 5.674 5.68 5.68 0 005.674-5.674h-5.674z" fill="#B2B9DA"/><path fill-rule="evenodd" clip-rule="evenodd" d="M17.954 29.555h5.551a5.55 5.55 0 00-5.551-5.552 5.55 5.55 0 00-5.552 5.552 5.55 5.55 0 005.552 5.551 5.55 5.55 0 005.551-5.551h-5.551z" fill="#B4BBDB"/><path fill-rule="evenodd" clip-rule="evenodd" d="M17.954 29.555h5.398a5.406 5.406 0 00-5.398-5.398 5.406 5.406 0 00-5.398 5.398 5.406 5.406 0 005.398 5.398 5.406 5.406 0 005.398-5.398h-5.398z" fill="#B6BCDC"/><path fill-rule="evenodd" clip-rule="evenodd" d="M17.954 29.555h5.276a5.275 5.275 0 10-10.55 0 5.275 5.275 0 0010.55 0h-5.276z" fill="#B8BFDD"/><path fill-rule="evenodd" clip-rule="evenodd" d="M17.954 29.555h5.153c0-2.853-2.3-5.153-5.153-5.153a5.144 5.144 0 00-5.153 5.153c0 2.852 2.3 5.153 5.153 5.153 2.852 0 5.153-2.3 5.153-5.153h-5.153z" fill="#BABFDD"/><path fill-rule="evenodd" clip-rule="evenodd" d="M17.954 29.555h5.03a5.013 5.013 0 00-5.03-5.03 5.013 5.013 0 00-5.03 5.03 5.013 5.013 0 005.03 5.03 5.013 5.013 0 005.03-5.03h-5.03z" fill="#BAC1DE"/><path fill-rule="evenodd" clip-rule="evenodd" d="M17.954 29.555h4.907a4.922 4.922 0 00-4.907-4.907 4.922 4.922 0 00-4.908 4.907c0 2.699 2.209 4.907 4.908 4.907a4.922 4.922 0 004.907-4.907h-4.907z" fill="#BCC2DF"/><path fill-rule="evenodd" clip-rule="evenodd" d="M17.954 29.555h4.785a4.79 4.79 0 00-4.785-4.785 4.79 4.79 0 00-4.785 4.785 4.79 4.79 0 004.785 4.785 4.79 4.79 0 004.785-4.785h-4.785z" fill="#BFC4E0"/><path fill-rule="evenodd" clip-rule="evenodd" d="M17.954 29.555h4.662a4.66 4.66 0 00-4.662-4.662 4.66 4.66 0 00-4.662 4.662 4.66 4.66 0 004.662 4.662 4.66 4.66 0 004.662-4.662h-4.662z" fill="#C1C7E2"/><path fill-rule="evenodd" clip-rule="evenodd" d="M17.954 29.555h4.54a4.53 4.53 0 00-4.54-4.54 4.529 4.529 0 00-4.54 4.54 4.529 4.529 0 004.54 4.54 4.53 4.53 0 004.54-4.54h-4.54z" fill="#C3C8E2"/><path fill-rule="evenodd" clip-rule="evenodd" d="M17.954 29.555h4.417a4.418 4.418 0 00-8.833 0 4.418 4.418 0 008.833 0h-4.417z" fill="#C3C9E3"/><path fill-rule="evenodd" clip-rule="evenodd" d="M17.954 29.555h4.294a4.254 4.254 0 00-4.264-4.264 4.254 4.254 0 00-4.263 4.264 4.254 4.254 0 004.264 4.263 4.254 4.254 0 004.263-4.263h-4.294z" fill="#C5CAE4"/><path fill-rule="evenodd" clip-rule="evenodd" d="M17.954 29.555h4.14c0-2.3-1.87-4.14-4.14-4.14-2.3 0-4.14 1.87-4.14 4.14 0 2.3 1.87 4.14 4.14 4.14 2.3 0 4.14-1.87 4.14-4.14h-4.14z" fill="#C8CDE5"/><path fill-rule="evenodd" clip-rule="evenodd" d="M17.954 29.555h4.018a4.012 4.012 0 00-4.018-4.018 4.012 4.012 0 00-4.018 4.018 4.012 4.012 0 004.018 4.018 4.012 4.012 0 004.018-4.018h-4.018z" fill="#CACEE5"/><path fill-rule="evenodd" clip-rule="evenodd" d="M17.954 29.555h3.895a3.9 3.9 0 00-3.895-3.896 3.9 3.9 0 00-3.895 3.896 3.9 3.9 0 003.895 3.895 3.9 3.9 0 003.895-3.895h-3.895z" fill="#CACFE7"/><path fill-rule="evenodd" clip-rule="evenodd" d="M17.954 29.555h3.773a3.77 3.77 0 00-3.773-3.773 3.77 3.77 0 00-3.772 3.773 3.77 3.77 0 003.772 3.773 3.77 3.77 0 003.773-3.773h-3.773z" fill="#CED3E9"/><path fill-rule="evenodd" clip-rule="evenodd" d="M17.954 29.555h3.65a3.639 3.639 0 00-3.65-3.65 3.64 3.64 0 00-3.65 3.65 3.64 3.64 0 003.65 3.65 3.639 3.639 0 003.65-3.65h-3.65z" fill="#D0D4EA"/><path fill-rule="evenodd" clip-rule="evenodd" d="M17.954 29.555h3.527a3.528 3.528 0 10-7.055 0 3.528 3.528 0 007.055 0h-3.527z" fill="#D2D6EB"/><path fill-rule="evenodd" clip-rule="evenodd" d="M17.954 29.555h3.404a3.416 3.416 0 00-3.404-3.405 3.417 3.417 0 00-3.405 3.405 3.417 3.417 0 003.405 3.404 3.416 3.416 0 003.404-3.404h-3.404z" fill="#D4D7EB"/><path fill-rule="evenodd" clip-rule="evenodd" d="M17.954 29.555h3.281a3.286 3.286 0 00-3.281-3.282 3.286 3.286 0 00-3.282 3.282 3.286 3.286 0 003.282 3.282 3.286 3.286 0 003.281-3.282h-3.281z" fill="#D5D9EC"/><path fill-rule="evenodd" clip-rule="evenodd" d="M17.954 29.555h3.159c0-1.748-1.411-3.16-3.16-3.16a3.155 3.155 0 00-3.159 3.16c0 1.748 1.411 3.159 3.16 3.159 1.748 0 3.159-1.411 3.159-3.16h-3.16z" fill="#D6DAED"/><path fill-rule="evenodd" clip-rule="evenodd" d="M17.954 29.555h3.006a3.01 3.01 0 00-3.006-3.006 3.01 3.01 0 00-3.006 3.006 3.01 3.01 0 003.006 3.006 3.01 3.01 0 003.006-3.006h-3.006z" fill="#D9DCEE"/><path fill-rule="evenodd" clip-rule="evenodd" d="M17.954 29.555h2.883a2.88 2.88 0 00-2.883-2.883 2.88 2.88 0 00-2.883 2.883 2.88 2.88 0 002.883 2.883 2.88 2.88 0 002.883-2.883h-2.883z" fill="#DBDDEE"/><path fill-rule="evenodd" clip-rule="evenodd" d="M17.954 29.555h2.76a2.749 2.749 0 00-2.76-2.76 2.749 2.749 0 00-2.76 2.76 2.749 2.749 0 002.76 2.76 2.749 2.749 0 002.76-2.76h-2.76z" fill="#DDE0F0"/><path fill-rule="evenodd" clip-rule="evenodd" d="M17.954 29.555h2.637a2.638 2.638 0 10-5.275 0 2.638 2.638 0 005.275 0h-2.637z" fill="#DEE1F1"/><path fill-rule="evenodd" clip-rule="evenodd" d="M17.954 29.555h2.515a2.526 2.526 0 00-2.515-2.515 2.526 2.526 0 00-2.515 2.515 2.526 2.526 0 002.515 2.515 2.526 2.526 0 002.515-2.515h-2.515z" fill="#E0E2F1"/><path fill-rule="evenodd" clip-rule="evenodd" d="M17.954 29.555h2.392a2.395 2.395 0 00-2.392-2.392 2.395 2.395 0 00-2.393 2.392 2.395 2.395 0 002.393 2.392 2.395 2.395 0 002.392-2.392h-2.392z" fill="#E2E5F2"/><path fill-rule="evenodd" clip-rule="evenodd" d="M17.954 29.555h2.27a2.264 2.264 0 00-2.27-2.27 2.264 2.264 0 00-2.27 2.27 2.265 2.265 0 002.27 2.27 2.265 2.265 0 002.27-2.27h-2.27z" fill="#E4E6F2"/><path fill-rule="evenodd" clip-rule="evenodd" d="M17.954 29.555H20.1c0-1.196-.951-2.147-2.147-2.147-1.197 0-2.147.95-2.147 2.147 0 1.196.95 2.147 2.147 2.147 1.196 0 2.147-.951 2.147-2.147h-2.147z" fill="#E5E7F3"/><path fill-rule="evenodd" clip-rule="evenodd" d="M17.953 29.555h2.025c0-1.104-.89-2.024-2.025-2.024-1.104 0-2.024.89-2.024 2.024 0 1.104.89 2.024 2.024 2.024 1.105 0 2.025-.89 2.025-2.024h-2.025z" fill="#E6E8F4"/><path fill-rule="evenodd" clip-rule="evenodd" d="M17.954 29.555h1.901a1.911 1.911 0 00-1.901-1.902 1.911 1.911 0 00-1.902 1.902c0 1.043.859 1.901 1.902 1.901a1.911 1.911 0 001.901-1.901h-1.901z" fill="#E9EBF5"/><path fill-rule="evenodd" clip-rule="evenodd" d="M17.954 29.555h1.748a1.747 1.747 0 10-3.496 0 1.747 1.747 0 103.496 0h-1.748z" fill="#EBEDF6"/><path fill-rule="evenodd" clip-rule="evenodd" d="M17.954 29.555h1.625c0-.89-.736-1.626-1.625-1.626-.89 0-1.626.736-1.626 1.626 0 .89.736 1.625 1.626 1.625.89 0 1.625-.736 1.625-1.625h-1.625z" fill="#EEEFF7"/><path fill-rule="evenodd" clip-rule="evenodd" d="M17.954 29.555h1.503c0-.828-.675-1.503-1.503-1.503-.828 0-1.503.675-1.503 1.503 0 .828.675 1.503 1.503 1.503.828 0 1.503-.675 1.503-1.503h-1.503z" fill="#EEF0F8"/><path fill-rule="evenodd" clip-rule="evenodd" d="M17.954 29.555h1.38c0-.767-.613-1.38-1.38-1.38-.767 0-1.38.613-1.38 1.38 0 .767.613 1.38 1.38 1.38.767 0 1.38-.613 1.38-1.38h-1.38z" fill="#F1F3F9"/><path fill-rule="evenodd" clip-rule="evenodd" d="M17.954 29.555h1.257c0-.706-.552-1.258-1.257-1.258-.706 0-1.258.552-1.258 1.258 0 .705.552 1.257 1.258 1.257.705 0 1.257-.552 1.257-1.257h-1.257z" fill="#F2F4FA"/><path fill-rule="evenodd" clip-rule="evenodd" d="M17.954 29.555h1.134c0-.613-.52-1.135-1.134-1.135-.614 0-1.135.521-1.135 1.135 0 .613.521 1.135 1.135 1.135.613 0 1.134-.522 1.134-1.135h-1.134z" fill="#F4F5FA"/><path fill-rule="evenodd" clip-rule="evenodd" d="M17.954 29.555h1.012c0-.552-.46-1.012-1.012-1.012-.553 0-1.013.46-1.013 1.012s.46 1.012 1.013 1.012c.552 0 1.012-.46 1.012-1.012h-1.012z" fill="#F6F7FB"/><path fill-rule="evenodd" clip-rule="evenodd" d="M17.954 29.555h.89a.89.89 0 10-1.78.001.89.89 0 001.78-.001h-.89z" fill="#F6F7FB"/><path fill-rule="evenodd" clip-rule="evenodd" d="M17.954 29.555h.767a.76.76 0 00-.767-.767.76.76 0 00-.767.767c0 .43.338.767.767.767a.76.76 0 00.767-.767h-.767z" fill="#F9F9FC"/><path fill-rule="evenodd" clip-rule="evenodd" d="M17.954 29.555h.644a.648.648 0 00-.644-.644.648.648 0 00-.644.644c0 .337.276.644.644.644a.648.648 0 00.644-.644h-.644z" fill="#FBFCFE"/><path fill-rule="evenodd" clip-rule="evenodd" d="M17.954 29.555h.49a.484.484 0 00-.49-.49.484.484 0 00-.49.49c0 .276.214.49.49.49s.49-.214.49-.49h-.49z" fill="#FCFCFE"/><path fill-rule="evenodd" clip-rule="evenodd" d="M17.954 29.555h.368a.373.373 0 00-.368-.368.373.373 0 00-.368.368c0 .215.184.368.368.368a.373.373 0 00.368-.368h-.368z" fill="#FDFDFE"/><path fill-rule="evenodd" clip-rule="evenodd" d="M17.954 29.555h.246a.242.242 0 00-.246-.245.242.242 0 00-.245.245c0 .153.123.245.245.245a.242.242 0 00.246-.245h-.246z" fill="#FEFFFF"/><path fill-rule="evenodd" clip-rule="evenodd" d="M17.954 29.555h.123a.132.132 0 00-.123-.123.132.132 0 00-.123.123c0 .061.062.122.123.122a.132.132 0 00.123-.122h-.123z" fill="#fff"/><path d="M17.954 38.143l.123-.03c.03-.062.061-.093.122-.185l.276-.43c.951-1.226 2.914-2.116 4.51-2.054l.95-.184c2.7-.736 2.975-3.742 2.975-5.95V16.672H9.03V29.34c0 2.209.276 5.214 2.975 5.95l.95.184c1.596-.06 3.559.829 4.51 2.055l.275.43c.062.092.092.122.123.184-.03-.03.062 0 .092 0z" stroke="#211915" stroke-width=".449" stroke-miterlimit="2.613"/><path fill-rule="evenodd" clip-rule="evenodd" d="M21.39 26.733c.275 0 .52-.03.797-.092v5.552c-1.84.858-2.914-.276-4.202.521-1.288-.828-2.362.337-4.202-.521V26.64c.245.062.49.092.736.092.399-.306-.368-1.87.03-2.576.123-.215.307-.338.583-.399.369-.123.706.184 1.074.03.552-.827.245-1.931.705-2.852-.214 0-.46.491-.46.614 0 .092-.245.153-.214-.03.153-1.258.306-2.393.674-3.59-.89.675-1.043 2.546-1.196 3.59-.03.152-.276.337-.337-.062-.307-1.442-.154-2.454.061-3.834-.92.736-.828 3.036-.767 4.14 0 0 0 .246-.153.277-.061 0-.123-.123-.123-.123-.613-1.166-.767-2.546-1.012-3.773l-.061-.582-.062.03-.184.43c-.214 1.441.307 2.883.86 4.294.03.091-.093.245-.215.214-.092-.061-.154-.122-.277-.214a12.222 12.222 0 01-2.607-3.896l-.03.031-.062.43c.277 1.533 1.473 3.465 2.73 4.355.153.214.061.337-.03.43-.522.52-2.884-1.902-3.068-2.27-.061-.031-.03.03-.03.03.306 1.41 1.35 2.178 2.33 2.945.093.153.185.276.093.429-.062.092-.399.092-.583 0-.706-.337-1.472-.736-1.994-1.196.307.92 1.32 1.288 2.178 1.81a.958.958 0 01.276.337c.061.153.092.122.092.245 0 .061-.03.123-.092.123-.736-.123-1.534-.184-2.208-.614h-.062v.062c.215.368.614.582 1.012.766.43.276.92.307 1.35.43.061.03.061.092.03.123-.582.46-1.44.674-2.085.828.705.337 1.41 0 2.116-.031.031.03.031.092.031.123-.368.89-1.626 1.196-2.484 1.533 0 0-.031.092.03.092.645.246 1.687-.092 2.3-.337.093-.03.277-.123.246.184-.03.521-1.748 1.472-2.208 1.625v.062c.03.03.092.061.122.061.43 0 1.289-.215 1.687-.49.031 0 .368-.185.43-.154.153.061.092.49-.062.644-.429.522-1.134.982-1.87 1.288.06.062.122 0 .184.062.582 0 1.257-.184 1.717-.522.276-.184.215.215-.03.644-.369.491-.767.798-1.258 1.135l.03.03c.491.062 1.289-.306 1.565-.582.306-.245.368-.092.337.276-.061.307-.276.583-.583.859.491-.092 1.013-.46 1.35-.736.276-.276.675-.522.644 0-.061.306-.245.583-.46.89.49-.277 1.043-.46 1.288-.92.276-.307.522-.277.552-.154.092.399-.368.859-.521 1.073.49-.276.767-.674 1.104-1.012.215-.184.307-.307.583-.307.153 0 .245.154.49.154.215 0 .307-.154.46-.154.277 0 .369.093.583.307.338.307.614.736 1.105 1.012-.123-.214-.583-.674-.522-1.073.03-.123.245-.153.552.153.276.43.828.644 1.288.92-.214-.306-.43-.582-.46-.89-.03-.52.368-.275.644 0 .338.277.86.614 1.35.737-.307-.276-.49-.552-.583-.859-.03-.368.03-.521.338-.276.276.276 1.042.614 1.564.583l.03-.03c-.49-.338-.889-.645-1.257-1.136-.245-.429-.307-.828-.03-.644.46.307 1.134.522 1.717.522.061-.062.153 0 .184-.062-.736-.306-1.442-.797-1.871-1.288-.154-.153-.215-.583-.061-.644.06-.03.398.153.429.153.399.276 1.227.491 1.687.491.03 0 .092-.03.123-.061v-.062c-.46-.153-2.178-1.134-2.209-1.625 0-.307.154-.215.276-.184.614.245 1.657.583 2.3.337.062-.03.062-.092.031-.092-.858-.337-2.116-.644-2.484-1.533 0-.031 0-.062.03-.123.706.03 1.412.368 2.117.03-.644-.153-1.503-.367-2.086-.827-.061-.062-.03-.093.03-.123.43-.154.921-.184 1.35-.43.369-.184.767-.398 1.013-.766v-.062h-.062c-.675.43-1.472.491-2.208.614-.061 0-.092-.062-.092-.123 0-.123.03-.092.092-.245.03-.123.153-.215.245-.338.89-.49 1.871-.859 2.178-1.81-.49.46-1.288.86-1.994 1.197-.153.092-.521.061-.582 0-.092-.123 0-.276.092-.43.981-.766 2.055-1.564 2.33-2.944 0 0 .031-.061-.03-.03-.215.368-2.576 2.79-3.067 2.27-.092-.093-.154-.216-.03-.43 1.257-.92 2.484-2.853 2.729-4.356l-.062-.429-.03-.03a12.222 12.222 0 01-2.607 3.895c-.092.06-.154.153-.246.214-.122.03-.214-.122-.214-.214.552-1.411 1.073-2.853.858-4.294l-.183-.43-.062-.03-.061.582c-.245 1.227-.399 2.607-1.012 3.773 0 0-.062.123-.123.123-.153-.031-.153-.277-.153-.277.061-1.104.153-3.435-.767-4.14.245 1.41.399 2.392.061 3.834-.092.399-.306.214-.337.061-.153-1.073-.307-2.944-1.196-3.588.337 1.196.521 2.33.674 3.588.031.184-.214.123-.214.03 0-.122-.246-.643-.46-.613.46.92.153 2.025.705 2.853.368.153.675-.154 1.074-.03.276.06.46.152.582.398.368.705-.705 2.27-.092 2.576z" fill="#C6BD90"/><path d="M21.39 26.733c.275 0 .52-.03.797-.092v5.552c-1.84.858-2.914-.276-4.202.521-1.288-.828-2.362.337-4.202-.521V26.64c.245.062.49.092.736.092.399-.306-.368-1.87.03-2.576.123-.215.307-.338.583-.399.369-.123.706.184 1.074.03.552-.827.245-1.931.705-2.852-.214 0-.46.491-.46.614 0 .092-.245.153-.214-.03.153-1.258.306-2.393.674-3.59-.89.675-1.043 2.546-1.196 3.59-.03.152-.276.337-.337-.062-.307-1.442-.154-2.454.061-3.834-.92.736-.828 3.036-.767 4.14 0 0 0 .246-.153.277l-.123-.123c-.613-1.166-.767-2.546-1.012-3.773l-.061-.582-.062.03-.184.43c-.214 1.441.307 2.883.86 4.294.03.091-.093.245-.215.214-.092-.061-.154-.122-.277-.214a12.222 12.222 0 01-2.607-3.896l-.03.031-.062.43c.277 1.533 1.473 3.465 2.73 4.355.153.214.061.337-.03.43-.522.52-2.884-1.902-3.068-2.27-.061-.031-.03.03-.03.03.306 1.41 1.35 2.178 2.33 2.945.093.153.185.276.093.429-.062.092-.399.092-.583 0-.706-.337-1.472-.736-1.994-1.196.307.92 1.32 1.288 2.178 1.81a.958.958 0 01.276.337c.061.153.092.122.092.245 0 .061-.03.123-.092.123-.736-.123-1.534-.184-2.208-.614h-.062v.062c.215.368.614.582 1.012.766.43.276.92.307 1.35.43.061.03.061.092.03.123-.582.46-1.44.674-2.085.828.705.337 1.41 0 2.116-.031.031.03.031.123.031.123-.368.89-1.626 1.196-2.484 1.533 0 0-.031.092.03.092.645.246 1.687-.092 2.3-.337.093-.03.277-.123.246.184-.03.521-1.748 1.472-2.208 1.625v.062c.03.03.092.061.122.061.43 0 1.289-.215 1.687-.49.031 0 .368-.185.43-.154.153.061.092.49-.062.644-.429.522-1.134.982-1.87 1.288.06.062.122 0 .184.062.582 0 1.257-.184 1.717-.522.276-.184.215.215-.03.644-.369.491-.767.798-1.258 1.135l.03.03c.491.062 1.289-.306 1.565-.582.306-.245.368-.092.337.276-.061.307-.276.583-.583.859.491-.092 1.013-.46 1.35-.736.276-.276.675-.522.644 0-.061.307-.245.583-.46.89.49-.277 1.043-.46 1.288-.92.276-.307.522-.277.552-.154.092.399-.368.859-.521 1.073.49-.276.767-.674 1.104-1.012.215-.184.307-.307.583-.307.153 0 .245.154.49.154.215 0 .307-.154.46-.154.277 0 .369.093.583.307.338.307.614.736 1.105 1.012-.123-.214-.583-.674-.522-1.073.03-.123.245-.153.552.153.276.43.828.644 1.288.92-.214-.306-.43-.582-.46-.89-.03-.52.368-.275.644 0 .338.277.86.614 1.35.737-.307-.276-.49-.552-.583-.859-.03-.368.03-.521.338-.276.276.276 1.042.614 1.564.583l.03-.03c-.49-.338-.889-.645-1.257-1.136-.245-.429-.307-.828-.03-.644.46.307 1.134.522 1.717.522.061-.062.153 0 .184-.062-.736-.306-1.442-.797-1.871-1.288-.154-.153-.215-.583-.061-.644.06-.03.398.153.429.153.399.276 1.227.491 1.687.491.03 0 .092-.03.123-.061v-.062c-.46-.153-2.178-1.134-2.209-1.625 0-.307.154-.215.276-.184.614.245 1.657.583 2.3.337.062-.03.031-.092.031-.092-.858-.337-2.116-.644-2.484-1.533 0 0 0-.062.03-.123.706.03 1.412.368 2.117.03-.644-.153-1.503-.367-2.086-.827-.061-.062-.03-.093.03-.123.43-.154.921-.184 1.35-.43.369-.184.767-.398 1.013-.766v-.062h-.062c-.675.43-1.472.491-2.208.614-.061 0-.092-.062-.092-.123 0-.123.03-.092.092-.245.03-.123.153-.215.245-.338.89-.49 1.871-.859 2.178-1.81-.49.46-1.288.86-1.994 1.197-.153.092-.521.061-.582 0-.092-.123 0-.276.092-.43.981-.766 2.055-1.564 2.33-2.944 0 0 .031-.061-.03-.03-.215.368-2.576 2.79-3.067 2.27-.092-.093-.154-.216-.03-.43 1.257-.92 2.484-2.853 2.729-4.356l-.062-.429-.03-.03a12.222 12.222 0 01-2.607 3.895c-.092.06-.154.153-.246.214-.122.03-.214-.122-.214-.214.552-1.411 1.073-2.853.858-4.294l-.183-.43-.062-.03-.061.582c-.245 1.227-.399 2.607-1.012 3.773l-.123.123c-.153-.031-.153-.277-.153-.277.061-1.104.153-3.435-.767-4.14.245 1.41.399 2.392.061 3.834-.092.399-.306.214-.337.061-.153-1.073-.307-2.944-1.196-3.588.337 1.196.521 2.33.674 3.588.031.184-.214.123-.214.03 0-.122-.246-.643-.46-.613.46.92.153 2.025.705 2.853.368.153.675-.154 1.074-.03.276.06.46.152.582.398.368.705-.705 2.27-.092 2.576z" stroke="#211915" stroke-width=".225" stroke-miterlimit="2.613"/><path fill-rule="evenodd" clip-rule="evenodd" d="M12.003 41.578c.062.122.062.276-.122.215-1.473-.645-2.331-1.227-3.497-2.362-.092-.123.03-.184.154-.215l.828-.153 1.319-1.38c.582.521 1.104.92 1.81 1.319l-.676 1.81.184.766z" fill="#C6BD90"/><path d="M12.003 41.578c.062.122.062.276-.122.215-1.473-.645-2.331-1.227-3.497-2.362-.092-.123.03-.184.154-.215l.828-.153 1.319-1.38c.582.521 1.104.92 1.81 1.319l-.676 1.81.184.766z" stroke="#15228A" stroke-width=".163" stroke-miterlimit="2.613"/><path fill-rule="evenodd" clip-rule="evenodd" d="M25.162 37.652l1.319 1.35.797.153c.123 0 .245.092.153.215-1.165 1.135-2.024 1.717-3.496 2.361-.154.031-.184-.092-.154-.214l.215-.767-.644-1.779a19.53 19.53 0 001.81-1.319z" fill="#C6BD90"/><path d="M25.162 37.652l1.319 1.35.797.153c.123 0 .245.092.153.215-1.165 1.135-2.024 1.717-3.496 2.361-.154.031-.184-.092-.154-.214l.215-.767-.644-1.779a19.53 19.53 0 001.81-1.319z" stroke="#15228A" stroke-width=".163" stroke-miterlimit="2.613"/><path fill-rule="evenodd" clip-rule="evenodd" d="M9.428 39.063l1.84-1.871c-2.055-1.718-3.405-4.202-3.405-7.27H4.888c.154 3.681 1.902 6.84 4.54 9.14z" fill="#C6BD90"/><path d="M9.428 39.063l1.84-1.871c-2.055-1.718-3.405-4.202-3.405-7.27H4.888c.154 3.681 1.902 6.84 4.54 9.14z" stroke="#15228A" stroke-width=".163" stroke-miterlimit="2.613"/><path fill-rule="evenodd" clip-rule="evenodd" d="M26.634 39.063l-1.87-1.871c2.054-1.718 3.404-4.202 3.404-7.27h3.006c-.185 3.681-1.902 6.902-4.54 9.14z" fill="#C6BD90"/><path d="M26.634 39.063l-1.87-1.871c2.054-1.718 3.404-4.202 3.404-7.27h3.006c-.185 3.681-1.902 6.902-4.54 9.14z" stroke="#15228A" stroke-width=".163" stroke-miterlimit="2.613"/><path fill-rule="evenodd" clip-rule="evenodd" d="M24.15 40.811c-1.872 1.012-3.988 1.503-6.196 1.503-2.24 0-4.325-.49-6.104-1.503l.95-2.576a10.907 10.907 0 005.184 1.288c1.871 0 3.68-.49 5.214-1.288l.951 2.576z" fill="#C6BD90"/><path d="M24.15 40.811c-1.872 1.012-3.988 1.503-6.196 1.503-2.24 0-4.325-.49-6.104-1.503l.95-2.576a10.907 10.907 0 005.184 1.288c1.871 0 3.68-.49 5.214-1.288l.951 2.576z" stroke="#15228A" stroke-width=".163" stroke-miterlimit="2.613"/><path fill-rule="evenodd" clip-rule="evenodd" d="M26.634 39.063l.338-.368.582.583c-.06-.061-.092-.061-.153-.061l-.767-.154z" fill="#15228A"/><path d="M26.634 39.063l.338-.368.582.583c-.06-.061-.092-.061-.153-.061l-.767-.154z" stroke="#15228A" stroke-width=".163" stroke-miterlimit="2.613"/><path fill-rule="evenodd" clip-rule="evenodd" d="M24.088 40.872l-.43.215.277.706c-.03-.092-.03-.154 0-.184l.153-.737z" fill="#15228A"/><path d="M24.088 40.872l-.43.215.277.706c-.03-.092-.03-.154 0-.184l.153-.737z" stroke="#15228A" stroke-width=".163" stroke-miterlimit="2.613"/><path fill-rule="evenodd" clip-rule="evenodd" d="M11.82 40.842l.49.245-.276.706c.031-.092.031-.154 0-.184l-.214-.767z" fill="#15228A"/><path d="M11.82 40.842l.49.245-.276.706c.031-.092.031-.154 0-.184l-.214-.767z" stroke="#15228A" stroke-width=".163" stroke-miterlimit="2.613"/><path fill-rule="evenodd" clip-rule="evenodd" d="M9.305 39.063l-.368-.368-.583.583c.061-.061.092-.061.153-.061l.798-.154z" fill="#15228A"/><path d="M9.305 39.063l-.368-.368-.583.583c.061-.061.092-.061.153-.061l.798-.154z" stroke="#15228A" stroke-width=".163" stroke-miterlimit="2.613"/><path fill-rule="evenodd" clip-rule="evenodd" d="M4.827 29.923c.061 1.073.276 2.085.552 3.19l-.798.245c-.214-.828-.337-2.607.246-3.435z" fill="#15228A"/><path d="M4.827 29.923c.061 1.073.276 2.085.552 3.19l-.798.245c-.214-.828-.337-2.607.246-3.435z" stroke="#15228A" stroke-width=".163" stroke-miterlimit="2.613"/><path fill-rule="evenodd" clip-rule="evenodd" d="M30.621 33.082l.767.276c.215-.828.153-2.576-.246-3.435-.06 1.043-.245 2.085-.52 3.159z" fill="#15228A"/><path d="M30.621 33.082l.767.276c.215-.828.153-2.576-.246-3.435-.06 1.043-.245 2.085-.52 3.159z" stroke="#15228A" stroke-width=".163" stroke-miterlimit="2.613"/><path fill-rule="evenodd" clip-rule="evenodd" d="M14.887 39.584l-.246.614-.06-.03c0-.185-.032-.338-.093-.492a.869.869 0 00-.307-.276.513.513 0 00-.368-.03c-.122.03-.214.122-.306.214-.092.123-.154.246-.215.368-.061.154-.092.307-.123.46 0 .154 0 .246.092.338a.668.668 0 00.276.215c.031.03.092.03.123.03h.153l.154-.368c.03-.061.03-.123.03-.123 0-.03 0-.06-.03-.091-.031-.031-.062-.062-.092-.062l-.031-.03.03-.062.829.338-.03.06c-.062-.03-.124-.03-.154-.03s-.062.03-.092.03l-.062.124-.153.368c-.123 0-.245 0-.399-.031a1.733 1.733 0 01-.368-.123c-.153-.061-.276-.153-.368-.214-.092-.092-.153-.184-.214-.276a.592.592 0 01-.092-.307c0-.154 0-.276.06-.43a1.02 1.02 0 01.522-.552c.246-.092.522-.092.798 0 .092.031.153.062.214.123.031.03.092.061.154.123a.527.527 0 00.122.092h.062c.03 0 .061-.03.092-.062l.092.092zM15.715 40.811l-.092.522c-.03.092-.03.153 0 .184 0 .03.03.061.061.061.03.03.092.03.154.061v.062l-.92-.154v-.061c.091 0 .153.03.184 0 .03 0 .06-.03.06-.061.031-.031.031-.092.062-.184l.215-1.166c.03-.092.03-.153 0-.184 0-.03-.03-.061-.062-.061-.03-.03-.091-.031-.153-.062v-.061l.828.153c.215.031.368.092.46.123.092.061.184.123.215.215.061.092.061.184.03.306-.03.123-.091.246-.214.307-.061.03-.153.062-.276.092l.337.706a.5.5 0 00.092.184c.031.03.062.061.123.061v.061l-.583-.092-.43-.92-.091-.092zm.153-.89l-.153.798h.092c.123.03.215.03.276.03.061 0 .123-.03.153-.091.031-.062.062-.123.092-.215a.578.578 0 00-.03-.337c-.062-.092-.154-.123-.307-.154l-.123-.03zM18.384 41.302h-.645l-.061.184c-.03.061-.03.123-.03.153 0 .062.03.092.06.123.031 0 .093.03.185.03v.062h-.614v-.061c.062 0 .123-.031.154-.092.03-.031.092-.154.153-.276l.644-1.473h.03l.706 1.503a.937.937 0 00.154.276c.03.031.06.031.122.062v.061h-.89v-.061h.032c.06 0 .122 0 .153-.031.03 0 .03-.03.03-.061v-.062s-.03-.03-.03-.092l-.153-.245zm-.031-.092l-.276-.644-.276.644h.552zM20.96 39.646v.061c-.062.03-.123.061-.154.123a3.03 3.03 0 00-.122.337l-.369 1.503h-.03l-.89-1.319c-.092-.153-.184-.245-.214-.276-.031-.03-.092-.03-.154-.03v-.062l.86-.153v.061h-.032c-.091 0-.122.03-.153.062-.03.03-.03.03-.03.06 0 .032 0 .032.03.062 0 .03.03.061.092.153l.552.829.215-.86c.03-.091.03-.183.03-.214v-.092c0-.03-.03-.061-.03-.061-.03-.03-.03-.03-.061-.03h-.154v-.062l.614-.092zM21.757 39.43l.276.706h.03c.124-.03.185-.122.185-.184.03-.092 0-.214-.03-.337l.06-.03.369.889-.062.03c-.061-.092-.092-.153-.153-.214-.061-.062-.123-.062-.153-.092-.062 0-.123 0-.215.03l.184.491c.03.092.061.154.092.154.03.03.03.03.061.03s.062 0 .123-.03l.092-.031c.153-.061.276-.154.337-.276.062-.123.092-.246.062-.43l.061-.03.153.582-1.472.583-.03-.061.06-.03c.062-.032.093-.032.123-.062.031-.03.031-.062.031-.092s-.03-.092-.061-.154l-.46-1.134c-.03-.092-.062-.123-.062-.154l-.06-.061c-.031 0-.093 0-.154.03l-.062.031-.03-.061 1.441-.583.215.49-.061.032a.473.473 0 00-.215-.215.326.326 0 00-.245-.03.707.707 0 00-.277.091l-.153.123z" fill="#15228A"/><path d="M14.887 39.584l-.246.614-.06-.031c0-.184-.032-.337-.093-.49a.869.869 0 00-.307-.277.513.513 0 00-.368-.03c-.122.03-.214.122-.306.214-.092.123-.154.246-.215.368-.061.154-.123.307-.123.46 0 .154 0 .246.092.338a.669.669 0 00.276.215c.031.03.123.03.123.03h.153l.154-.368c.03-.061.03-.123.03-.123s0-.06-.03-.092c-.031-.03-.062-.06-.092-.06l-.031-.032.03-.06.829.336-.03.062c-.062-.03-.154-.03-.154-.03s-.062.03-.092.03l-.062.123-.153.367c-.123 0-.245 0-.399-.03a1.727 1.727 0 01-.368-.123c-.153-.061-.276-.153-.368-.214-.092-.093-.153-.185-.214-.277a.592.592 0 01-.092-.306c0-.154 0-.276.06-.43.093-.245.277-.43.522-.552.246-.092.522-.092.798 0 .092.03.153.062.214.123.031.03.092.061.154.123.061.06.122.092.122.092h.062s.061-.031.092-.062l.092.092zm.828 1.227l-.092.522a.325.325 0 000 .184s.03.06.061.06c.03.032.092.032.154.062v.062l-.92-.154v-.061h.184s.06-.03.06-.061c.031-.031.031-.092.062-.184l.215-1.166c.03-.092 0-.184 0-.184s-.03-.061-.061-.061c-.031-.031-.092-.031-.154-.062v-.061l.828.153c.215.031.368.092.46.123.092.061.184.123.215.215.061.092.061.184.03.306-.03.123-.091.246-.214.307-.061.03-.153.062-.276.092l.337.706a.5.5 0 00.092.184c.031.03.123.06.123.06v.062l-.583-.092-.429-.92-.092-.092zm.153-.89l-.153.798h.092c.123.03.215.03.276.03.061 0 .123-.03.153-.091.031-.062.062-.123.092-.215a.579.579 0 00-.03-.337c-.062-.092-.154-.123-.307-.154l-.123-.03zm2.515 1.38h-.644l-.061.185c-.03.061-.03.153-.03.153 0 .062.03.092.06.123.031 0 .093.03.185.03v.062h-.614v-.061c.061 0 .123-.031.154-.092.03-.031.091-.154.153-.276l.644-1.473h.03l.706 1.503a.938.938 0 00.153.276c.031.03.062.03.123.062v.06h-.89v-.06h.031c.062 0 .123 0 .154-.031.03 0 .03-.061.03-.061v-.062s-.03-.03-.03-.092l-.154-.245zm-.03-.091l-.276-.644-.276.644h.552zm2.607-1.564v.061c-.062.03-.123.061-.154.123-.03.061-.061.153-.122.337l-.368 1.503h-.031l-.89-1.319a1.394 1.394 0 00-.214-.276c-.03-.03-.092-.03-.154-.03v-.062l.86-.153v.061h-.032c-.091 0-.122.03-.153.061-.03.031-.03.062-.03.062l.03.061s.03.061.092.153l.552.828.215-.858c.03-.092.03-.215.03-.215v-.092l-.03-.061c-.03-.031-.061-.031-.061-.031h-.154v-.061l.614-.092zm.797-.215l.276.705h.03c.124-.03.185-.122.185-.184.03-.092 0-.214-.03-.337l.06-.03.369.889-.062.03c-.061-.092-.092-.153-.153-.214-.061-.062-.123-.062-.153-.092-.062 0-.123 0-.215.03l.184.491c.03.092.061.154.092.154.03.03.061.03.061.03s.062 0 .123-.03l.092-.031c.153-.061.276-.154.337-.276a.643.643 0 00.062-.43l.061-.03.153.582-1.472.583-.03-.061.06-.03c.062-.032.093-.032.123-.062.031-.03.031-.092.031-.092s-.03-.092-.061-.154l-.46-1.134c-.03-.092-.062-.154-.062-.154l-.06-.061s-.093 0-.154.03l-.062.031-.03-.061 1.441-.583.215.49-.061.032a.473.473 0 00-.215-.215.326.326 0 00-.245-.03.707.707 0 00-.277.091l-.153.123z" stroke="#211915" stroke-width=".102" stroke-miterlimit="2.613"/><path fill-rule="evenodd" clip-rule="evenodd" d="M26.542 35.904h1.472l-.613-.49c-.092-.062-.154-.093-.215-.093s-.123.03-.184.123l-.03-.03.367-.492.031.031a.517.517 0 00-.061.153c0 .031 0 .062.03.092.031.031.062.092.123.123l1.196.95-.03.032-1.963.03.92.736c.092.062.153.092.214.062.062 0 .123-.062.154-.092l.03-.031.031.03-.398.522-.031-.03c.061-.093.092-.154.092-.215 0-.062-.061-.123-.123-.184l-1.012-.798h-.061c-.062 0-.123 0-.154.03-.03 0-.061.032-.092.093l-.03-.03.337-.522zM29.425 34.677l.03.03-.429.86-.03-.031.03-.062c.031-.06.031-.092.031-.122s0-.062-.03-.092c0-.031-.062-.062-.154-.092l-1.104-.522c-.092-.03-.153-.061-.153-.061-.031 0-.062 0-.093.03l-.091.093-.031.061-.03-.03.428-.86.031.031-.03.062c-.031.06-.031.091-.031.122 0 .03 0 .062.03.092 0 .03.062.062.154.092l1.104.522c.092.03.153.061.153.061.031 0 .062 0 .092-.03l.092-.093.031-.061zM29.67 32.407l.583.276-.552 1.534-.061-.03.03-.062c.03-.062.03-.092.03-.123 0-.03-.03-.061-.03-.061-.03-.03-.061-.03-.153-.062l-1.135-.429c-.092-.03-.153-.061-.184-.061-.03 0-.061 0-.092.03-.03.031-.061.062-.061.092l-.031.062-.061-.03.337-.921.061.03-.03.062c-.031.061-.031.092-.031.123 0 .03.03.061.03.061.031.03.062.03.154.061l1.104.4c.092.03.154.06.184.06s.062 0 .062-.03.03-.062.06-.154l.062-.153c.03-.092.03-.184.03-.245a.33.33 0 00-.091-.215 2.493 2.493 0 00-.276-.245l.061.03zM30.038 31.15l-.153.797-.276-.061.153-.798.276.062z" fill="#15228A"/><path d="M26.542 35.904h1.472l-.613-.491c-.092-.061-.154-.092-.215-.092s-.123.03-.184.123l-.03-.031.367-.49.031.03c-.03.061-.061.153-.061.153s0 .061.03.092c.031.03.062.092.123.123l1.196.95-.03.031-1.963.031.92.736c.092.061.153.092.214.061.062 0 .123-.06.154-.092l.03-.03.031.03-.398.522-.031-.03c.061-.093.092-.154.092-.215 0-.062-.061-.123-.123-.184l-1.012-.798h-.061c-.062 0-.123 0-.154.03-.03 0-.061.031-.092.093l-.03-.031.337-.521zm2.883-1.227l.03.03-.429.86-.03-.031.03-.062c.031-.061.031-.122.031-.122s0-.062-.03-.092c0-.031-.062-.062-.154-.093l-1.104-.52c-.092-.032-.153-.062-.153-.062s-.062 0-.093.03l-.092.093-.03.06-.03-.03.428-.859.031.031-.03.061c-.031.062-.031.123-.031.123s0 .061.03.092c0 .03.062.061.154.092l1.104.522c.092.03.153.06.153.06s.062 0 .092-.03l.092-.092.031-.061zm.245-2.27l.583.276-.552 1.534-.061-.031.03-.061c.031-.062.031-.123.031-.123l-.03-.061c-.031-.031-.062-.031-.154-.062l-1.135-.43-.184-.06s-.061 0-.092.03c-.03.03-.061.062-.061.092l-.03.062-.062-.031.337-.92.062.03-.031.062c-.03.061-.03.123-.03.123l.03.06c.03.032.061.032.153.062l1.104.399.184.061s.062 0 .062-.03c0-.031.03-.062.061-.154l.061-.153c.031-.092.031-.184.031-.245a.331.331 0 00-.092-.215c-.061-.062-.153-.154-.276-.246l.061.031zm.368-1.257l-.153.766-.276-.061.153-.767.276.062z" stroke="#211915" stroke-width=".102" stroke-miterlimit="2.613"/><path fill-rule="evenodd" clip-rule="evenodd" d="M6.206 31.855l-.122-.644-.184-.03c-.062 0-.123-.031-.154 0-.061 0-.092.03-.092.091v.184h-.061l-.092-.613h.061c.031.061.062.123.123.153.061.031.153.062.307.092l1.564.4v.03l-1.38.92c-.123.092-.215.153-.246.215-.03.03-.03.092-.03.122h-.062l-.153-.89h.061v.031c0 .062.031.123.062.154.03.03.03.03.061.03.03 0 .03 0 .061-.03 0 0 .031-.03.092-.062l.184-.153zm.092-.061l.583-.368-.675-.154.092.522zM7.188 34.585l-.613.184-.614-1.503.062-.03.03.06c.031.062.031.093.062.123.03.031.061.031.092.031.03 0 .092-.03.153-.061l1.135-.46c.092-.031.153-.062.153-.092.031-.031.031-.031.031-.092 0-.031 0-.062-.03-.123l-.031-.061.061-.031.368.92-.061.03-.03-.06c-.032-.062-.032-.093-.062-.123-.031-.031-.062-.031-.092-.031-.031 0-.092.03-.154.061l-1.104.43c-.092.03-.153.061-.153.092-.03.03-.03.061-.03.092 0 .03.03.061.06.153l.062.154a.55.55 0 00.153.214.279.279 0 00.215.092c.092.03.215.03.368 0l-.03.03zM7.372 36.15l-.03.03-.49-.828.03-.031.03.061c.031.062.062.092.092.092.031 0 .062.031.092 0 .031 0 .062-.03.154-.061l1.043-.613c.092-.062.122-.092.153-.092 0-.031.03-.062.03-.092 0-.031 0-.062-.03-.123l-.03-.061.03-.031.49.828-.03.03-.03-.06c-.031-.062-.062-.093-.093-.093-.03 0-.061-.03-.092 0-.03 0-.061.031-.153.062l-1.043.613c-.092.061-.123.092-.153.092 0 .03-.03.061-.03.092 0 .03 0 .061.03.123l.03.061zM9.887 36.548l-.49.368-.031-.03c.123-.123.184-.246.184-.369 0-.153 0-.245-.092-.337-.061-.062-.123-.123-.184-.123s-.123 0-.184.03c-.03.031-.061.062-.061.093-.031.061-.031.092-.031.184 0 .061.03.153.03.337.031.246.031.399 0 .522a.447.447 0 01-.183.276.532.532 0 01-.43.092.602.602 0 01-.398-.276c-.031-.062-.062-.092-.093-.154-.03-.061-.03-.122-.06-.184 0-.03-.032-.092-.032-.092 0-.03-.03-.03-.06-.03h-.093l-.03-.031.552-.399.03.03c-.122.154-.214.308-.214.46-.031.154 0 .277.092.4a.355.355 0 00.214.153c.092.03.154 0 .215-.03l.092-.093c.03-.03.03-.092.03-.153s0-.153-.03-.276c-.03-.184-.03-.337-.03-.43 0-.091.03-.183.06-.245.031-.061.093-.123.154-.184.123-.092.245-.123.399-.092.153.03.276.092.368.245.03.062.061.093.092.154.03.03.03.092.03.153s.031.123.031.123c0 .03.03.03.061.03s.062 0 .092-.03v-.092z" fill="#15228A"/><path d="M6.206 31.855l-.122-.644-.184-.03h-.154c-.061 0-.092.03-.092.091v.184h-.061l-.092-.613h.061c.031.061.062.123.123.153.061.031.153.062.307.092l1.564.4v.03l-1.38.92c-.123.092-.215.153-.246.215-.03.03-.03.092-.03.122h-.062l-.153-.89h.061v.031c0 .062.031.123.062.154.03.03.061.03.061.03l.061-.03s.031-.03.092-.062l.184-.153zm.092-.061l.583-.368-.675-.154.092.522zm.89 2.79l-.614.185-.613-1.503.061-.03.031.06c.03.062.03.093.061.123.031.031.092.031.092.031s.092-.03.154-.061l1.135-.46c.092-.031.153-.062.153-.092.03-.031.03-.092.03-.092s0-.062-.03-.123l-.03-.061.06-.031.369.92-.062.03-.03-.06c-.031-.062-.031-.093-.062-.123-.03-.031-.092-.031-.092-.031s-.092.03-.153.061l-1.104.43c-.092.03-.154.061-.154.092-.03.03-.03.092-.03.092s.03.061.061.153l.061.154a.55.55 0 00.154.214.278.278 0 00.215.092c.092.03.214.03.368 0l-.031.03zm.184 1.565l-.03.03-.491-.827.03-.031.03.061c.032.062.062.092.093.092h.092s.061-.03.153-.061l1.043-.613c.092-.062.123-.092.153-.092 0-.031.031-.092.031-.092s0-.062-.03-.123l-.031-.062.03-.03.491.828-.03.03-.031-.06c-.03-.062-.062-.093-.092-.093H8.69s-.062.031-.154.062l-1.042.613c-.092.061-.123.092-.154.092 0 .03-.03.092-.03.092s0 .061.03.123l.03.061zm2.515.399l-.49.368-.031-.03c.122-.123.184-.246.184-.369 0-.153 0-.245-.092-.337-.062-.062-.123-.123-.184-.123-.062 0-.123 0-.184.03-.031.031-.062.062-.062.093-.03.061-.03.092-.03.184 0 .061.03.153.03.337.03.246.03.399 0 .522a.447.447 0 01-.184.276c-.123.092-.276.122-.43.092a.602.602 0 01-.398-.276c-.03-.062-.061-.092-.092-.154-.03-.061-.03-.122-.061-.184l-.031-.092c0-.03-.061-.03-.061-.03h-.092l-.031-.031.552-.399.03.03c-.122.154-.214.308-.214.46-.03.154 0 .277.092.4a.355.355 0 00.215.153c.092.03.153 0 .214-.03l.092-.093c.031-.03.031-.092.031-.153s0-.153-.03-.276c-.031-.184-.031-.337-.031-.43 0-.091.03-.183.061-.245.03-.061.092-.123.153-.184.123-.092.246-.123.4-.092.153.03.275.092.367.245.03.062.062.093.092.154.03.03.03.092.03.153s.032.123.032.123c0 .03.06.03.06.03s.062 0 .093-.03v-.092z" stroke="#211915" stroke-width=".102" stroke-miterlimit="2.613"/><path fill-rule="evenodd" clip-rule="evenodd" d="M18.015 14.771c1.38 0 3.006.154 4.417.552 1.441-4.846.736-9.293-4.417-11.808-5.153 2.515-6.042 6.962-4.478 11.808 1.41-.368 3.067-.552 4.478-.552z" fill="#93938E"/><path d="M18.015 14.771c1.38 0 3.006.154 4.417.552 1.441-4.846.736-9.293-4.417-11.808-5.153 2.515-6.042 6.962-4.478 11.808 1.41-.368 3.067-.552 4.478-.552z" stroke="#211915" stroke-width=".201" stroke-miterlimit="2.613"/><path fill-rule="evenodd" clip-rule="evenodd" d="M17.954 2.534c.399 0 .675.306.675.674a.661.661 0 01-.675.675.68.68 0 01-.675-.675c0-.398.307-.674.675-.674z" fill="#93938E"/><path d="M17.954 2.534c.399 0 .675.306.675.674a.661.661 0 01-.675.675.68.68 0 01-.675-.675c0-.398.307-.674.675-.674z" stroke="#211915" stroke-width=".225" stroke-miterlimit="2.613"/><path fill-rule="evenodd" clip-rule="evenodd" d="M18.23 2.534v-.491h.552V1.52h-.552V1h-.521v.521h-.521v.522h.52v.49h.522z" fill="#C6BD90"/><path d="M18.23 2.534v-.491h.552V1.52h-.552V1h-.521v.521h-.521v.522h.52v.49h.522z" stroke="#211915" stroke-width=".221" stroke-miterlimit="2.613"/><path fill-rule="evenodd" clip-rule="evenodd" d="M23.444 12.348c-.337-.092-.675 0-.736.276-.03.092.03.276.061.368-.306 0-.552.276-.552.491a.7.7 0 00.338.583c.153.092.03.644-.215.613-.337-.03-.368-.306-.337-.613 0-.062 0-.215-.031-.215-.03 0-.092.153-.092.184-.03.246-.368.46-.644.399a.43.43 0 01-.368-.43c0-.46 0-.091.368-.091a.6.6 0 00.705-.46c.062-.307-.184-.645-.49-.675h-.062a.331.331 0 00.092-.215c.062-.337-.184-.644-.49-.736-.307-.062-.614.184-.675.521v.246h-.062a.599.599 0 00-.705.49c-.061.307.184.583.49.645.307.06.46-.062.43.091-.03.215-.245.522-.46.46-.337-.03-.613-.183-.583-.46 0-.06 0-.214-.061-.214-.03 0-.061.092-.061.184-.031.245-.276.43-.614.399-.215 0-.368-.215-.368-.43 0-.276 0-.123.338-.092a.582.582 0 100-1.165h-.062c.03-.092.062-.154.062-.246a.582.582 0 00-.583-.582c-.338-.031-.583.276-.583.582 0 .092 0 .184.061.246h-.061a.603.603 0 00-.583.582c0 .307.276.614.583.583.337 0 .368-.153.337.092 0 .215-.153.43-.368.43-.368 0-.582-.154-.613-.4 0-.091-.03-.183-.092-.183-.03 0-.061.184-.061.214 0 .277-.246.43-.583.46-.215.062-.46-.245-.46-.46 0-.122.122-.03.43-.091.337-.062.551-.338.49-.645a.599.599 0 00-.706-.49h-.06a.338.338 0 000-.246c-.062-.306-.369-.552-.676-.521-.306.061-.552.399-.46.736 0 .092.03.184.092.215h-.061c-.307.061-.552.368-.46.674a.586.586 0 00.675.46c.368 0 .368-.368.368.092a.43.43 0 01-.368.43c-.276.03-.614-.184-.644-.399 0-.03-.062-.184-.092-.184-.031 0-.031.153-.031.215 0 .276 0 .552-.338.613-.276.031-.368-.521-.245-.613a.7.7 0 00.338-.583c0-.215-.277-.49-.553-.49.031-.093.092-.277.062-.369-.092-.276-.43-.43-.767-.276l1.012 3.037c1.411-.399 3.067-.583 4.478-.583 1.411 0 3.006.184 4.417.552l.89-3.006z" fill="#C6BD90"/><path d="M23.444 12.348c-.337-.092-.675 0-.736.276-.03.092.03.276.061.368-.306 0-.552.276-.552.491a.7.7 0 00.338.583c.153.092.03.644-.215.613-.337-.03-.368-.306-.337-.613 0-.062-.031-.215-.031-.215l-.092.184c-.03.246-.368.46-.644.399a.43.43 0 01-.368-.43c0-.46 0-.091.368-.091a.6.6 0 00.705-.46c.062-.307-.184-.645-.49-.675h-.062a.331.331 0 00.092-.215c.062-.337-.184-.644-.49-.736-.307-.062-.614.184-.675.521v.246h-.062a.599.599 0 00-.705.49c-.061.307.184.583.49.645.307.06.46-.062.43.091-.03.215-.245.522-.46.46-.337-.03-.613-.183-.583-.46a.951.951 0 00-.061-.214s-.061.092-.061.184c-.031.245-.276.43-.614.399-.215 0-.368-.215-.368-.43 0-.276 0-.123.338-.092a.582.582 0 100-1.165h-.062c.03-.092.062-.154.062-.246a.582.582 0 00-.583-.582c-.338-.031-.583.276-.583.582 0 .092 0 .184.061.246h-.061a.603.603 0 00-.583.582c0 .307.276.614.583.583.337 0 .368-.153.337.092 0 .215-.153.43-.368.43-.368 0-.582-.154-.613-.4 0-.091-.03-.183-.092-.183 0 0-.061.184-.061.214 0 .277-.246.43-.583.46-.215.062-.46-.245-.46-.46 0-.122.122-.03.43-.091.337-.062.551-.338.49-.645a.599.599 0 00-.706-.49h-.06a.338.338 0 000-.246c-.062-.306-.369-.552-.676-.521-.306.061-.552.399-.46.736 0 .092.03.184.092.215h-.061c-.307.061-.552.368-.46.674a.586.586 0 00.675.46c.368 0 .368-.368.368.092a.43.43 0 01-.368.43c-.276.03-.614-.184-.644-.399 0 0-.062-.184-.092-.184 0 0-.031.153-.031.215 0 .276 0 .552-.338.613-.276.031-.368-.521-.245-.613a.7.7 0 00.338-.583c0-.215-.277-.49-.553-.49.031-.093.092-.277.062-.369-.092-.276-.43-.43-.767-.276l1.012 3.037c1.411-.399 3.067-.583 4.478-.583 1.411 0 3.006.184 4.417.552l.89-3.006z" stroke="#211915" stroke-width=".201" stroke-miterlimit="2.613"/><path fill-rule="evenodd" clip-rule="evenodd" d="M23.567 8.514c-.46-.184-.828.184-.89.4-.03.091 0 .244.062.398-.307 0-.552.245-.552.46 0 .184.092.49.368.583.337.092.46.03.43.153-.032.215-.308.46-.553.46-.337-.03-.49-.337-.46-.613 0-.031 0-.215-.03-.215-.031 0-.093.153-.093.184-.061.245-.368.399-.644.368-.214-.03-.368-.153-.368-.368 0-.46 0-.123.368-.092a.601.601 0 00.706-.46c.061-.337-.184-.644-.491-.706h-.061a.348.348 0 00.092-.245c.061-.307-.184-.644-.491-.675-.307-.061-.614.154-.675.491v.245h-.061a.599.599 0 00-.706.491c-.061.307.184.614.491.644.307.062.46-.061.43.092-.031.215-.246.491-.46.491-.338 0-.614-.215-.583-.49 0-.031 0-.215-.062-.215-.03 0-.061.092-.061.184-.03.276-.276.429-.613.398-.215 0-.369-.214-.369-.429 0-.276 0-.123.338-.092.337 0 .583-.276.583-.613a.582.582 0 00-.583-.583h-.062c.031-.092.062-.184.062-.246a.564.564 0 00-.583-.582c-.337 0-.613.276-.613.582 0 .092 0 .184.061.246h-.061a.603.603 0 00-.583.583c0 .337.276.613.583.613.337 0 .368-.153.337.092a.43.43 0 01-.368.43c-.368.03-.583-.154-.613-.4 0-.06-.031-.183-.092-.183-.031 0-.062.184-.062.214 0 .276-.245.522-.583.491-.214 0-.46-.276-.46-.49 0-.123.123 0 .43-.093.337-.061.552-.337.49-.644a.599.599 0 00-.705-.49h-.061a.34.34 0 000-.246c-.062-.337-.368-.552-.675-.49-.307.06-.552.367-.46.674 0 .092.03.184.092.245h-.061c-.307.062-.553.369-.46.706a.586.586 0 00.674.46c.368 0 .368-.337.368.092 0 .215-.153.337-.368.368-.276.061-.613-.123-.644-.368 0-.03-.061-.184-.092-.184-.03 0-.03.184-.03.215 0 .276-.154.582-.46.613-.246 0-.522-.245-.553-.46-.03-.123.092-.061.43-.153.276-.092.368-.4.368-.583 0-.215-.276-.46-.552-.46.061-.154.092-.307.061-.399-.061-.184-.307-.521-.89-.399l.4 3.282C14.61 11.275 16.45 11 18.076 11c1.625 0 3.496.276 5.152.797l.338-3.282z" fill="#C6BD90"/><path d="M23.567 8.514c-.46-.184-.828.184-.89.4-.03.091 0 .244.062.398-.307 0-.552.245-.552.46 0 .184.092.49.368.583.337.092.46.03.43.153-.032.215-.308.46-.553.46-.337-.03-.49-.337-.46-.613 0-.031-.03-.215-.03-.215l-.093.184c-.061.245-.368.399-.644.368-.214-.03-.368-.153-.368-.368 0-.46 0-.123.368-.092a.601.601 0 00.706-.46c.061-.337-.184-.644-.491-.706h-.061a.348.348 0 00.092-.245c.061-.307-.184-.644-.491-.675-.307-.061-.614.154-.675.491v.245h-.061a.599.599 0 00-.706.491c-.061.307.184.614.491.644.307.062.46-.061.43.092-.031.215-.246.491-.46.491-.338 0-.614-.215-.583-.49 0-.031-.062-.215-.062-.215s-.061.092-.061.184c-.03.276-.276.429-.613.398-.215 0-.369-.214-.369-.429 0-.276 0-.123.338-.092.337 0 .583-.276.583-.613a.582.582 0 00-.583-.583h-.062c.031-.092.062-.184.062-.246a.564.564 0 00-.583-.582c-.337 0-.613.276-.613.582 0 .092 0 .184.061.246h-.061a.603.603 0 00-.583.583c0 .337.276.613.583.613.337 0 .368-.153.337.092a.43.43 0 01-.368.43c-.368.03-.583-.154-.613-.4 0-.06-.031-.183-.092-.183 0 0-.062.184-.062.214 0 .276-.245.522-.583.491-.214 0-.46-.276-.46-.49 0-.123.123 0 .43-.093.337-.061.552-.337.49-.644a.599.599 0 00-.705-.49h-.061a.34.34 0 000-.246c-.062-.337-.368-.552-.675-.49-.307.06-.552.367-.46.674 0 .092.03.184.092.245h-.061c-.307.062-.553.369-.46.706a.586.586 0 00.674.46c.368 0 .368-.337.368.092 0 .215-.153.337-.368.368-.276.061-.613-.123-.644-.368 0 0-.061-.184-.092-.184 0 0-.03.184-.03.215 0 .276-.154.582-.46.613-.246 0-.522-.245-.553-.46-.03-.123.092-.061.43-.153.276-.092.368-.4.368-.583 0-.215-.276-.46-.552-.46.061-.154.092-.307.061-.399-.061-.184-.307-.521-.89-.399l.4 3.282C14.61 11.275 16.45 11 18.076 11c1.625 0 3.496.276 5.152.797l.338-3.282z" stroke="#211915" stroke-width=".201" stroke-miterlimit="2.613"/><path fill-rule="evenodd" clip-rule="evenodd" d="M22.616 8.208l.337-3.435c-.276.03-.43.214-.43.368 0 .03-.03.398.093.521a.511.511 0 00-.522.49c0 .185.092.522.399.614.092.276-.092.46-.245.46-.307 0-.369-.184-.338-.49 0-.031 0-.215-.03-.215-.031 0-.092.153-.092.184-.031.245-.369.399-.645.368-.214-.03-.368-.153-.368-.368 0-.46 0-.123.368-.092a.6.6 0 00.706-.46c.061-.338-.184-.644-.49-.706h-.062a.348.348 0 00.092-.245c.061-.307-.184-.644-.491-.675-.307-.061-.613.154-.675.49v.246h-.061a.598.598 0 00-.706.491c-.06.307.184.613.491.644.307.061.46-.061.43.092-.031.215-.246.46-.46.46-.338 0-.614-.184-.583-.46 0-.061 0-.215-.061-.215-.062 0-.062.092-.062.184-.03.277-.276.43-.613.4-.215 0-.368-.215-.368-.43 0-.246 0-.092.337-.092s.583-.276.583-.614a.582.582 0 00-.583-.582h-.061a.579.579 0 00.061-.246.582.582 0 10-1.166 0c0 .092 0 .184.062.246H17.4a.603.603 0 00-.582.582c0 .338.276.614.582.614.338 0 .369-.154.338.092 0 .215-.154.43-.368.43-.368 0-.583-.154-.614-.4 0-.06-.03-.184-.092-.184-.03 0-.06.154-.06.215 0 .276-.246.49-.584.46-.214 0-.46-.245-.46-.46 0-.123.123 0 .43-.092.337-.061.552-.337.49-.644a.599.599 0 00-.705-.49h-.061a.338.338 0 000-.246c-.062-.337-.368-.552-.675-.49-.307.06-.552.367-.46.674 0 .092.03.184.092.245h-.062c-.306.062-.552.368-.46.706a.585.585 0 00.675.46c.368 0 .368-.338.368.092 0 .215-.153.337-.368.368-.276.061-.613-.123-.644-.368 0 0-.061-.184-.092-.184-.03 0-.03.184-.03.215 0 .276-.031.49-.338.49-.092 0-.399-.122-.276-.46.337-.092.399-.43.399-.613 0-.246-.184-.46-.522-.491.154-.123.092-.46.092-.521 0-.154-.122-.338-.43-.368l.338 3.435c1.503-.43 3.129-.706 4.662-.706 1.503 0 3.067.246 4.632.706z" fill="#C6BD90"/><path d="M22.616 8.208l.337-3.435c-.276.03-.429.214-.429.368 0 0-.03.398.092.521a.511.511 0 00-.521.49c0 .185.092.522.398.614.092.276-.092.46-.245.46-.307 0-.368-.184-.337-.49 0-.031-.031-.215-.031-.215l-.092.184c-.03.245-.368.399-.644.368-.215-.03-.368-.153-.368-.368 0-.46 0-.123.368-.092a.6.6 0 00.705-.46c.062-.338-.184-.644-.49-.706h-.062a.348.348 0 00.092-.245c.062-.307-.184-.644-.49-.675-.307-.061-.614.154-.675.49v.246h-.062a.598.598 0 00-.705.491c-.062.307.184.613.49.644.307.061.46-.061.43.092-.03.215-.245.46-.46.46-.337 0-.614-.184-.583-.46a.951.951 0 00-.061-.215s-.061.092-.061.184c-.031.277-.276.43-.614.4-.215 0-.368-.215-.368-.43 0-.246 0-.092.337-.092.338 0 .583-.276.583-.614a.582.582 0 00-.583-.582h-.06a.579.579 0 00.06-.246.582.582 0 10-1.165 0c0 .092 0 .184.061.246h-.061a.603.603 0 00-.583.582c0 .338.276.614.583.614.337 0 .368-.154.337.092 0 .215-.153.43-.368.43-.368 0-.582-.154-.613-.4 0-.06-.03-.184-.092-.184 0 0-.061.154-.061.215 0 .276-.246.49-.583.46-.215 0-.46-.245-.46-.46 0-.123.122 0 .429-.092.337-.061.552-.337.49-.644a.599.599 0 00-.705-.49h-.061a.338.338 0 000-.246c-.061-.337-.368-.552-.675-.49-.306.06-.552.367-.46.674 0 .092.03.184.092.245h-.092c-.306.062-.552.368-.46.706a.586.586 0 00.675.46c.368 0 .368-.338.368.092 0 .215-.153.337-.368.368-.276.061-.614-.123-.644-.368 0 0-.062-.184-.092-.184 0 0-.03.184-.03.215 0 .276-.032.49-.338.49-.092 0-.399-.122-.276-.46.337-.092.398-.43.398-.613 0-.246-.184-.46-.521-.491.153-.123.092-.521.092-.521 0-.154-.123-.338-.43-.368l.338 3.435c1.503-.43 3.128-.706 4.662-.706 1.534 0 3.098.246 4.662.706z" stroke="#211915" stroke-width=".201" stroke-miterlimit="2.613"/><path fill-rule="evenodd" clip-rule="evenodd" d="M17.923 15.875c-1.41 0-2.944-.122-4.417-.552 1.411-.429 3.067-.582 4.478-.582 1.411 0 3.006.153 4.417.582-1.442.43-3.037.552-4.478.552z" fill="#89293A"/><path d="M17.923 15.875c-1.41 0-2.944-.122-4.417-.552 1.411-.429 3.067-.582 4.478-.582 1.411 0 3.006.153 4.417.582-1.442.43-3.037.552-4.478.552z" stroke="#211915" stroke-width=".204" stroke-miterlimit="2.613"/><path fill-rule="evenodd" clip-rule="evenodd" d="M15.53 14.342c.062 0 .123.061.123.123a.132.132 0 01-.123.122.132.132 0 01-.122-.122c0-.062.061-.123.122-.123z" fill="#89293A"/><path d="M15.53 14.342c.062 0 .123.061.123.123a.132.132 0 01-.123.122.132.132 0 01-.122-.122c0-.062.061-.123.122-.123z" stroke="#211915" stroke-width=".061" stroke-miterlimit="2.613"/><path fill-rule="evenodd" clip-rule="evenodd" d="M20.438 14.342a.132.132 0 00-.123.123c0 .06.062.122.123.122a.132.132 0 00.123-.122c.03-.062-.03-.123-.123-.123z" fill="#89293A"/><path d="M20.438 14.342a.132.132 0 00-.123.123c0 .06.062.122.123.122a.132.132 0 00.123-.122c.03-.062-.03-.123-.123-.123z" stroke="#211915" stroke-width=".061" stroke-miterlimit="2.613"/><path fill-rule="evenodd" clip-rule="evenodd" d="M17.985 14.127c.06 0 .122.061.122.123a.132.132 0 01-.122.123.132.132 0 01-.123-.123c0-.062.061-.123.123-.123z" fill="#89293A"/><path d="M17.985 14.127c.06 0 .122.061.122.123a.132.132 0 01-.122.123.132.132 0 01-.123-.123c0-.062.061-.123.123-.123z" stroke="#211915" stroke-width=".061" stroke-miterlimit="2.613"/><path fill-rule="evenodd" clip-rule="evenodd" d="M15.47 7.012c.061 0 .122.06.122.122a.132.132 0 01-.122.123.132.132 0 01-.123-.123c0-.061.062-.122.123-.122z" fill="#89293A"/><path d="M15.47 7.012c.061 0 .122.06.122.122a.132.132 0 01-.122.123.132.132 0 01-.123-.123c0-.061.062-.122.123-.122z" stroke="#211915" stroke-width=".061" stroke-miterlimit="2.613"/><path fill-rule="evenodd" clip-rule="evenodd" d="M20.438 7.012a.132.132 0 00-.123.122c0 .062.062.123.123.123a.132.132 0 00.123-.123c.03-.061-.03-.122-.123-.122z" fill="#89293A"/><path d="M20.438 7.012a.132.132 0 00-.123.122c0 .062.062.123.123.123a.132.132 0 00.123-.123c.03-.061-.03-.122-.123-.122z" stroke="#211915" stroke-width=".061" stroke-miterlimit="2.613"/><path fill-rule="evenodd" clip-rule="evenodd" d="M17.954 6.858c.062 0 .123.062.123.123a.132.132 0 01-.123.123.132.132 0 01-.123-.123c0-.061.031-.123.123-.123z" fill="#89293A"/><path d="M17.954 6.858c.062 0 .123.062.123.123a.132.132 0 01-.123.123.132.132 0 01-.123-.123c0-.061.031-.123.123-.123z" stroke="#211915" stroke-width=".061" stroke-miterlimit="2.613"/><path fill-rule="evenodd" clip-rule="evenodd" d="M15.53 10.63c.062 0 .123.062.123.123a.132.132 0 01-.123.123.132.132 0 01-.122-.122c0-.062.061-.123.122-.123z" fill="#89293A"/><path d="M15.53 10.63c.062 0 .123.062.123.123a.132.132 0 01-.123.123.132.132 0 01-.122-.122c0-.062.061-.123.122-.123z" stroke="#211915" stroke-width=".061" stroke-miterlimit="2.613"/><path fill-rule="evenodd" clip-rule="evenodd" d="M20.438 10.63a.132.132 0 00-.123.123c0 .062.062.123.123.123a.132.132 0 00.123-.122c.03-.062-.03-.123-.123-.123z" fill="#89293A"/><path d="M20.438 10.63a.132.132 0 00-.123.123c0 .062.062.123.123.123a.132.132 0 00.123-.122c.03-.062-.03-.123-.123-.123z" stroke="#211915" stroke-width=".061" stroke-miterlimit="2.613"/><path fill-rule="evenodd" clip-rule="evenodd" d="M17.985 10.477c.06 0 .122.062.122.123a.132.132 0 01-.122.123.132.132 0 01-.123-.123c0-.061.061-.123.123-.123z" fill="#89293A"/><path d="M17.985 10.477c.06 0 .122.062.122.123a.132.132 0 01-.122.123.132.132 0 01-.123-.123c0-.061.061-.123.123-.123z" stroke="#211915" stroke-width=".061" stroke-miterlimit="2.613"/><path fill-rule="evenodd" clip-rule="evenodd" d="M10.5 8.27c.092.275-.06.643-.245.889-.43.276-.276.766-.49 1.196-.307.644-.86 1.288-.829 2.085-.368.123-.95.43-1.288.246-.123-.03-.337-.215-.368-.338-.061-1.196.981-2.3 1.196-3.527 0-.521-.307-1.104-.03-1.564L10.5 8.269z" fill="#93938E"/><path d="M10.5 8.27c.092.275-.06.643-.245.889-.43.276-.276.766-.49 1.196-.307.644-.86 1.288-.829 2.085-.368.123-.95.43-1.288.246-.123-.03-.337-.215-.368-.338-.061-1.196.981-2.3 1.196-3.527 0-.521-.307-1.104-.03-1.564L10.5 8.269z" stroke="#fff" stroke-width=".061" stroke-miterlimit="2.613"/><path d="M10.5 8.27c.092.275-.06.643-.245.889-.43.276-.276.766-.49 1.196-.307.644-.86 1.288-.829 2.085-.368.123-.95.43-1.288.246-.123-.03-.337-.215-.368-.338-.061-1.196.981-2.3 1.196-3.527 0-.521-.307-1.104-.03-1.564m1.564.736c.122.245.061.552 0 .828-.092.062-.092.276-.246.246l.246-1.074zm-.522-.276c.123.215.123.521.062.828-.092.092-.092.276-.215.276l.153-1.104zm-.49-.276c.153.215.153.521.153.797-.061.092-.061.276-.215.307l.062-1.104z" stroke="#211915" stroke-width=".225" stroke-miterlimit="2.613"/><path fill-rule="evenodd" clip-rule="evenodd" d="M9.673 12.318c.49 1.226-1.473 3.404-1.657 4.968-.092.706.46 1.503.982 1.902v-2.454h.859l.552-1.165c.368-.736.613-1.411.675-2.147l-.92-.706c-.246-.214-.369-.337-.491-.398z" fill="#93938E"/><path d="M9.673 12.318c.49 1.226-1.473 3.404-1.657 4.968-.092.706.46 1.503.982 1.902v-2.454h.859l.552-1.165c.368-.736.613-1.411.675-2.147l-.92-.706c-.246-.214-.369-.337-.491-.398z" stroke="#211915" stroke-width=".221" stroke-miterlimit="2.613"/><path fill-rule="evenodd" clip-rule="evenodd" d="M25.468 8.27c-.092.275.062.643.246.889.43.276.276.766.49 1.196.307.644.86 1.288.829 2.085.368.123.95.43 1.288.246.122-.03.337-.215.368-.338.061-1.196-.982-2.3-1.196-3.527 0-.521.306-1.104.03-1.564l-2.055 1.012z" fill="#93938E"/><path d="M25.468 8.27c-.092.275.062.643.246.889.43.276.276.766.49 1.196.307.644.86 1.288.829 2.085.368.123.95.43 1.288.246.122-.03.337-.215.368-.338.061-1.196-.982-2.3-1.196-3.527 0-.521.306-1.104.03-1.564l-2.055 1.012z" stroke="#fff" stroke-width=".061" stroke-miterlimit="2.613"/><path d="M25.468 8.27c-.092.275.062.643.246.889.43.276.276.766.49 1.196.307.644.86 1.288.829 2.085.368.123.95.43 1.288.246.122-.03.337-.215.368-.338.061-1.196-.982-2.3-1.196-3.527 0-.521.306-1.104.03-1.564m-1.564.736c-.122.245-.061.552 0 .828.092.062.092.276.245.246l-.245-1.074zm.522-.276c-.123.215-.123.521-.062.828.092.092.092.276.215.276l-.153-1.104zm.521-.276c-.153.215-.153.521-.153.797.061.092.061.276.214.307l-.061-1.104z" stroke="#211915" stroke-width=".225" stroke-miterlimit="2.613"/><path fill-rule="evenodd" clip-rule="evenodd" d="M26.266 12.318c-.49 1.226 1.472 3.404 1.656 4.968.092.706-.46 1.503-.981 1.902v-2.454h-.86l-.551-1.165c-.368-.736-.614-1.411-.675-2.147l.92-.706c.215-.214.338-.337.49-.398z" fill="#93938E"/><path d="M26.266 12.318c-.49 1.226 1.472 3.404 1.656 4.968.092.706-.46 1.503-.981 1.902v-2.454h-.86l-.551-1.165c-.368-.736-.614-1.411-.675-2.147l.92-.706c.215-.214.338-.337.49-.398z" stroke="#211915" stroke-width=".221" stroke-miterlimit="2.613"/><path fill-rule="evenodd" clip-rule="evenodd" d="M9.397 14.127l-1.473-1.012c-.276-.215-.49-.399-.613-.797.368.736 1.258.184 1.626.092.429-.123.644-.154.797-.092.123.521-.03 1.135-.337 1.81z" fill="#89293A"/><path d="M9.397 14.127l-1.473-1.012c-.276-.215-.49-.399-.613-.797.368.736 1.258.184 1.626.092.429-.123.644-.154.797-.092.123.521-.03 1.135-.337 1.81z" stroke="#211915" stroke-width=".225" stroke-miterlimit="2.613"/><path fill-rule="evenodd" clip-rule="evenodd" d="M9.765 14.894l-.245-.123-.092.246.214.092-.43.95.246.092.43-.92.245.092.092-.214-.245-.123.46-.95-.246-.093-.429.95z" fill="#89293A"/><path d="M9.765 14.894l-.245-.123-.092.246.214.092-.43.95.246.092.43-.92.245.092.092-.214-.245-.123.46-.95-.246-.093-.429.95z" stroke="#211915" stroke-width=".227" stroke-miterlimit="2.613"/><path fill-rule="evenodd" clip-rule="evenodd" d="M26.542 14.127l1.472-1.012c.276-.215.491-.399.614-.797-.368.736-1.258.184-1.626.092-.43-.123-.644-.154-.797-.092-.123.521 0 1.135.337 1.81z" fill="#89293A"/><path d="M26.542 14.127l1.472-1.012c.276-.215.491-.399.614-.797-.368.736-1.258.184-1.626.092-.43-.123-.644-.154-.797-.092-.123.521 0 1.135.337 1.81z" stroke="#211915" stroke-width=".225" stroke-miterlimit="2.613"/><path fill-rule="evenodd" clip-rule="evenodd" d="M26.174 14.894l.245-.123.092.246-.245.092.46.95-.245.092-.43-.92-.245.092-.092-.214.214-.123-.429-.95.215-.093.46.95z" fill="#89293A"/><path d="M26.174 14.894l.245-.123.092.246-.245.092.46.95-.245.092-.43-.92-.245.092-.092-.214.214-.123-.429-.95.215-.093.46.95z" stroke="#211915" stroke-width=".227" stroke-miterlimit="2.613"/><path fill-rule="evenodd" clip-rule="evenodd" d="M20.96 14.986l-1.687-.184c-.154.644.061 1.38.675 1.902h1.81c-.461-.43-.829-1.074-.798-1.718z" fill="#89293A"/><path d="M20.96 14.986l-1.687-.184c-.154.644.061 1.38.675 1.902h1.81c-.461-.43-.829-1.074-.798-1.718z" stroke="#211915" stroke-width=".221" stroke-miterlimit="2.613"/><path fill-rule="evenodd" clip-rule="evenodd" d="M15.01 14.986l1.686-.184c.154.644-.061 1.38-.675 1.902h-1.81c.461-.43.829-1.074.798-1.718z" fill="#89293A"/><path d="M15.01 14.986l1.686-.184c.154.644-.061 1.38-.675 1.902h-1.81c.461-.43.829-1.074.798-1.718z" stroke="#211915" stroke-width=".221" stroke-miterlimit="2.613"/><path fill-rule="evenodd" clip-rule="evenodd" d="M13.783 32.223v-5.551c1.441.43 2.73-.614 4.202.276v5.766c-1.288-.797-2.362.368-4.202-.49z" fill="#fff"/><path d="M13.783 32.223v-5.551c1.441.43 2.73-.614 4.202.276v5.766c-1.288-.797-2.362.368-4.202-.49z" stroke="#89293A" stroke-width=".081" stroke-miterlimit="2.613"/><path fill-rule="evenodd" clip-rule="evenodd" d="M22.187 32.223v-5.551c-1.442.43-2.73-.614-4.202.276v5.766c1.288-.797 2.392.368 4.202-.49z" fill="#fff"/><path d="M22.187 32.223v-5.551c-1.442.43-2.73-.614-4.202.276v5.766c1.288-.797 2.392.368 4.202-.49z" stroke="#89293A" stroke-width=".081" stroke-miterlimit="2.613"/><path fill-rule="evenodd" clip-rule="evenodd" d="M20.684 31.088c.306-.858.828-1.84.276-2.668a1.337 1.337 0 00-1.043-.46c-.46.092-.798.307-1.012.797-.276.767.092 1.534.552 2.24-.154.122-.43.03-.644.03-.092-.061.061-.153 0-.245.061-.092.245 0 .368-.031-.338-.736-.767-1.718-.245-2.484.276-.4.889-.644 1.441-.583.43.092.706.368.92.828.307.767-.153 1.534-.399 2.331.123.03.246-.092.4-.03v.214c-.093.153-.369 0-.614.061z" fill="#211915"/><path d="M20.684 31.088c.306-.858.828-1.84.276-2.668a1.337 1.337 0 00-1.043-.46c-.46.092-.798.307-1.012.797-.276.767.092 1.534.552 2.24-.154.122-.43.03-.644.03-.092-.061.061-.153 0-.245.061-.092.245 0 .368-.031-.338-.736-.767-1.687-.245-2.484.276-.4.889-.644 1.441-.583.43.092.706.368.92.828.307.767-.153 1.534-.399 2.331.123.03.246-.092.4-.03v.214c-.093.153-.369 0-.614.061z" stroke="#211915" stroke-width="1.289" stroke-miterlimit="2.613"/><path fill-rule="evenodd" clip-rule="evenodd" d="M16.911 30.966c-.122-.092-.061 0-.184-.123-.03-.153.123-.061.154-.215l-.307-.705h-1.442l-.368.828c.062.03.123.03.215.03l.03.185h-.674l.03-.123c.062-.061.185-.03.215-.122l1.043-2.577c-.122-.03-.368 0-.521.061-.092-.03-.03-.214-.03-.306l1.533-.031c.03.092 0 .153.03.245l-.061.062c-.123.03-.276-.062-.43-.062l-.091.062 1.165 2.637.092.092v.093h-.399v-.031zm-1.687-1.258l.553-1.472.674 1.472h-1.227z" fill="#211915"/><path d="M16.911 30.966c-.122-.092-.061 0-.184-.123-.03-.153.123-.061.154-.215l-.307-.705h-1.442l-.368.828c.062.03.123.03.215.061l.03.184h-.674l.03-.122c.062-.062.185-.031.215-.123l1.043-2.576c-.122-.031-.368 0-.521.06-.092-.03-.03-.214-.03-.306l1.533-.03c.03.092 0 .153.03.245l-.03.061c-.123.03-.276-.061-.43-.061l-.092.061 1.166 2.638.092.092v.092h-.43v-.061zm-1.687-1.258l.553-1.472.674 1.472h-1.227z" stroke="#211915" stroke-width="1.289" stroke-miterlimit="2.613"/><path fill-rule="evenodd" clip-rule="evenodd" d="M6.851 50.84v2.792c0 .613.062.981.215 1.135.184.214.46.306.828.306h.368v.276h-4.11v-.276h.368c.4 0 .706-.122.86-.398.091-.154.153-.491.153-1.043v-6.226c0-.614-.062-.982-.184-1.135-.185-.215-.46-.307-.829-.307h-.368v-.276H7.68c.858 0 1.533.092 2.024.276.49.184.92.49 1.257.89.338.429.522.92.522 1.502 0 .798-.246 1.411-.767 1.902-.521.49-1.258.736-2.208.736-.215 0-.491-.03-.736-.061-.307.03-.614-.031-.92-.092zm0-.398c.246.03.46.092.675.092.184.03.368.03.49.03.492 0 .921-.183 1.29-.582.367-.368.52-.859.52-1.472 0-.43-.091-.798-.245-1.166-.184-.368-.399-.613-.736-.797a2.071 2.071 0 00-1.073-.276 3.8 3.8 0 00-.92.122v4.049zM18.874 45.995v-.276h3.405v.276h-.337c-.369 0-.675.153-.86.46-.091.153-.153.49-.153 1.012v3.895c0 .95-.092 1.718-.276 2.239-.184.521-.582.982-1.135 1.38-.552.368-1.318.583-2.3.583-1.043 0-1.84-.184-2.392-.552-.552-.368-.92-.859-1.166-1.472-.153-.43-.215-1.197-.215-2.362v-3.742c0-.583-.091-.981-.245-1.165-.153-.184-.43-.276-.797-.276h-.368v-.276h4.14v.276h-.368c-.399 0-.675.122-.859.368-.122.184-.184.521-.184 1.073v4.202c0 .368.031.797.092 1.288.062.491.184.859.369 1.135.184.276.429.49.766.675.338.184.767.276 1.258.276.644 0 1.196-.123 1.687-.399.49-.276.828-.613 1.012-1.043.184-.43.276-1.165.276-2.177v-3.896c0-.613-.061-.981-.184-1.134-.184-.215-.46-.307-.828-.307h-.338v-.061zM30.652 45.504l.215 3.282h-.215c-.307-.982-.705-1.687-1.258-2.117-.552-.43-1.196-.644-1.962-.644-.645 0-1.227.154-1.718.49-.521.338-.92.83-1.227 1.565-.307.706-.43 1.595-.43 2.638 0 .859.154 1.625.43 2.27a3.13 3.13 0 001.258 1.472c.552.337 1.196.521 1.932.521.613 0 1.165-.123 1.656-.399.49-.276 1.012-.797 1.564-1.595l.215.154c-.49.859-1.043 1.472-1.687 1.87-.644.4-1.41.584-2.3.584-1.595 0-2.822-.583-3.711-1.78-.645-.889-.982-1.9-.982-3.097 0-.95.215-1.84.644-2.638a4.747 4.747 0 011.78-1.87c.766-.43 1.563-.676 2.483-.676.706 0 1.38.184 2.056.522.183.092.337.153.429.153.123 0 .245-.03.337-.123.123-.122.215-.306.276-.52l.215-.062z" fill="#93938E"/><path fill-rule="evenodd" clip-rule="evenodd" d="M21.144 56.515c.368 0 .675.061.859.215a.664.664 0 01.306.582.926.926 0 01-.153.491.833.833 0 01-.49.245l.582.92c.061.093.123.154.153.185.031.03.093.061.123.061v.061h-.797v-.061h.03c.031 0 .031 0 .062-.03l.03-.031v-.061l-.644-1.013h-.92V59c0 .062 0 .092.03.123.031.03.062.03.124.061v.092h-.798v-.092c.062 0 .092-.03.123-.061.03-.03.03-.061.03-.123V56.76c0-.061 0-.092-.03-.122-.03-.031-.061-.031-.123-.062v-.092h1.503v.03zm.153.43h-1.104v.735h1.104c.184 0 .338-.03.4-.092.091-.06.122-.153.122-.276 0-.122-.03-.214-.123-.276-.092-.061-.215-.092-.399-.092zM25.04 59.03c0 .061 0 .092.03.123.03.03.061.03.122.06v.093h-.797v-.092c.061 0 .092-.03.123-.061.03-.031.03-.062.03-.123v-2.24c0-.06 0-.091-.03-.122-.031-.03-.062-.03-.123-.061v-.092h.797v.092c-.06.03-.091.03-.122.061-.03.03-.03.062-.03.123v2.239zM28.72 59.337c-.46 0-.859-.123-1.166-.399a1.329 1.329 0 01-.46-1.043c0-.43.154-.767.46-1.043.307-.276.675-.398 1.166-.398.46 0 .859.122 1.165.398.307.276.46.614.46 1.043 0 .43-.153.767-.46 1.043-.306.276-.705.399-1.165.399zm-1.104-1.442c0 .307.092.583.306.767.215.184.46.307.798.307.337 0 .583-.092.797-.307.215-.184.307-.46.307-.767s-.092-.583-.307-.767c-.214-.184-.46-.276-.797-.276-.338 0-.583.092-.798.276-.184.184-.306.46-.306.767z" fill="#15228A"/></svg>