<svg width="363" height="47" fill="none" xmlns="http://www.w3.org/2000/svg"><path d="M172.622 9.56c0-2.94 1.995-4.638 4.414-4.638 1.31 0 2.237.553 2.842 1.145L178.81 7.35c-.464-.395-.927-.71-1.713-.71-1.391 0-2.379 1.065-2.379 2.842 0 1.816.847 2.882 2.54 2.882.383 0 .746-.099.967-.276v-1.52h-1.491V8.929h3.305v4.067c-.624.592-1.713 1.066-2.983 1.066-2.479.04-4.434-1.52-4.434-4.501zM181.388 7.192h1.696l.143 1.21h.061c.511-.928 1.267-1.37 1.983-1.37.388 0 .633.06.837.14l-.347 1.753c-.245-.06-.47-.12-.756-.12-.511 0-1.165.342-1.533 1.268v3.99h-2.063v-6.87h-.021zM186.108 12.072c0-1.417 1.176-2.185 3.963-2.461-.041-.59-.351-.985-1.115-.985-.598 0-1.176.237-1.857.61l-.743-1.319c.887-.512 1.899-.886 3.013-.886 1.796 0 2.808.985 2.808 3.033v3.84h-1.714l-.144-.69h-.062c-.599.493-1.259.847-2.044.847-1.3.04-2.105-.847-2.105-1.989zm3.963-.079v-1.181c-1.486.197-1.961.59-1.961 1.103 0 .433.31.63.805.63.475.02.785-.197 1.156-.552zM193.526 10.466c0-2.23 1.44-3.596 2.964-3.596.794 0 1.274.282 1.754.724l-.084-1.045V4.22h2.109v9.683h-1.733l-.146-.683h-.063c-.501.482-1.21.843-1.899.843-1.754 0-2.902-1.346-2.902-3.596zm4.614 1.326V8.98a1.684 1.684 0 00-1.17-.442c-.668 0-1.273.603-1.273 1.908 0 1.346.48 1.969 1.294 1.969.46 0 .815-.18 1.149-.623zM201.617 11.29V7.031h2.003v3.998c0 .984.258 1.306.853 1.306.496 0 .813-.221 1.21-.764v-4.54h2.003v6.85h-1.646l-.159-.944h-.039c-.576.683-1.21 1.125-2.123 1.125-1.467-.02-2.102-1.064-2.102-2.772zM209.035 12.072c0-1.417 1.176-2.185 3.963-2.461-.041-.59-.351-.985-1.115-.985-.598 0-1.176.237-1.858.61l-.743-1.319c.888-.512 1.899-.886 3.014-.886 1.796 0 2.807.985 2.807 3.033v3.84h-1.713l-.144-.69h-.062c-.599.493-1.259.847-2.044.847-1.3.04-2.105-.847-2.105-1.989zm3.963-.079v-1.181c-1.486.197-1.961.59-1.961 1.103 0 .433.31.63.805.63.475.02.784-.197 1.156-.552zM218.218 16.756c1.036-.062 1.363-.227 1.363-.617 0-.288-.211-.473-1.018-.596l.557-1.193c-1.555-.246-2.668-1.562-2.668-3.639 0-2.343 1.593-3.68 3.398-3.68.806 0 1.42.309 1.919.74l-.902 1.337c-.326-.288-.576-.411-.883-.411-.941 0-1.536.78-1.536 1.994 0 1.213.615 1.994 1.459 1.994.423 0 .826-.226 1.171-.514l.768 1.357a2.934 2.934 0 01-1.593.781l-.307.74c.652.165.998.473.998 1.07 0 .965-.96 1.397-2.611 1.459l-.115-.822zM222.521 11.989c0-1.477 1.176-2.277 3.963-2.565-.041-.615-.351-1.026-1.115-1.026-.599 0-1.176.247-1.858.636l-.743-1.374c.888-.534 1.899-.923 3.014-.923 1.796 0 2.807 1.025 2.807 3.16v4h-1.713l-.145-.718h-.061c-.599.513-1.26.882-2.044.882-1.3.041-2.105-.882-2.105-2.072zm2.415-7.037c-.289 0-.434.225-.496.78l-1.3-.062c.041-1.457.66-2.154 1.754-2.154.888 0 1.383.902 1.837.902.289 0 .434-.246.496-.78l1.3.062c-.041 1.457-.66 2.154-1.754 2.154-.888 0-1.383-.902-1.837-.902zm1.548 6.955v-1.231c-1.486.205-1.961.615-1.961 1.149 0 .451.309.656.805.656.475.02.784-.205 1.156-.574zM229.938 10.547c0-2.24 1.625-3.516 3.372-3.516 1.746 0 3.371 1.277 3.371 3.516s-1.625 3.515-3.371 3.515c-1.747 0-3.372-1.276-3.372-3.515zm4.651 0c0-1.159-.426-1.905-1.279-1.905-.854 0-1.28.746-1.28 1.905s.426 1.905 1.28 1.905c.853 0 1.279-.727 1.279-1.905zM242.436 6.673h-2.384V4.922h6.743v1.75h-2.383v7.39h-1.976v-7.39zM246.795 10.547c0-2.18 1.567-3.516 3.193-3.516 1.924 0 2.876 1.395 2.876 3.221 0 .354-.04.707-.079.884h-4.046c.178.982.853 1.414 1.765 1.414.496 0 .972-.157 1.468-.452l.674 1.198c-.694.472-1.587.766-2.4.766-1.963 0-3.451-1.296-3.451-3.515zm4.364-.727c0-.746-.338-1.276-1.131-1.276-.635 0-1.17.412-1.309 1.276h2.44zM254.213 10.556c0-2.245 1.588-3.525 3.405-3.525.803 0 1.415.296 1.913.71l-.899 1.28c-.325-.276-.574-.395-.88-.395-.938 0-1.531.749-1.531 1.91 0 1.163.613 1.911 1.454 1.911.421 0 .823-.216 1.167-.492l.765 1.3c-.65.59-1.453.807-2.161.807-1.818.02-3.233-1.26-3.233-3.505zM260.956 4.922h5.395v1.75h-3.47V8.79h2.955v1.73h-2.955v3.542h-1.925v-9.14zM267.699 4.621c0-.659.436-1.105 1.011-1.105.593 0 1.012.446 1.012 1.105 0 .66-.419 1.127-1.012 1.127-.575 0-1.011-.468-1.011-1.127zm.139 2.19h1.762v7.251h-1.762v-7.25zM271.745 7.212h1.635l.138.864h.059c.571-.563 1.241-1.045 2.148-1.045 1.458 0 2.088 1.045 2.088 2.773v4.258h-1.99v-3.997c0-1.005-.256-1.306-.827-1.306-.493 0-.808.24-1.242.663v4.62h-1.99v-6.83h-.019zM172.622 23.934c0-2.248 1.466-4.248 3.623-4.248.835 0 1.425.413 1.771 1.031l-.753.598c-.264-.412-.59-.66-1.079-.66-1.465 0-2.442 1.63-2.442 3.196 0 1.134.448 1.918 1.628 1.918.387 0 .713-.144.937-.33l.325-1.608h-1.241l.183-.907h2.239l-.611 3.092c-.488.413-1.201.701-1.995.701-1.649.021-2.585-1.051-2.585-2.783zM179.034 21.912h.932l-.106.93h.042c.424-.6.996-1.046 1.631-1.046.233 0 .382.039.53.097l-.381.91c-.127-.058-.318-.077-.488-.077-.487 0-.995.349-1.419 1.085l-.614 2.907h-1.144l1.017-4.806zM182.062 24.771c0-2.055 1.252-3.677 2.562-3.677.463 0 .887.303 1.099.757h.019l.212-.627h.828l-.944 5.364h-.848l.058-.735h-.038c-.443.52-1.021.865-1.58.865-.829.022-1.368-.692-1.368-1.947zm3.044.087l.385-2.142c-.212-.454-.52-.649-.809-.649-.809 0-1.541 1.168-1.541 2.553 0 .779.27 1.146.713 1.146.404 0 .867-.26 1.252-.908zM191.422 20.864l.343-1.88h1.086l-1.449 7.606h-.885l.06-.726h-.04c-.463.513-1.067.855-1.651.855-.865 0-1.429-.684-1.429-1.923 0-2.03 1.308-3.632 2.677-3.632.483 0 .886.277 1.087.705h.04l.161-1.005zm-.765 4.017l.403-2.115c-.221-.449-.543-.64-.845-.64-.846 0-1.611 1.153-1.611 2.52 0 .77.282 1.133.745 1.133.423 0 .886-.257 1.308-.898zM196.603 26.602h-.888l.041-.679h-.041c-.504.427-1.069.795-1.674.795-.827 0-1.19-.446-1.19-1.221 0-.233.02-.426.081-.678l.625-3.023h1.089l-.605 2.887a1.93 1.93 0 00-.08.504c0 .407.201.62.625.62.343 0 .726-.232 1.23-.736l.666-3.275h1.089l-.968 4.806zM198.245 24.771c0-2.055 1.252-3.677 2.562-3.677.463 0 .887.303 1.099.757h.019l.212-.627h.828l-.944 5.364h-.847l.057-.735h-.038c-.443.52-1.021.865-1.58.865-.848.022-1.368-.692-1.368-1.947zm3.044.087l.385-2.142c-.211-.454-.52-.649-.809-.649-.809 0-1.541 1.168-1.541 2.553 0 .779.27 1.146.713 1.146.404 0 .867-.26 1.252-.908zM203.992 28.371c.782-.038 1.094-.19 1.134-.475.019-.21-.157-.342-.685-.4l.567-.816c-.801-.19-1.368-.836-1.368-1.863 0-1.69 1.271-3.021 2.776-3.021.586 0 .996.266 1.27.57l-.586.627c-.235-.247-.43-.361-.743-.361-.86 0-1.622.97-1.622 2.147 0 .704.332 1.122.977 1.122.371 0 .664-.171.918-.361l.45.646a2.553 2.553 0 01-1.407.532l-.313.494c.469.114.645.304.606.646-.078.627-.801.95-1.955.97l-.019-.457zM207.686 24.862c0-1.96 1.381-3.506 2.825-3.506.509 0 .977.289 1.21.722h.021l.234-.598h.913l-1.062 5.114h-.934l.064-.7h-.043c-.488.494-1.125.824-1.741.824-.914.02-1.487-.66-1.487-1.856zm3.334.083l.425-2.042c-.233-.433-.573-.619-.892-.619-.892 0-1.699 1.114-1.699 2.434 0 .742.297 1.093.786 1.093.467 0 .956-.248 1.38-.866zm-.7-5.115c-.277 0-.468.247-.553.701l-.785-.041c.191-.949.658-1.506 1.401-1.506.722 0 .871.763 1.359.763.277 0 .468-.247.553-.7l.785.04c-.191.928-.658 1.506-1.401 1.506-.722.02-.871-.763-1.359-.763zM213.08 24.806c0-1.799 1.422-3.01 2.803-3.01 1.155 0 1.917.738 1.917 1.912 0 1.78-1.422 3.01-2.824 3.01-1.154 0-1.896-.758-1.896-1.912zm3.587-1.08c0-.7-.31-1.116-.887-1.116-.804 0-1.566.946-1.566 2.139 0 .7.309 1.117.907 1.117.783.019 1.546-.928 1.546-2.14zM222.93 20.688h-1.758l.191-1.002h4.529l-.171 1.002h-1.759l-1.07 6.03h-1.051l1.089-6.03zM227.777 21.796c1.091 0 1.487.76 1.487 1.73 0 .417-.132.835-.207.987h-2.842c-.113.988.452 1.426 1.148 1.426.339 0 .696-.19.941-.38l.376.665a2.763 2.763 0 01-1.599.494c-1.111 0-1.863-.722-1.863-1.996.019-1.748 1.336-2.926 2.559-2.926zm.602 2.071c.038-.133.057-.266.057-.418 0-.456-.189-.874-.753-.874-.565 0-1.129.475-1.355 1.292h2.051zM229.938 24.806c0-1.685 1.27-3.01 2.775-3.01.587 0 .997.265 1.271.568l-.587.624c-.234-.246-.43-.36-.742-.36-.86 0-1.623.966-1.623 2.14 0 .7.333 1.117.978 1.117.371 0 .664-.17.918-.36l.45.644c-.371.265-.86.549-1.583.549-1.075 0-1.857-.7-1.857-1.912zM234.964 21.912h.88l-.06.678h.04c.52-.426 1.08-.794 1.7-.794.82 0 1.18.446 1.18 1.22 0 .233-.02.427-.08.679l-.62 3.023h-1.08l.6-2.887c.04-.233.08-.369.08-.504 0-.407-.2-.62-.62-.62-.34 0-.72.232-1.26.736l-.66 3.255h-1.08l.98-4.786zM240.052 24.806c0-1.799 1.219-3.01 2.403-3.01.989 0 1.643.738 1.643 1.912 0 1.78-1.219 3.01-2.42 3.01-.972 0-1.626-.758-1.626-1.912zm3.074-1.08c0-.7-.265-1.116-.759-1.116-.689 0-1.343.946-1.343 2.139 0 .7.265 1.117.777 1.117.689.019 1.325-.928 1.325-2.14zM245.447 25.863c0-.17.017-.342.069-.555l1.02-6.324h.934l-1.038 6.366c-.017.107-.017.171-.017.214 0 .171.069.235.156.235.051 0 .086 0 .155-.043l-.017.855a1.195 1.195 0 01-.536.107c-.501.021-.726-.32-.726-.855zM247.47 24.64c0-1.955 1.38-3.272 2.72-3.272 1.12 0 1.86.803 1.86 2.079 0 1.934-1.38 3.272-2.74 3.272-1.1 0-1.84-.824-1.84-2.079zm3.48-1.173c0-.761-.3-1.214-.86-1.214-.78 0-1.52 1.029-1.52 2.325 0 .762.3 1.215.88 1.215.78.02 1.5-1.009 1.5-2.326zm-1.2-3.519l1.78-1.667.66.865-1.96 1.44-.48-.638zM252.864 28.169l.428-.698c.338.29.73.523 1.193.523.659 0 1.087-.445 1.265-1.22l.231-.93c-.427.465-.908.756-1.442.756-.749 0-1.283-.562-1.283-1.686 0-1.743 1.122-3.118 2.316-3.118.427 0 .801.271.997.678h.036l.196-.562h.783l-.89 4.862c-.25 1.356-1.033 2.053-2.209 2.053-.588 0-1.158-.252-1.621-.659zm3.153-3.158l.338-1.782c-.213-.406-.463-.58-.73-.58-.712 0-1.371.987-1.371 2.13 0 .639.249.949.641.949.32.02.784-.213 1.122-.717zM259.329 21.806h1.156l-1.049 4.912h-1.178l1.071-4.912zm.192-1.426c0-.377.343-.694.771-.694.342 0 .664.199.664.555 0 .396-.343.693-.771.693-.343 0-.664-.198-.664-.554zM260.956 24.806c0-1.685 1.271-3.01 2.775-3.01.587 0 .997.265 1.271.568l-.586.624c-.235-.246-.43-.36-.743-.36-.86 0-1.622.966-1.622 2.14 0 .7.332 1.117.977 1.117.371 0 .664-.17.918-.36l.45.644c-.371.265-.86.549-1.583.549-1.075 0-1.857-.7-1.857-1.912zM265.002 24.771c0-2.055 1.431-3.677 2.928-3.677.529 0 1.013.303 1.255.757h.022l.243-.627h.946l-1.078 5.364h-.969l.066-.735h-.044c-.507.52-1.167.865-1.806.865-.969.022-1.563-.692-1.563-1.947zm3.479.087l.44-2.142c-.242-.454-.594-.649-.925-.649-.924 0-1.761 1.168-1.761 2.553 0 .779.308 1.146.815 1.146.462 0 .99-.26 1.431-.908zM275.405 21.796c1.273 0 1.734.76 1.734 1.73 0 .417-.154.835-.241.987h-3.316c-.131.988.527 1.426 1.34 1.426.395 0 .812-.19 1.097-.38l.439.665a3.602 3.602 0 01-1.866.494c-1.295 0-2.173-.722-2.173-1.996.022-1.748 1.559-2.926 2.986-2.926zm.68 2.071c.044-.133.066-.266.066-.418 0-.456-.219-.874-.878-.874s-1.317.475-1.581 1.292h2.393zM278.156 21.912h.952l-.065.678h.043c.541-.426 1.169-.794 1.753-.794.822 0 1.125.368 1.255.891.627-.542 1.276-.891 1.86-.891.887 0 1.277.446 1.277 1.22 0 .233-.043.427-.087.679l-.67 3.023h-1.169l.649-2.887c.065-.233.087-.369.087-.504 0-.407-.216-.62-.649-.62-.281 0-.736.232-1.277.736l-.735 3.275h-1.169l.649-2.887c.065-.233.087-.369.087-.504 0-.407-.216-.62-.649-.62-.281 0-.736.232-1.277.736l-.714 3.275h-1.168l1.017-4.806zM287.928 23.934c0-2.248 1.466-4.248 3.624-4.248.834 0 1.425.413 1.771 1.031l-.753.598c-.265-.412-.591-.66-1.079-.66-1.466 0-2.443 1.63-2.443 3.196 0 1.134.448 1.918 1.628 1.918.387 0 .713-.144.937-.33l.325-1.608h-1.241l.183-.907h2.219l-.611 3.092c-.488.413-1.201.701-1.995.701-1.649.021-2.565-1.051-2.565-2.783zM296.556 21.796c1.091 0 1.486.76 1.486 1.73 0 .417-.131.835-.207.987h-2.841c-.113.988.452 1.426 1.148 1.426.339 0 .696-.19.941-.38l.376.665a2.763 2.763 0 01-1.599.494c-1.111 0-1.863-.722-1.863-1.996.018-1.748 1.336-2.926 2.559-2.926zm.602 2.071c.038-.133.056-.266.056-.418 0-.456-.188-.874-.752-.874-.565 0-1.129.475-1.355 1.292h2.051zM298.042 25.81l.632-.493c.316.397.711.625 1.164.625.454 0 .849-.265.849-.606 0-.303-.256-.454-.868-.776-.652-.341-1.046-.739-1.046-1.306 0-.852.809-1.458 1.776-1.458.631 0 1.164.284 1.539.662l-.592.55c-.256-.247-.552-.436-.927-.436-.454 0-.77.265-.77.587 0 .34.414.511.829.738.73.379 1.085.738 1.085 1.325 0 .909-.809 1.496-1.934 1.496-.651 0-1.381-.379-1.737-.909zM302.912 25.53c0-.197.043-.375.064-.573l.534-2.392h-.747l.17-.791.811-.06.427-1.324h.96l-.277 1.325h1.28l-.192.85h-1.301l-.534 2.432c-.021.119-.043.237-.043.356 0 .356.171.534.619.534.192 0 .342-.06.491-.139l.213.752c-.256.099-.64.217-1.109.217-.961.02-1.366-.514-1.366-1.186zM306.134 24.862c0-1.96 1.381-3.506 2.825-3.506.51 0 .977.289 1.21.722h.022l.233-.598h.914l-1.041 5.114h-.935l.064-.7h-.042c-.489.494-1.126.824-1.742.824-.934.02-1.508-.66-1.508-1.856zm3.356.083l.425-2.042c-.234-.433-.574-.619-.892-.619-.892 0-1.699 1.114-1.699 2.434 0 .742.297 1.093.785 1.093.446 0 .956-.248 1.381-.866zm-.722-5.115c-.276 0-.467.247-.552.701l-.786-.041c.191-.949.658-1.506 1.401-1.506.723 0 .871.763 1.36.763.276 0 .467-.247.552-.7l.786.04c-.191.928-.659 1.506-1.402 1.506-.701.02-.85-.763-1.359-.763zM311.529 24.806c0-1.799 1.422-3.01 2.803-3.01 1.154 0 1.917.738 1.917 1.912 0 1.78-1.422 3.01-2.824 3.01-1.134 0-1.896-.758-1.896-1.912zm3.586-1.08c0-.7-.309-1.116-.886-1.116-.804 0-1.567.946-1.567 2.139 0 .7.31 1.117.907 1.117.804.019 1.546-.928 1.546-2.14zM320.168 19.686h3.498l-.166.98h-2.518l-.351 2.089h2.128l-.166.98h-2.11l-.537 2.983h-1l1.222-7.032zM324.723 21.806h1.166l-1.058 4.912h-1.165l1.057-4.912zm.195-1.426c0-.377.345-.694.776-.694.346 0 .669.199.669.555 0 .396-.345.693-.777.693-.345 0-.668-.198-.668-.554zM327.343 21.912h.88l-.06.678h.04c.52-.426 1.08-.794 1.7-.794.82 0 1.18.446 1.18 1.22 0 .233-.02.427-.08.679l-.62 3.023h-1.08l.6-2.887c.04-.233.08-.369.08-.504 0-.407-.2-.62-.62-.62-.34 0-.72.232-1.26.736l-.66 3.275h-1.08l.98-4.806zM331.758 24.771c0-2.055 1.252-3.677 2.562-3.677.463 0 .886.303 1.098.757h.02l.212-.627h.828l-.944 5.364h-.848l.058-.735h-.039c-.443.52-1.021.865-1.579.865-.848.022-1.368-.692-1.368-1.947zm3.044.087l.385-2.142c-.212-.454-.52-.649-.809-.649-.809 0-1.541 1.168-1.541 2.553 0 .779.269 1.146.713 1.146.404 0 .866-.26 1.252-.908zM338.132 21.912h.88l-.06.678h.04c.52-.426 1.08-.794 1.7-.794.82 0 1.18.446 1.18 1.22 0 .233-.02.427-.08.679l-.62 3.023h-1.08l.6-2.887c.04-.233.08-.369.08-.504 0-.407-.2-.62-.62-.62-.34 0-.72.232-1.26.736l-.66 3.275h-1.08l.98-4.806zM342.546 24.806c0-1.685 1.271-3.01 2.776-3.01.586 0 .997.265 1.27.568l-.586.624c-.235-.246-.43-.36-.743-.36-.86 0-1.622.966-1.622 2.14 0 .7.332 1.117.977 1.117.371 0 .665-.17.919-.36l.449.644c-.371.265-.86.549-1.583.549-1.075 0-1.857-.7-1.857-1.912zM349.579 21.796c1.273 0 1.734.76 1.734 1.73 0 .417-.154.835-.242.987h-3.315c-.131.988.527 1.426 1.34 1.426.395 0 .812-.19 1.097-.38l.439.665a3.602 3.602 0 01-1.866.494c-1.295 0-2.173-.722-2.173-1.996.022-1.748 1.559-2.926 2.986-2.926zm.702 2.071c.044-.133.066-.266.066-.418 0-.456-.22-.874-.878-.874-.659 0-1.317.475-1.581 1.292h2.393zM352.78 21.806h.874l-.793 4.912h-.874l.793-4.912zm.145-1.426c0-.377.259-.694.583-.694.259 0 .502.199.502.555 0 .396-.259.693-.583.693-.259 0-.502-.198-.502-.554zM355.027 21.912h.932l-.106.93h.042c.424-.6.996-1.046 1.631-1.046.233 0 .381.039.53.097l-.382.91c-.127-.058-.317-.077-.487-.077-.487 0-.995.349-1.419 1.085l-.614 2.907h-1.144l1.017-4.806zM358.056 24.771c0-2.055 1.252-3.677 2.562-3.677.462 0 .886.303 1.098.757h.019l.212-.627h.829l-.944 5.364h-.848l.058-.735h-.039c-.443.52-1.021.865-1.579.865-.848.022-1.368-.692-1.368-1.947zm3.044.087l.385-2.142c-.212-.454-.52-.649-.809-.649-.809 0-1.541 1.168-1.541 2.553 0 .779.269 1.146.712 1.146.405 0 .867-.26 1.253-.908zM173.83 32.343h1.006c1.683 0 2.506 1.08 2.506 2.732 0 2.435-1.134 4.299-3.256 4.299h-1.464l1.208-7.031zm.274 6.67c1.811 0 2.836-1.757 2.836-3.896 0-1.419-.695-2.393-2.141-2.393h-.658l-1.08 6.269h1.043v.02zM180.571 34.452c1.063 0 1.492.7 1.492 1.673 0 .33-.082.642-.143.817h-3.453c-.266 1.479.49 2.101 1.471 2.101.449 0 .879-.214 1.246-.467l.205.292c-.409.273-.92.506-1.492.506-1.144 0-1.88-.681-1.88-1.946-.02-1.77 1.288-2.976 2.554-2.976zm1.042 2.16c.041-.195.062-.35.062-.565 0-.642-.286-1.264-1.145-1.264-.878 0-1.736.759-2.002 1.828h3.085zM182.899 39.755l-.375 1.728h-.462l1.563-6.913H184l-.11.668h.044c.572-.413 1.211-.786 1.959-.786.947 0 1.563.609 1.563 1.709 0 1.826-1.431 3.28-2.884 3.28-.616 0-1.101-.334-1.409-.766h-.022l-.242 1.08zm.947-4.066l-.573 2.573c.396.59.815.825 1.321.825 1.277 0 2.444-1.414 2.444-2.848 0-.942-.462-1.433-1.211-1.433-.616 0-1.387.353-1.981.884zM188.131 37.688c0-1.802 1.37-3.236 2.781-3.236.59 0 1.033.31 1.328.756h.042l.211-.64h.358l-1.011 4.69h-.38l.127-.737h-.042c-.527.504-1.181.853-1.876.853-.948 0-1.538-.6-1.538-1.686zm3.498.31l.527-2.364c-.38-.6-.78-.852-1.265-.852-1.222 0-2.318 1.395-2.318 2.81 0 .949.443 1.414 1.138 1.414.675.02 1.307-.35 1.918-1.008zM194.571 34.571h.363l-.17.913h.042c.427-.575.96-1.032 1.622-1.032.149 0 .299.02.469.08l-.17.397c-.107-.04-.214-.08-.406-.08-.555 0-1.216.496-1.664 1.35l-.683 3.175h-.448l1.045-4.803zM196.96 38.416c0-.18.021-.32.042-.48l.689-3.153h-.794l.063-.32.815-.04.356-1.377h.376l-.293 1.377h1.38l-.083.36h-1.38l-.69 3.174c-.021.12-.042.24-.042.379 0 .439.167.679.711.679.251 0 .439-.1.606-.18l.125.32c-.209.1-.48.219-.815.219-.795 0-1.066-.44-1.066-.958zM199.594 37.688c0-1.802 1.37-3.236 2.782-3.236.59 0 1.032.31 1.327.756h.042l.211-.64h.358l-1.011 4.69h-.379l.126-.737h-.042c-.527.504-1.18.853-1.875.853-.949 0-1.539-.6-1.539-1.686zm3.498.31l.527-2.364c-.379-.6-.78-.852-1.264-.852-1.222 0-2.318 1.395-2.318 2.81 0 .949.442 1.414 1.138 1.414.653.02 1.306-.35 1.917-1.008zM205.967 34.57h.332l-.118.748h.04c.527-.492 1.114-.866 1.583-.866.782 0 1.075.453 1.094.985.645-.63 1.271-.985 1.72-.985.782 0 1.114.473 1.114 1.162 0 .236-.019.374-.078.65l-.606 3.07h-.41l.606-3.012c.058-.295.078-.433.078-.61 0-.59-.254-.886-.821-.886-.313 0-.919.295-1.583 1.004l-.704 3.524h-.41l.606-3.012c.058-.295.078-.433.078-.61 0-.59-.254-.886-.821-.886-.313 0-.919.295-1.564 1.004l-.703 3.524h-.411l.978-4.804zM214.96 34.452c1.063 0 1.492.7 1.492 1.673 0 .33-.082.642-.143.817h-3.453c-.266 1.479.49 2.101 1.471 2.101.45 0 .879-.214 1.246-.467l.205.292c-.409.273-.92.506-1.492.506-1.144 0-1.88-.681-1.88-1.946-.02-1.77 1.288-2.976 2.554-2.976zm1.043 2.16c.04-.195.061-.35.061-.565 0-.642-.286-1.264-1.144-1.264-.879 0-1.737.759-2.003 1.828h3.086zM218.243 34.57h.388l-.137.752h.046c.684-.494 1.299-.87 1.984-.87.934 0 1.322.474 1.322 1.166 0 .237-.023.376-.091.653l-.707 3.083h-.479l.707-3.024c.068-.297.091-.435.091-.613 0-.593-.296-.89-.98-.89-.479 0-1.118.297-1.961 1.009l-.821 3.538h-.479l1.117-4.803zM222.583 38.416c0-.18.021-.32.042-.48l.69-3.153h-.794l.062-.32.816-.04.355-1.377h.376l-.292 1.377h1.38l-.084.36h-1.38l-.69 3.174c-.021.12-.042.24-.042.379 0 .439.168.679.711.679.251 0 .439-.1.607-.18l.125.32c-.209.1-.481.219-.815.219-.795 0-1.067-.44-1.067-.958zM225.218 37.514c0-1.764 1.393-3.062 2.877-3.062 1.124 0 1.843.678 1.843 1.86 0 1.744-1.394 3.062-2.877 3.062-1.124 0-1.843-.678-1.843-1.86zm4.248-1.163c0-1.008-.517-1.55-1.416-1.55-1.169 0-2.36 1.22-2.36 2.655 0 1.007.517 1.57 1.416 1.57 1.169 0 2.36-1.222 2.36-2.675zM236.553 33.84l.401-2.2h.401l-1.395 7.608h-.344l.115-.796h-.038c-.478.545-1.07.922-1.701.922-.803 0-1.357-.65-1.357-1.824 0-1.949 1.242-3.5 2.523-3.5.535 0 .936.335 1.185.818h.038l.172-1.028zm-.746 4.025l.478-2.557c-.344-.65-.707-.923-1.146-.923-1.109 0-2.102 1.51-2.102 3.04 0 1.027.401 1.53 1.031 1.53.593.02 1.185-.378 1.739-1.09zM240.584 34.452c1.062 0 1.491.7 1.491 1.673 0 .33-.082.642-.143.817h-3.453c-.266 1.479.49 2.101 1.471 2.101.45 0 .879-.214 1.247-.467l.204.292c-.409.273-.92.506-1.492.506-1.144 0-1.879-.681-1.879-1.946-.021-1.77 1.287-2.976 2.554-2.976zm1.042 2.16c.041-.195.061-.35.061-.565 0-.642-.286-1.264-1.124-1.264-.878 0-1.737.759-2.002 1.828h3.065zM246.907 32.343h.457l.78 7.03h-.418l-.248-2.448h-2.417l-1.18 2.449h-.457l3.483-7.031zm-1.675 4.223h2.189l-.152-1.352c-.076-.78-.152-1.562-.229-2.407h-.038c-.38.845-.742 1.584-1.142 2.407l-.628 1.352zM253.41 33.84l.402-2.2h.401l-1.395 7.608h-.344l.114-.796h-.038c-.477.545-1.07.922-1.701.922-.802 0-1.356-.65-1.356-1.824 0-1.949 1.242-3.5 2.522-3.5.535 0 .937.335 1.185.818h.038l.172-1.028zm-.764 4.025l.478-2.557c-.344-.65-.708-.923-1.147-.923-1.108 0-2.102 1.51-2.102 3.04 0 1.027.401 1.53 1.032 1.53.611.02 1.185-.378 1.739-1.09zM255.864 34.57h.333l-.118.748h.04c.527-.492 1.114-.866 1.583-.866.782 0 1.075.453 1.094.985.645-.63 1.271-.985 1.72-.985.782 0 1.114.473 1.114 1.162 0 .236-.019.374-.078.65l-.606 3.07h-.41l.606-3.012c.058-.295.078-.433.078-.61 0-.59-.254-.886-.821-.886-.313 0-.919.295-1.583 1.004l-.704 3.524h-.41l.606-3.012c.058-.295.078-.433.078-.61 0-.59-.254-.886-.821-.886-.313 0-.919.295-1.564 1.004l-.703 3.524h-.411l.977-4.804zM263.348 34.384h.457l-1.044 4.99h-.457l1.044-4.99zm.153-1.567a.47.47 0 01.456-.474c.196 0 .37.144.37.35a.452.452 0 01-.457.454c-.217.02-.369-.124-.369-.33zM265.96 34.57h.332l-.117.752h.039c.586-.494 1.114-.87 1.7-.87.801 0 1.134.474 1.134 1.166 0 .237-.02.376-.078.653l-.606 3.083h-.411l.606-3.024c.059-.297.078-.435.078-.613 0-.593-.254-.89-.84-.89-.411 0-.958.297-1.681 1.009l-.704 3.538h-.41l.958-4.803zM270.766 34.384h.457l-1.044 4.99h-.457l1.044-4.99zm.152-1.567a.47.47 0 01.457-.474c.196 0 .37.144.37.35a.452.452 0 01-.457.454c-.217.02-.37-.124-.37-.33zM271.745 38.535l.274-.213c.257.408.697.738 1.265.738.604 0 1.136-.447 1.136-.991 0-.37-.165-.623-.843-1.011-.788-.448-1.081-.778-1.081-1.284 0-.797.641-1.322 1.392-1.322.495 0 .917.233 1.228.564l-.256.253c-.239-.272-.55-.486-.99-.486-.568 0-1.026.428-1.026.914 0 .447.385.68.825.933.952.544 1.117.914 1.117 1.341 0 .856-.659 1.4-1.557 1.4-.641.04-1.228-.408-1.484-.836zM276.512 38.416c0-.18.016-.32.031-.48l.518-3.153h-.596l.047-.32.611-.04.267-1.377h.282l-.219 1.377h1.035l-.063.36h-1.035l-.517 3.174c-.016.12-.032.24-.032.379 0 .439.126.679.533.679.189 0 .33-.1.455-.18l.094.32c-.157.1-.36.219-.611.219-.596 0-.8-.44-.8-.958zM279.999 34.571h.29l-.137.913h.034c.342-.575.769-1.032 1.298-1.032.119 0 .239.02.375.08l-.136.397c-.086-.04-.171-.08-.325-.08-.443 0-.973.496-1.331 1.35l-.546 3.175h-.359l.837-4.803zM281.859 37.688c0-1.802 1.37-3.236 2.782-3.236.59 0 1.032.31 1.327.756h.043l.21-.64h.359l-1.012 4.69h-.379l.126-.737h-.042c-.527.504-1.18.853-1.875.853-.928 0-1.539-.6-1.539-1.686zm3.498.31l.527-2.364c-.379-.6-.78-.852-1.264-.852-1.222 0-2.318 1.395-2.318 2.81 0 .949.442 1.414 1.138 1.414.674.02 1.327-.35 1.917-1.008zM287.633 41.228c.864-.04 1.306-.255 1.306-.59 0-.274-.232-.412-.716-.451l.527-.766c-.907-.118-1.497-.786-1.497-1.866 0-1.846 1.391-3.103 2.761-3.103.59 0 .948.236 1.285.57l-.274.275c-.316-.354-.569-.491-1.032-.491-1.159 0-2.276 1.237-2.276 2.69 0 1.022.464 1.591 1.412 1.591.506 0 .948-.236 1.327-.49l.232.294c-.379.255-.885.55-1.538.55l-.358.55c.484.117.611.294.611.57-.021.588-.696.903-1.707.922l-.063-.255zM291.3 37.53c0-1.97 1.294-3.538 2.629-3.538.557 0 .976.339 1.254.826h.04l.199-.7h.339l-.956 5.129h-.358l.119-.805h-.04c-.498.55-1.115.932-1.772.932-.897 0-1.454-.657-1.454-1.844zm3.306.34l.498-2.586c-.359-.657-.737-.932-1.195-.932-1.155 0-2.191 1.526-2.191 3.073 0 1.038.418 1.546 1.076 1.546.617.022 1.234-.381 1.812-1.102zM293.63 32c-.358 0-.578.445-.697 1.017l-.339-.021c.16-.678.458-1.356 1.076-1.356.717 0 .757 1.038 1.314 1.038.359 0 .578-.466.697-.996l.339.021c-.159.657-.458 1.356-1.076 1.356-.697 0-.736-1.06-1.314-1.06zM296.694 37.514c0-1.764 1.393-3.062 2.877-3.062 1.124 0 1.843.678 1.843 1.86 0 1.744-1.394 3.062-2.877 3.062-1.124 0-1.843-.678-1.843-1.86zm4.226-1.163c0-1.008-.517-1.55-1.417-1.55-1.168 0-2.36 1.22-2.36 2.655 0 1.007.517 1.57 1.416 1.57 1.169 0 2.361-1.222 2.361-2.675z" fill="#F7944B"/><path d="M161.158 0h-44.504v46.405h44.504V0z" fill="#000"/><path fill-rule="evenodd" clip-rule="evenodd" d="M123.816 21.55v4.098c0 .895.099 1.436.275 1.644.256.312.629.457 1.12.457h.51v.375h-5.695v-.375h.491c.569 0 .962-.187 1.198-.582.137-.208.196-.728.196-1.519v-9.111c0-.894-.078-1.435-.255-1.643-.255-.312-.628-.458-1.139-.458h-.491v-.374h4.871c1.198 0 2.121.124 2.808.395.687.25 1.257.707 1.728 1.31.472.624.707 1.352.707 2.184 0 1.145-.353 2.08-1.08 2.809-.707.728-1.728 1.081-3.044 1.081a6.32 6.32 0 01-1.041-.083c-.314-.062-.727-.124-1.159-.208zm0-.603c.354.062.648.125.923.146.275.041.491.041.688.041.687 0 1.276-.27 1.767-.832.491-.561.747-1.269.747-2.163 0-.604-.118-1.186-.354-1.706-.235-.52-.569-.915-1.001-1.186-.432-.27-.923-.395-1.473-.395-.334 0-.766.062-1.297.187v5.908zM140.949 14.426v-.364h4.701v.364h-.51c-.528 0-.92.223-1.194.69-.137.202-.216.688-.216 1.458v5.572c0 1.378-.137 2.452-.391 3.202-.275.77-.784 1.418-1.567 1.965-.784.547-1.822.81-3.154.81-1.449 0-2.546-.263-3.29-.79a4.256 4.256 0 01-1.586-2.087c-.216-.607-.314-1.722-.314-3.383v-5.37c0-.851-.117-1.398-.333-1.661-.215-.264-.587-.406-1.097-.406h-.509v-.364h5.739v.364h-.509c-.549 0-.941.183-1.176.527-.156.243-.235.75-.235 1.52v5.977c0 .527.04 1.155.138 1.824.097.689.274 1.236.509 1.62.254.386.607.71 1.077.953.47.264 1.038.385 1.723.385a4.7 4.7 0 002.331-.587c.686-.385 1.156-.892 1.41-1.5.255-.608.372-1.641.372-3.1v-5.552c0-.851-.097-1.398-.274-1.6-.254-.305-.626-.447-1.136-.447h-.509v-.02zM157.13 13.422l.299 4.783h-.299c-.418-1.435-.995-2.475-1.751-3.099-.756-.624-1.671-.956-2.746-.956-.895 0-1.711.228-2.427.707-.716.478-1.293 1.227-1.711 2.267-.418 1.04-.617 2.329-.617 3.868 0 1.268.199 2.391.597 3.327.398.936.975 1.643 1.771 2.142.776.5 1.671.749 2.686.749.875 0 1.651-.188 2.328-.583.676-.395 1.413-1.164 2.209-2.329l.318.208c-.677 1.248-1.472 2.184-2.368 2.745-.895.582-1.97.874-3.203.874-2.229 0-3.96-.874-5.194-2.6-.915-1.29-1.373-2.807-1.373-4.554 0-1.414.299-2.704.896-3.89a6.77 6.77 0 012.487-2.744 6.524 6.524 0 013.462-.978c.975 0 1.93.25 2.885.749.279.146.478.229.597.229a.565.565 0 00.458-.208c.179-.187.298-.437.378-.77h.318v.063zM143.772 29.552c.503 0 .909.107 1.18.32.271.215.407.515.407.9 0 .3-.077.536-.232.728-.155.193-.368.322-.659.386l.814 1.413c.077.129.154.236.193.279.058.042.116.085.174.085v.086h-1.103v-.086h.039c.038 0 .058-.021.077-.042.019-.022.039-.043.039-.065 0-.021 0-.021-.02-.043 0-.021-.019-.021-.019-.042l-.89-1.542h-1.259v1.413c0 .086.02.15.039.193.019.043.077.064.155.086v.107h-1.103v-.108c.096-.02.135-.042.174-.085a.472.472 0 00.038-.193v-3.405a.473.473 0 00-.038-.193c-.02-.042-.078-.064-.174-.085v-.129h2.168v.022zm.213.663h-1.491v1.093h1.491c.251 0 .445-.043.561-.129.116-.085.174-.235.174-.428 0-.171-.058-.321-.174-.407-.136-.086-.31-.129-.561-.129zM149.435 33.361c0 .087.024.151.047.194.024.043.095.065.213.086v.108h-1.348v-.108a.473.473 0 00.213-.086.406.406 0 00.047-.194V29.94a.406.406 0 00-.047-.194c-.024-.043-.095-.064-.213-.086v-.129h1.348v.13a.474.474 0 00-.213.085.406.406 0 00-.047.194v3.422zM154.732 33.749c-.683 0-1.242-.207-1.677-.6a1.971 1.971 0 01-.662-1.51c0-.62.227-1.116.662-1.509.435-.393 1.014-.6 1.698-.6.683 0 1.242.207 1.697.6.435.393.663.91.663 1.51s-.228 1.116-.663 1.51c-.455.392-1.035.599-1.718.599zm-1.573-2.13c0 .476.144.848.434 1.137.29.29.683.435 1.16.435.476 0 .848-.145 1.138-.435.29-.29.435-.661.435-1.137 0-.455-.145-.827-.435-1.117-.29-.29-.683-.413-1.159-.413s-.87.144-1.159.413c-.27.29-.414.662-.414 1.117z" fill="#fff"/><path d="M68.78 13.36h2.632v.725h-1.856v1.274h1.575v.725h-1.575v1.472h1.92v.725H68.78V13.36zM72.15 17.542l.391-.57c.26.316.633.549.986.549.428 0 .65-.233.65-.613s-.24-.507-.576-.697l-.52-.274c-.373-.19-.763-.57-.763-1.247 0-.76.52-1.33 1.265-1.33.446 0 .855.232 1.153.612l-.335.528c-.242-.253-.502-.401-.818-.401-.354 0-.596.21-.596.549 0 .38.28.507.596.676l.502.274c.446.233.763.592.763 1.268 0 .76-.503 1.415-1.34 1.415a1.922 1.922 0 01-1.358-.74zM75.522 15.83c0-1.541.892-2.47 2.002-2.47.543 0 .978.274 1.261.59l-.413.55c-.218-.253-.479-.401-.827-.401-.717 0-1.218.655-1.218 1.71 0 1.078.479 1.733 1.218 1.733.392 0 .696-.19.936-.486l.413.528c-.348.444-.805.697-1.392.697-1.11-.02-1.98-.887-1.98-2.45zM78.894 15.8c0-1.55.818-2.44 2.022-2.44 1.205 0 2.023.912 2.023 2.44 0 1.548-.818 2.481-2.022 2.481-1.183 0-2.023-.933-2.023-2.482zm3.204 0c0-1.062-.454-1.72-1.181-1.72-.728 0-1.183.637-1.183 1.72 0 1.06.455 1.76 1.183 1.76.727 0 1.181-.7 1.181-1.76zM83.614 13.36h.607v4.196h1.416v.725h-2.023V13.36zM87.59 13.36h.813l1.28 4.921h-.737l-.6-2.614c-.117-.528-.233-1.077-.35-1.627h-.02c-.115.55-.212 1.1-.348 1.627l-.6 2.614h-.718l1.28-4.922zm-.524 2.9h1.841v.68h-1.84v-.68zM68.801 21.094h1.19c1.367 0 2.16.813 2.16 2.439 0 1.626-.816 2.483-2.138 2.483H68.78v-4.922h.022zm1.146 4.218c.904 0 1.41-.57 1.41-1.78 0-1.208-.506-1.735-1.41-1.735h-.352v3.515h.352zM72.824 21.094h2.633v.747H73.6v1.252h1.575v.747h-1.575v1.45h1.92v.726h-2.697v-4.922zM77.545 21.094h.66l1.126 2.768.375 1.055h.018c-.036-.505-.09-1.143-.09-1.692v-2.131h.608v4.922h-.66l-1.126-2.769-.375-1.055h-.018c.036.528.09 1.121.09 1.67v2.154h-.608v-4.922zM81.59 21.094h2.633v.747h-1.85v1.252h1.567v.747h-1.566v1.45h1.914v.726h-2.697v-4.922zM84.288 23.565c0-1.542.885-2.471 2.023-2.471.61 0 1.011.296 1.285.591l-.4.55c-.211-.233-.464-.402-.864-.402-.759 0-1.265.655-1.265 1.711 0 1.077.443 1.732 1.307 1.732a.972.972 0 00.61-.211v-1.014h-.8v-.697h1.475v2.091c-.274.317-.78.57-1.349.57-1.18 0-2.022-.887-2.022-2.45zM88.334 23.588c0-1.515.681-2.386 1.685-2.386s1.686.892 1.686 2.386c0 1.514-.682 2.427-1.686 2.427-1.004.02-1.686-.913-1.686-2.427zm2.67 0c0-1.038-.379-1.68-.985-1.68s-.985.622-.985 1.68c0 1.037.38 1.722.985 1.722.606 0 .985-.664.985-1.722zm-1.364-2.946l.91-.954.36.539-.985.83-.285-.415zM93.054 23.565c0-1.542.714-2.471 1.601-2.471.435 0 .783.274 1.01.591l-.331.55c-.174-.254-.383-.402-.661-.402-.575 0-.975.655-.975 1.711 0 1.077.383 1.732.975 1.732.313 0 .556-.19.748-.486l.33.529c-.278.443-.643.697-1.113.697-.888 0-1.584-.888-1.584-2.45zM97.1 21.094h-.675v4.922h.675v-4.922zM97.773 23.533c0-1.548.819-2.44 2.023-2.44 1.205 0 2.023.913 2.023 2.44 0 1.549-.818 2.482-2.023 2.482-1.204.021-2.023-.933-2.023-2.482zm3.205 0c0-1.06-.454-1.718-1.182-1.718-.727 0-1.182.636-1.182 1.718 0 1.06.455 1.761 1.182 1.761.705 0 1.182-.679 1.182-1.76zM101.82 25.276l.488-.57c.326.317.791.55 1.232.55.535 0 .814-.233.814-.614 0-.38-.302-.506-.721-.697l-.651-.274c-.465-.19-.953-.57-.953-1.247 0-.76.651-1.33 1.581-1.33.558 0 1.07.232 1.442.612l-.419.528c-.302-.253-.628-.4-1.023-.4-.442 0-.744.21-.744.548 0 .38.349.507.744.676l.628.275c.558.232.953.591.953 1.267 0 .76-.627 1.416-1.674 1.416-.651-.043-1.255-.296-1.697-.74zM68.78 28.828h1.519c1.068 0 1.852.32 1.852 1.3 0 .941-.784 1.374-1.828 1.374h-.689v1.545h-.855v-4.219zm1.471 2.053c.713 0 1.045-.245 1.045-.772 0-.528-.38-.697-1.092-.697h-.594v1.469h.641zM72.824 31.16v-2.332h.635v2.387c0 .906.282 1.202.723 1.202.44 0 .74-.296.74-1.202v-2.387h.6v2.331c0 1.37-.512 1.887-1.34 1.887-.829.019-1.358-.518-1.358-1.887zM76.196 30.947c0-1.322.892-2.119 2.001-2.119.544 0 .98.236 1.262.507l-.413.47a1.112 1.112 0 00-.827-.343c-.718 0-1.218.561-1.218 1.466 0 .924.479 1.485 1.218 1.485.392 0 .696-.163.936-.416l.413.452c-.348.38-.805.598-1.392.598-1.11 0-1.98-.743-1.98-2.1zM81.59 30.936h-1.348v.704h1.349v-.704zM82.265 28.828h1.529c.944 0 1.663.3 1.663 1.256 0 .9-.72 1.313-1.663 1.313h-.72v1.65h-.809v-4.219zm1.439 1.95c.629 0 .966-.244.966-.712 0-.488-.337-.657-.966-.657h-.652v1.37h.652zm-.068.394l.585-.45 1.416 2.287h-.9l-1.1-1.837zM86.985 28.828h-.674v4.219h.674v-4.219zM87.66 30.92c0-1.328.681-2.092 1.685-2.092s1.686.782 1.686 2.091c0 1.328-.682 2.128-1.686 2.128s-1.686-.819-1.686-2.128zm2.67 0c0-.91-.379-1.474-.985-1.474s-.985.546-.985 1.473c0 .91.379 1.51.985 1.51.606-.019.985-.6.985-1.51zM10.59 9.705c1.63 0 2.861-1.143 2.861-2.743 0-1.621-1.212-2.743-2.86-2.743-1.63 0-2.862 1.101-2.862 2.743.02 1.6 1.232 2.743 2.861 2.743zm41.447 20.096H48.52c-2.384 0-3.199-.707-3.199-1.87 0-.915.378-1.434.954-1.975.874.354 1.828.54 2.662.54 4.173 0 7.49-2.452 7.49-7.023 0-.54-.039-1.04-.098-1.518l8.404-5.922-1.987-3.014-7.967 5.59c-.795-.955-1.788-1.745-2.94-2.181-.875-.333-1.849-.5-2.922-.5-4.132 0-7.788 2.66-7.788 7.399 0 1.621.556 3.034 1.331 4.115l-7.332 5.174-.06-7.772c0-5.736-2.423-8.915-7.35-8.915-3.14 0-5.922 1.267-8.087 2.701l1.708 3.222c1.729-1.102 3.577-2.037 5.544-2.037 2.662 0 3.517 1.85 3.576 4.052-4.49.5-7.57 1.434-9.418 2.93l.1-.083-8.286 5.902V12.428H0v3.678h8.683v16.937h4.192l6.1-4.364c.417 3.013 2.642 4.863 5.742 4.863 2.325 0 4.351-1.206 6.12-2.785h.119l.358 2.286h3.794l6.478-4.572c-.02.145-.02.166-.02.312 0 1.662.775 2.743 1.788 3.45v.166c-1.808 1.143-2.841 2.66-2.841 4.405 0 3.616 3.497 5.383 8.206 5.383 6.437 0 10.51-3.2 10.51-7.274.02-3.595-2.483-5.112-7.192-5.112zm-3.08-14.547c1.928 0 3.418 1.475 3.418 4.052 0 2.619-1.53 4.156-3.418 4.156-1.887 0-3.417-1.537-3.417-4.156 0-2.598 1.49-4.052 3.417-4.052zM30.5 27.515c-1.47 1.413-2.682 2.224-4.292 2.224-1.649 0-2.841-.79-2.841-2.619 0-2.078 1.788-3.533 7.133-4.24v4.635zm18.935 11.492c-3.1 0-5.027-1.101-5.027-2.972 0-.955.457-1.87 1.53-2.722.755.208 1.61.291 2.663.291h2.702c2.265 0 3.477.478 3.477 2.057 0 1.788-2.166 3.346-5.345 3.346z" fill="#000"/></svg>