<svg width="1440" height="1115" fill="none" xmlns="http://www.w3.org/2000/svg"><path d="M0 0h1440v395c0 397.645-322.35 720-720 720C322.355 1115 0 792.645 0 395V0z" fill="#FFB783"/><g opacity=".5" fill="#F7944B"><path d="M1059.21 566.717H1041v52.758h18.21v-52.758zM1293 583.86h-18.21v35.614H1293V583.86zM1136.51 496h-18.21v123.474h18.21V496zM1175.14 563.962h-18.22v55.512h18.22v-55.512zM1213.81 548.247h-18.21v71.227h18.21v-71.227zM1097.84 531.869h-18.22v87.605h18.22v-87.605zM1252.59 511.562h-18.21v107.913h18.21V511.562z"/></g><g opacity=".3" fill="#F7944B"><path d="M791.578 918.537H785v19.051h6.578v-19.051zM876 924.728h-6.578v12.86H876v-12.86zM819.491 893h-6.577v44.588h6.577V893zM833.439 917.542h-6.578v20.046h6.578v-20.046zM847.405 911.867h-6.578v25.721h6.578v-25.721zM805.525 905.953h-6.577v31.635h6.577v-31.635zM861.408 898.62h-6.578v38.968h6.578V898.62z"/></g><g opacity=".8"><path d="M524.345 1007.18a3.313 3.313 0 01-2.988-1.83 3.325 3.325 0 011.494-4.48l114.127-57.187 58.848-56.607 54.615-114.21c.166-.415.498-.747.747-1.079l62.085-55.362a3.281 3.281 0 012.905-.747c.996.249 1.909.913 2.324 1.826l52.374 112.633 62.251 110.558 46.896-53.868c.581-.664 1.494-1.079 2.407-1.162.913-.083 1.826.332 2.49.996l53.29 53.536 55.69-167.082c.17-.498.42-.913.83-1.328l114.54-114.791c1.33-1.328 3.41-1.328 4.73 0a3.304 3.304 0 010 4.731l-113.96 114.21-57.18 171.398c-.34 1.079-1.25 1.909-2.41 2.158-1.08.249-2.33-.083-3.07-.913l-54.618-54.864-47.643 54.698c-.747.83-1.743 1.245-2.822 1.162-1.079-.083-1.992-.747-2.573-1.66l-64.575-114.791c-.083-.083-.083-.166-.083-.249l-50.548-108.649-58.267 51.959-54.615 114.21c-.166.332-.415.664-.664.996l-59.678 57.354a2.981 2.981 0 01-.83.581l-114.542 57.353c-.581.33-1.079.5-1.577.5z" fill="#36C795"/><path d="M524.345 1007.18c-.83 0-1.66-.33-2.324-.92-1.328-1.24-1.328-3.4-.083-4.73l167.995-172.141c1.245-1.328 3.32-1.328 4.648-.083l58.765 55.196 112.301-112.467c1.245-1.245 3.32-1.328 4.648-.083l57.188 55.113 52.623-54.947c.581-.664 1.494-.996 2.324-.996.83 0 1.743.332 2.407.996l111.303 111.305 112.47-225.432a3.325 3.325 0 014.48-1.494 3.33 3.33 0 011.5 4.482l-114.55 229.582c-.49.996-1.41 1.66-2.4 1.826-1.08.166-2.16-.166-2.91-.913L982.596 779.09l-52.54 54.947c-.581.664-1.411.996-2.324.996-.83 0-1.743-.332-2.407-.913l-57.271-55.113-112.218 112.467c-1.245 1.245-3.32 1.328-4.648.083l-58.765-55.196-165.671 169.819c-.747.67-1.577 1-2.407 1z" fill="#F7944B"/><path d="M817.36 726.89a8.3 8.3 0 10-3.817-16.156 8.3 8.3 0 003.817 16.156z" fill="#36C795"/><path d="M694.525 839.607a8.3 8.3 0 10-3.814-16.155 8.3 8.3 0 103.814 16.155zM867.971 782.577a8.3 8.3 0 100-16.6 8.3 8.3 0 100 16.6zM982.513 782.577a8.3 8.3 0 100-16.6 8.3 8.3 0 000 16.6z" fill="#F7944B"/><path d="M1097.06 782.577c4.58 0 8.3-3.716 8.3-8.3 0-4.584-3.72-8.3-8.3-8.3-4.59 0-8.31 3.716-8.31 8.3 0 4.584 3.72 8.3 8.31 8.3z" fill="#36C795"/></g><g opacity=".8"><path d="M1202.32 454.633l-17.89 11.807 17.76 12.003c4.88-7.216 4.86-16.64.13-23.81z" fill="#FED"/><path d="M1202.3 454.608c-.06-.075-.12-.181-.12-.181-4.21-6.254-11.43-9.799-18.89-9.392.31 7.298.09 2.938 1.14 21.405 17.92-11.827 15.15-9.983 17.87-11.832z" fill="#9CD499"/><path d="M1169.17 481.485l15.26-15.045-1.22-21.409c-18.52 1.049-26.83 23.374-14.04 36.454z" fill="#FFB783"/><path d="M1202.2 478.43l-17.77-12.002-15.25 15.045c9.56 9.786 25.59 7.927 33.02-3.043z" fill="#F7944B"/><path d="M1202.51 453.655c-4.24-5.999-11.29-9.547-18.62-9.36v-.013l-.71.043c-.01-.006-.03.001-.05-.005l-.57.027-.01.013c-4.27.353-8.23 1.858-11.51 4.357-3.21 2.453-5.7 5.779-7.19 9.634-3.11 8.031-1.44 16.816 4.35 23.101l-.01.013.51.503.49.516.01-.013c4.57 4.38 10.78 6.556 17.15 5.979 6.48-.587 12.28-3.867 16.04-9.051l.01.006.4-.582.4-.596-.01-.006a22.6 22.6 0 001.32-2.4 22.039 22.039 0 002.08-9.317 22.095 22.095 0 00-3.3-11.717l.02-.006-.15-.226-.24-.363c-.04-.05-.08-.119-.11-.163l-.02-.025-.01-.019-.27-.33zm-18.41-6.272c-.01-.477-.04-1.024-.07-1.666 6.81-.136 13.34 3.152 17.29 8.712l-.14.092c-.72.495-1.03.694-2.48 1.665l-13.63 8.985-.75-13.129c-.1-1.932-.14-2.72-.22-4.659zm-14.91 33.09c-5.39-5.881-6.93-14.084-4.04-21.588 2.88-7.421 9.49-12.376 17.38-13.087l.36 6.33c.07 1.303.18 3.133.35 6.183.12 1.957.25 4.423.44 7.575l.02.197-.55.357.17.11-6.68 6.593-7.45 7.33zm17.02 6.574c-5.95.541-11.74-1.486-16.01-5.568l10.04-9.914 4.28-4.217 16.68 11.259c-3.53 4.835-8.95 7.896-14.99 8.44zm15.78-9.611l-16.29-10.995 7.72-5.097c3.12-2.056 4.9-3.233 6.01-3.967l2.66-1.752c4.13 6.733 4.09 15.153-.1 21.811z" fill="#D7F4EA"/></g></svg>